<svg xmlns="http://www.w3.org/2000/svg" xmlns:xlink="http://www.w3.org/1999/xlink" width="500" zoomAndPan="magnify" viewBox="0 0 375 374.999991" height="500" preserveAspectRatio="xMidYMid meet" version="1.0"><defs><g/><clipPath id="6d230854f4"><path d="M 6 2 L 224 2 L 224 221 L 6 221 Z M 6 2 " clip-rule="nonzero"/></clipPath><clipPath id="426824e415"><path d="M 253.695312 -77.328125 L 512.464844 369.097656 L 201.007812 549.632812 L -57.761719 103.207031 Z M 253.695312 -77.328125 " clip-rule="nonzero"/></clipPath><clipPath id="6f10b67941"><path d="M 253.695312 -77.328125 L 512.464844 369.097656 L 201.007812 549.632812 L -57.761719 103.207031 Z M 253.695312 -77.328125 " clip-rule="nonzero"/></clipPath><clipPath id="4e3c006a4e"><path d="M 20 13 L 375 13 L 375 375 L 20 375 Z M 20 13 " clip-rule="nonzero"/></clipPath><clipPath id="d21c26a9aa"><path d="M 253.695312 -77.328125 L 512.464844 369.097656 L 201.007812 549.632812 L -57.761719 103.207031 Z M 253.695312 -77.328125 " clip-rule="nonzero"/></clipPath><clipPath id="1ac9f55e4a"><path d="M 253.695312 -77.328125 L 512.464844 369.097656 L 201.007812 549.632812 L -57.761719 103.207031 Z M 253.695312 -77.328125 " clip-rule="nonzero"/></clipPath><clipPath id="0ad3119cb7"><path d="M 37 49 L 261 49 L 261 269 L 37 269 Z M 37 49 " clip-rule="nonzero"/></clipPath><clipPath id="4940c08699"><path d="M 253.695312 -77.328125 L 512.464844 369.097656 L 201.007812 549.632812 L -57.761719 103.207031 Z M 253.695312 -77.328125 " clip-rule="nonzero"/></clipPath><clipPath id="6f609ee362"><path d="M 253.695312 -77.328125 L 512.464844 369.097656 L 201.007812 549.632812 L -57.761719 103.207031 Z M 253.695312 -77.328125 " clip-rule="nonzero"/></clipPath><clipPath id="fc32557cf0"><path d="M 209 229 L 375 229 L 375 375 L 209 375 Z M 209 229 " clip-rule="nonzero"/></clipPath><clipPath id="f2ac8a109d"><path d="M 253.695312 -77.328125 L 512.464844 369.097656 L 201.007812 549.632812 L -57.761719 103.207031 Z M 253.695312 -77.328125 " clip-rule="nonzero"/></clipPath><clipPath id="d9a060ff3c"><path d="M 253.695312 -77.328125 L 512.464844 369.097656 L 201.007812 549.632812 L -57.761719 103.207031 Z M 253.695312 -77.328125 " clip-rule="nonzero"/></clipPath><clipPath id="4384fe6e53"><path d="M 313.605469 195.136719 L 362.484375 195.136719 L 362.484375 268.460938 L 313.605469 268.460938 Z M 313.605469 195.136719 " clip-rule="nonzero"/></clipPath><clipPath id="022d8f135d"><path d="M 338.042969 195.136719 L 362.484375 195.136719 L 338.042969 268.460938 L 313.605469 268.460938 Z M 338.042969 195.136719 " clip-rule="nonzero"/></clipPath><clipPath id="aaeb2239cb"><path d="M 313.605469 195.136719 L 362.355469 195.136719 L 362.355469 268.449219 L 313.605469 268.449219 Z M 313.605469 195.136719 " clip-rule="nonzero"/></clipPath><clipPath id="e66cc95cdd"><path d="M 338.042969 195.136719 L 362.480469 195.136719 L 338.042969 268.449219 L 313.605469 268.449219 Z M 338.042969 195.136719 " clip-rule="nonzero"/></clipPath><clipPath id="80c08aa3bb"><path d="M 12.503906 106.515625 L 61.066406 106.515625 L 61.066406 187.703125 L 12.503906 187.703125 Z M 12.503906 106.515625 " clip-rule="nonzero"/></clipPath><clipPath id="af75ef62de"><path d="M 36.785156 187.703125 L 12.503906 187.703125 L 36.785156 106.535156 L 61.066406 106.535156 Z M 36.785156 187.703125 " clip-rule="nonzero"/></clipPath><clipPath id="e7c60af5b2"><path d="M 12.515625 106.703125 L 61.066406 106.703125 L 61.066406 187.699219 L 12.515625 187.699219 Z M 12.515625 106.703125 " clip-rule="nonzero"/></clipPath><clipPath id="4cbbf4421b"><path d="M 36.789062 187.699219 L 12.515625 187.699219 L 36.789062 106.542969 L 61.066406 106.542969 Z M 36.789062 187.699219 " clip-rule="nonzero"/></clipPath><clipPath id="37cbd3c6b7"><path d="M 72 106.535156 L 355.582031 106.535156 L 355.582031 187.703125 L 72 187.703125 Z M 72 106.535156 " clip-rule="nonzero"/></clipPath><clipPath id="4884bf4c8d"><path d="M 331.300781 187.703125 L 72.121094 187.703125 L 96.402344 106.535156 L 355.582031 106.535156 Z M 331.300781 187.703125 " clip-rule="nonzero"/></clipPath><clipPath id="89b8458aa0"><path d="M 72.082031 106.703125 L 355.578125 106.703125 L 355.578125 187.703125 L 72.082031 187.703125 Z M 72.082031 106.703125 " clip-rule="nonzero"/></clipPath><clipPath id="de93a26d88"><path d="M 331.296875 187.703125 L 72.132812 187.703125 L 96.410156 106.539062 L 355.578125 106.539062 Z M 331.296875 187.703125 " clip-rule="nonzero"/></clipPath><clipPath id="92c05161b9"><path d="M 12.515625 195.136719 L 301.796875 195.136719 L 301.796875 268.460938 L 12.515625 268.460938 Z M 12.515625 195.136719 " clip-rule="nonzero"/></clipPath><clipPath id="7ea44a7059"><path d="M 36.957031 195.136719 L 301.527344 195.136719 L 277.085938 268.460938 L 12.515625 268.460938 Z M 36.957031 195.136719 " clip-rule="nonzero"/></clipPath><clipPath id="3b29fc64bd"><path d="M 12.535156 195.136719 L 301.265625 195.136719 L 301.265625 268.449219 L 12.535156 268.449219 Z M 12.535156 195.136719 " clip-rule="nonzero"/></clipPath><clipPath id="efa7169170"><path d="M 36.972656 195.136719 L 301.503906 195.136719 L 277.066406 268.449219 L 12.535156 268.449219 Z M 36.972656 195.136719 " clip-rule="nonzero"/></clipPath><clipPath id="ffa0b31dd2"><path d="M 283.125 195.136719 L 332.003906 195.136719 L 332.003906 268.460938 L 283.125 268.460938 Z M 283.125 195.136719 " clip-rule="nonzero"/></clipPath><clipPath id="3843cf1901"><path d="M 307.566406 195.136719 L 332.003906 195.136719 L 307.566406 268.460938 L 283.125 268.460938 Z M 307.566406 195.136719 " clip-rule="nonzero"/></clipPath><clipPath id="56fb341331"><path d="M 283.125 195.136719 L 331.875 195.136719 L 331.875 268.449219 L 283.125 268.449219 Z M 283.125 195.136719 " clip-rule="nonzero"/></clipPath><clipPath id="dc9103ba64"><path d="M 307.5625 195.136719 L 332 195.136719 L 307.5625 268.449219 L 283.125 268.449219 Z M 307.5625 195.136719 " clip-rule="nonzero"/></clipPath><clipPath id="d4e59b6da3"><path d="M 41.992188 106.515625 L 90.550781 106.515625 L 90.550781 187.703125 L 41.992188 187.703125 Z M 41.992188 106.515625 " clip-rule="nonzero"/></clipPath><clipPath id="9817b44116"><path d="M 66.269531 187.703125 L 41.992188 187.703125 L 66.269531 106.535156 L 90.550781 106.535156 Z M 66.269531 187.703125 " clip-rule="nonzero"/></clipPath><clipPath id="452d002a10"><path d="M 42 106.703125 L 90.550781 106.703125 L 90.550781 187.699219 L 42 187.699219 Z M 42 106.703125 " clip-rule="nonzero"/></clipPath><clipPath id="d76d53c5b6"><path d="M 66.273438 187.699219 L 42 187.699219 L 66.273438 106.542969 L 90.550781 106.542969 Z M 66.273438 187.699219 " clip-rule="nonzero"/></clipPath></defs><rect x="-37.5" width="450" fill="#ffffff" y="-37.499999" height="449.999989" fill-opacity="1"/><rect x="-37.5" width="450" fill="#4f31b9" y="-37.499999" height="449.999989" fill-opacity="1"/><rect x="-37.5" width="450" fill="#4f31b9" y="-37.499999" height="449.999989" fill-opacity="1"/><g clip-path="url(#6d230854f4)"><g clip-path="url(#426824e415)"><g clip-path="url(#6f10b67941)"><path fill="#f2f2f2" d="M 35.898438 99.324219 C 35.921875 98.957031 35.996094 98.675781 36.070312 98.398438 Z M 35.898438 99.324219 C 28.757812 94.355469 20.460938 91.472656 11.796875 90.8125 C 13.175781 98.296875 16.492188 105.246094 21.660156 110.890625 C 22.746094 112.15625 24.203125 113.441406 25.890625 113.292969 C 26.980469 113.132812 28.09375 112.605469 28.773438 111.738281 C 32.335938 108.488281 34.773438 104.121094 35.898438 99.324219 Z M 29.125 209.507812 L 28.449219 208.953125 C 21.019531 209 13.632812 207.484375 6.796875 204.464844 C 10.902344 211.550781 17.261719 217.210938 24.671875 220.609375 C 28.582031 218.578125 30.445312 213.828125 29.125 209.507812 Z M 130.429688 16.839844 C 126.675781 10.972656 121.566406 6.242188 115.613281 2.710938 C 116.726562 8.101562 118.195312 13.285156 120.207031 18.390625 C 120.75 19.730469 121.390625 21.25 122.804688 21.851562 C 123.835938 22.203125 124.941406 22.269531 125.929688 21.933594 C 128.769531 21.117188 131.105469 18.816406 131.796875 15.929688 Z M 221.933594 27.105469 C 221.59375 26.117188 220.980469 25.054688 219.824219 24.898438 C 218.667969 24.738281 217.949219 25.746094 217.496094 26.601562 L 210.242188 38.378906 C 209.347656 39.488281 208.925781 40.800781 208.832031 42.273438 C 209.183594 47.984375 218.109375 47.664062 220.808594 44.5625 C 223.882812 40.882812 223.429688 31.324219 221.933594 27.105469 Z M 221.933594 27.105469 " fill-opacity="1" fill-rule="nonzero"/></g></g></g><g clip-path="url(#4e3c006a4e)"><g clip-path="url(#d21c26a9aa)"><g clip-path="url(#1ac9f55e4a)"><path fill="#bc9ded" d="M 375.648438 218.199219 L 323.375 175.375 C 312.988281 166.84375 302.40625 158.183594 294.066406 147.875 C 280.757812 131.449219 273.355469 111.128906 273.449219 91.078125 C 273.453125 83.738281 274.449219 76.0625 271.761719 68.980469 C 270.050781 65.003906 267.714844 61.386719 264.777344 58.359375 C 251.40625 43.863281 229.457031 36.824219 210.398438 40.890625 C 201.976562 42.695312 193.546875 46.519531 184.960938 44.160156 C 172.824219 40.78125 167.433594 26.984375 157.34375 19.582031 C 144.421875 10.152344 125.328125 12.9375 113.667969 22.417969 C 102.003906 31.898438 96.292969 46.332031 92.355469 60.566406 C 89.460938 70.882812 89.300781 88.367188 78.21875 84.96875 C 59.289062 79.257812 37.878906 86.816406 27.710938 101.941406 C 17.542969 117.0625 18.769531 138.363281 29.75 154.242188 C 35.386719 162.335938 43.585938 170.359375 42.464844 179.648438 C 41.511719 188.011719 33.214844 193.292969 27.882812 199.8125 C 16.164062 214.296875 19.734375 237.195312 32.992188 252.109375 C 46.164062 267.074219 66.769531 274.65625 86.792969 276.539062 C 103.625 278.023438 120.792969 276 137.152344 280.953125 C 161.554688 288.34375 205.851562 322.304688 208.875 324.457031 C 237.394531 345.078125 342.921875 428.742188 375.1875 443.167969 C 430.902344 416.199219 470.226562 366.664062 476.292969 306.703125 C 467.738281 296.636719 385.988281 226.644531 375.648438 218.199219 Z M 375.648438 218.199219 " fill-opacity="1" fill-rule="nonzero"/></g></g></g><g clip-path="url(#0ad3119cb7)"><g clip-path="url(#4940c08699)"><g clip-path="url(#6f609ee362)"><path fill="#ff75cf" d="M 170.8125 268.1875 C 159.179688 269.957031 147.226562 262.808594 139.160156 253.996094 C 120.761719 233.894531 116.789062 205.195312 122.691406 180.472656 C 127.804688 159.289062 141.253906 138.597656 163.347656 132.414062 C 174.347656 129.351562 186.417969 130.164062 198.109375 131.554688 C 212.515625 133.140625 227.351562 135.664062 239.878906 143.195312 C 252.355469 150.632812 262.140625 164.25 260.394531 177.566406 C 258.210938 194.214844 241.253906 203.335938 227.601562 211.011719 C 211.910156 219.871094 206.359375 228.058594 197.71875 243.359375 C 191.691406 254.191406 183.855469 266.1875 170.8125 268.1875 Z M 105.921875 234.214844 C 108.746094 227.25 103.988281 219.242188 99.363281 212.691406 C 92.46875 202.84375 83.210938 191.765625 71.085938 192.285156 C 66.464844 192.476562 62.1875 194.484375 58.289062 196.742188 C 53.152344 199.722656 48.285156 203.371094 45.332031 208.277344 C 38.667969 219.238281 46.269531 228.675781 53.058594 238.347656 C 57.632812 244.808594 63.503906 251.464844 71.410156 253.269531 C 81.875 255.605469 91.21875 248.652344 98.847656 242.21875 C 101.742188 240.066406 104.570312 237.597656 105.921875 234.214844 Z M 104.613281 147.648438 C 105.332031 145.21875 105.40625 142.691406 104.933594 140.242188 C 103.320312 129.699219 98.765625 119.800781 91.933594 111.691406 C 86.585938 105.324219 79.3125 99.71875 70.96875 98.996094 C 57.273438 97.820312 47.628906 109.5625 40.34375 120.058594 L 44.488281 116.59375 C 39.566406 121.574219 37.3125 128.914062 38.027344 136.070312 C 38.816406 144.371094 43.296875 152.304688 49.203125 158.820312 C 52.503906 162.46875 56.421875 165.761719 61.027344 167.585938 C 75.082031 173.046875 89.152344 163.234375 99.582031 153.875 C 101.578125 152.007812 103.660156 150.089844 104.613281 147.648438 Z M 158.515625 112.851562 C 172.234375 105.492188 177.925781 87.757812 171.84375 73.179688 C 161.46875 48.546875 114.964844 37.519531 105.515625 65.714844 C 96.339844 93.160156 129.535156 128.585938 158.515625 112.851562 Z M 203.21875 89.542969 C 205.304688 94.367188 208.417969 98.71875 211.796875 102.910156 C 216.621094 108.988281 222.285156 115.289062 230.003906 116.96875 C 239.296875 118.917969 247.910156 113.570312 254.707031 107.738281 C 256.679688 106.242188 258.304688 104.351562 259.410156 102.171875 C 260.761719 98.789062 259.921875 94.894531 258.785156 91.296875 C 255.195312 80.003906 248.726562 68.84375 238.222656 62.152344 C 214.207031 46.847656 193.128906 65.808594 203.21875 89.542969 Z M 203.21875 89.542969 " fill-opacity="1" fill-rule="nonzero"/></g></g></g><g clip-path="url(#fc32557cf0)"><g clip-path="url(#f2ac8a109d)"><g clip-path="url(#d9a060ff3c)"><path fill="#eb028c" d="M 365.0625 313.433594 C 348.996094 341.445312 320.679688 372.410156 287.828125 384.117188 C 282.011719 379.796875 276.28125 375.425781 270.605469 371.144531 C 271.300781 370.507812 271.90625 369.917969 272.601562 369.277344 C 292.8125 350.464844 313.027344 331.648438 333.1875 312.742188 C 342.164062 304.34375 351.230469 295.894531 358.367188 285.960938 C 368.429688 272.082031 374.433594 255.703125 382.773438 240.695312 C 384.832031 236.898438 387.082031 233.226562 389.574219 229.769531 C 393.492188 233.058594 398 236.957031 402.75 241.066406 C 391.15625 265.769531 378.519531 289.898438 365.0625 313.433594 Z M 253.132812 309.566406 C 239.4375 316.558594 223.507812 319.285156 209.027344 324.722656 C 215.367188 329.328125 225.277344 336.835938 237.449219 345.992188 C 257.449219 329.667969 274.390625 305.410156 293.441406 293.777344 C 278.78125 292.570312 266.210938 302.933594 253.132812 309.566406 Z M 440.351562 297.363281 C 442.84375 293.90625 447.234375 289.234375 451.863281 283.949219 C 446.527344 279.230469 440.753906 274.175781 434.792969 268.992188 C 431.074219 275.644531 428.265625 281.414062 426.949219 283.835938 C 420.46875 295.519531 414.179688 307.328125 408.554688 319.464844 C 404.945312 327.117188 400.632812 348.667969 394.722656 353.984375 C 413.035156 337.808594 426.253906 317.132812 440.351562 297.363281 Z M 440.351562 297.363281 " fill-opacity="1" fill-rule="nonzero"/></g></g></g><g clip-path="url(#4384fe6e53)"><g clip-path="url(#022d8f135d)"><path fill="#20a4f3" d="M 313.605469 195.136719 L 362.484375 195.136719 L 362.484375 268.460938 L 313.605469 268.460938 Z M 313.605469 195.136719 " fill-opacity="1" fill-rule="nonzero"/></g></g><g clip-path="url(#aaeb2239cb)"><g clip-path="url(#e66cc95cdd)"><path stroke-linecap="butt" transform="matrix(0.75, 0, 0, 0.75, 313.605483, 195.138035)" fill="none" stroke-linejoin="miter" d="M 32.583316 -0.00175525 L 65.166652 -0.00175525 L 32.583316 97.748251 L -0.0000191421 97.748251 Z M 32.583316 -0.00175525 " stroke="#ffffff" stroke-width="8" stroke-opacity="1" stroke-miterlimit="4"/></g></g><g clip-path="url(#80c08aa3bb)"><g clip-path="url(#af75ef62de)"><path fill="#f1078c" d="M 61.066406 187.703125 L 12.503906 187.703125 L 12.503906 106.515625 L 61.066406 106.515625 Z M 61.066406 187.703125 " fill-opacity="1" fill-rule="nonzero"/></g></g><g clip-path="url(#e7c60af5b2)"><g clip-path="url(#4cbbf4421b)"><path stroke-linecap="butt" transform="matrix(-0.75, 0, 0, -0.75, 61.065406, 187.697611)" fill="none" stroke-linejoin="miter" d="M 32.36846 -0.00214383 L 64.733046 -0.00214383 L 32.36846 108.206197 L -0.00133355 108.206197 Z M 32.36846 -0.00214383 " stroke="#ffffff" stroke-width="8" stroke-opacity="1" stroke-miterlimit="4"/></g></g><g clip-path="url(#37cbd3c6b7)"><g clip-path="url(#4884bf4c8d)"><path fill="#f1078c" d="M 355.582031 187.703125 L 72.125 187.703125 L 72.125 106.535156 L 355.582031 106.535156 Z M 355.582031 187.703125 " fill-opacity="1" fill-rule="nonzero"/></g></g><g clip-path="url(#89b8458aa0)"><g clip-path="url(#de93a26d88)"><path stroke-linecap="butt" transform="matrix(-0.75, 0, 0, -0.75, 355.576505, 187.703191)" fill="none" stroke-linejoin="miter" d="M 32.372842 0.0000878322 L 377.924948 0.0000878322 L 345.555155 108.218845 L -0.0021598 108.218845 Z M 32.372842 0.0000878322 " stroke="#ffffff" stroke-width="8" stroke-opacity="1" stroke-miterlimit="4"/></g></g><g clip-path="url(#92c05161b9)"><g clip-path="url(#7ea44a7059)"><path fill="#20a4f3" d="M 12.515625 195.136719 L 301.507812 195.136719 L 301.507812 268.460938 L 12.515625 268.460938 Z M 12.515625 195.136719 " fill-opacity="1" fill-rule="nonzero"/></g></g><g clip-path="url(#3b29fc64bd)"><g clip-path="url(#efa7169170)"><path stroke-linecap="butt" transform="matrix(0.75, 0, 0, 0.75, 12.53325, 195.138035)" fill="none" stroke-linejoin="miter" d="M 32.585877 -0.00175525 L 385.294234 -0.00175525 L 352.710898 97.748251 L 0.00254188 97.748251 Z M 32.585877 -0.00175525 " stroke="#ffffff" stroke-width="8" stroke-opacity="1" stroke-miterlimit="4"/></g></g><g clip-path="url(#ffa0b31dd2)"><g clip-path="url(#3843cf1901)"><path fill="#20a4f3" d="M 283.125 195.136719 L 332.003906 195.136719 L 332.003906 268.460938 L 283.125 268.460938 Z M 283.125 195.136719 " fill-opacity="1" fill-rule="nonzero"/></g></g><g clip-path="url(#56fb341331)"><g clip-path="url(#dc9103ba64)"><path stroke-linecap="butt" transform="matrix(0.75, 0, 0, 0.75, 283.125632, 195.138035)" fill="none" stroke-linejoin="miter" d="M 32.582493 -0.00175525 L 65.165829 -0.00175525 L 32.582493 97.748251 L -0.000842011 97.748251 Z M 32.582493 -0.00175525 " stroke="#ffffff" stroke-width="8" stroke-opacity="1" stroke-miterlimit="4"/></g></g><g fill="#ff00ff" fill-opacity="1"><g transform="translate(94.365701, 159.708592)"><g><path d="M 25.613281 0 C 28.925781 0 31.636719 -2.710938 31.636719 -6.027344 L 31.636719 -24.105469 C 31.636719 -27.421875 28.925781 -30.132812 25.613281 -30.132812 L 1.507812 -30.132812 L 1.507812 0 Z M 7.53125 -24.105469 L 25.613281 -24.105469 L 25.613281 -6.027344 L 7.53125 -6.027344 Z M 7.53125 -24.105469 "/></g></g></g><g fill="#ff00ff" fill-opacity="1"><g transform="translate(128.112843, 159.708592)"><g><path d="M 31.636719 0 L 31.636719 -6.027344 L 19.585938 -6.027344 L 19.585938 -24.105469 L 31.636719 -24.105469 L 31.636719 -30.132812 L 1.507812 -30.132812 L 1.507812 -24.105469 L 13.558594 -24.105469 L 13.558594 -6.027344 L 1.507812 -6.027344 L 1.507812 0 Z M 31.636719 0 "/></g></g></g><g fill="#ff00ff" fill-opacity="1"><g transform="translate(161.859986, 159.708592)"><g><path d="M 31.636719 -30.132812 L 7.53125 -30.132812 C 4.21875 -30.132812 1.507812 -27.421875 1.507812 -24.105469 L 1.507812 -18.078125 C 1.507812 -14.765625 4.21875 -12.054688 7.53125 -12.054688 L 25.613281 -12.054688 L 25.613281 -6.027344 L 1.507812 -6.027344 L 1.507812 0 L 25.613281 0 C 28.925781 0 31.636719 -2.710938 31.636719 -6.027344 L 31.636719 -12.054688 C 31.636719 -15.367188 28.925781 -18.078125 25.613281 -18.078125 L 7.53125 -18.078125 L 7.53125 -24.105469 L 31.636719 -24.105469 Z M 31.636719 -30.132812 "/></g></g></g><g fill="#ff00ff" fill-opacity="1"><g transform="translate(195.607134, 159.708592)"><g><path d="M 31.636719 0 L 31.636719 -6.027344 L 7.53125 -6.027344 L 7.53125 -24.105469 L 31.636719 -24.105469 L 31.636719 -30.132812 L 7.53125 -30.132812 C 4.21875 -30.132812 1.507812 -27.421875 1.507812 -24.105469 L 1.507812 -6.027344 C 1.507812 -2.710938 4.21875 0 7.53125 0 Z M 31.636719 0 "/></g></g></g><g fill="#ff00ff" fill-opacity="1"><g transform="translate(229.354271, 159.708592)"><g><path d="M 25.613281 0 C 28.964844 0 31.636719 -2.75 31.636719 -6.027344 L 31.636719 -24.105469 C 31.636719 -27.421875 28.925781 -30.132812 25.613281 -30.132812 L 7.53125 -30.132812 C 4.21875 -30.132812 1.507812 -27.421875 1.507812 -24.105469 L 1.507812 -6.027344 C 1.507812 -2.710938 4.21875 0 7.53125 0 Z M 7.53125 -24.105469 L 25.613281 -24.105469 L 25.613281 -6.027344 L 7.53125 -6.027344 Z M 7.53125 -24.105469 "/></g></g></g><g fill="#ff00ff" fill-opacity="1"><g transform="translate(263.101407, 159.708592)"><g><path d="M 31.636719 -24.105469 C 31.636719 -27.421875 28.925781 -30.132812 25.613281 -30.132812 L 1.507812 -30.132812 L 1.507812 0 L 7.53125 0 L 7.53125 -12.054688 L 11.074219 -12.054688 L 22.222656 -0.902344 C 22.824219 -0.300781 23.578125 0 24.40625 0 L 31.636719 0 L 31.636719 -6.027344 L 25.613281 -6.027344 L 19.585938 -12.054688 L 25.613281 -12.054688 C 28.925781 -12.054688 31.636719 -14.765625 31.636719 -18.078125 Z M 25.613281 -24.105469 L 25.613281 -18.078125 L 7.53125 -18.078125 L 7.53125 -24.105469 Z M 25.613281 -24.105469 "/></g></g></g><g fill="#ff00ff" fill-opacity="1"><g transform="translate(296.848544, 159.708592)"><g><path d="M 25.613281 0 C 28.925781 0 31.636719 -2.710938 31.636719 -6.027344 L 31.636719 -24.105469 C 31.636719 -27.421875 28.925781 -30.132812 25.613281 -30.132812 L 1.507812 -30.132812 L 1.507812 0 Z M 7.53125 -24.105469 L 25.613281 -24.105469 L 25.613281 -6.027344 L 7.53125 -6.027344 Z M 7.53125 -24.105469 "/></g></g></g><g fill="#00ffff" fill-opacity="1"><g transform="translate(97.69529, 163.038184)"><g><path d="M 25.613281 0 C 28.925781 0 31.636719 -2.710938 31.636719 -6.027344 L 31.636719 -24.105469 C 31.636719 -27.421875 28.925781 -30.132812 25.613281 -30.132812 L 1.507812 -30.132812 L 1.507812 0 Z M 7.53125 -24.105469 L 25.613281 -24.105469 L 25.613281 -6.027344 L 7.53125 -6.027344 Z M 7.53125 -24.105469 "/></g></g></g><g fill="#00ffff" fill-opacity="1"><g transform="translate(131.442433, 163.038184)"><g><path d="M 31.636719 0 L 31.636719 -6.027344 L 19.585938 -6.027344 L 19.585938 -24.105469 L 31.636719 -24.105469 L 31.636719 -30.132812 L 1.507812 -30.132812 L 1.507812 -24.105469 L 13.558594 -24.105469 L 13.558594 -6.027344 L 1.507812 -6.027344 L 1.507812 0 Z M 31.636719 0 "/></g></g></g><g fill="#00ffff" fill-opacity="1"><g transform="translate(165.189575, 163.038184)"><g><path d="M 31.636719 -30.132812 L 7.53125 -30.132812 C 4.21875 -30.132812 1.507812 -27.421875 1.507812 -24.105469 L 1.507812 -18.078125 C 1.507812 -14.765625 4.21875 -12.054688 7.53125 -12.054688 L 25.613281 -12.054688 L 25.613281 -6.027344 L 1.507812 -6.027344 L 1.507812 0 L 25.613281 0 C 28.925781 0 31.636719 -2.710938 31.636719 -6.027344 L 31.636719 -12.054688 C 31.636719 -15.367188 28.925781 -18.078125 25.613281 -18.078125 L 7.53125 -18.078125 L 7.53125 -24.105469 L 31.636719 -24.105469 Z M 31.636719 -30.132812 "/></g></g></g><g fill="#00ffff" fill-opacity="1"><g transform="translate(198.936724, 163.038184)"><g><path d="M 31.636719 0 L 31.636719 -6.027344 L 7.53125 -6.027344 L 7.53125 -24.105469 L 31.636719 -24.105469 L 31.636719 -30.132812 L 7.53125 -30.132812 C 4.21875 -30.132812 1.507812 -27.421875 1.507812 -24.105469 L 1.507812 -6.027344 C 1.507812 -2.710938 4.21875 0 7.53125 0 Z M 31.636719 0 "/></g></g></g><g fill="#00ffff" fill-opacity="1"><g transform="translate(232.68386, 163.038184)"><g><path d="M 25.613281 0 C 28.964844 0 31.636719 -2.75 31.636719 -6.027344 L 31.636719 -24.105469 C 31.636719 -27.421875 28.925781 -30.132812 25.613281 -30.132812 L 7.53125 -30.132812 C 4.21875 -30.132812 1.507812 -27.421875 1.507812 -24.105469 L 1.507812 -6.027344 C 1.507812 -2.710938 4.21875 0 7.53125 0 Z M 7.53125 -24.105469 L 25.613281 -24.105469 L 25.613281 -6.027344 L 7.53125 -6.027344 Z M 7.53125 -24.105469 "/></g></g></g><g fill="#00ffff" fill-opacity="1"><g transform="translate(266.430997, 163.038184)"><g><path d="M 31.636719 -24.105469 C 31.636719 -27.421875 28.925781 -30.132812 25.613281 -30.132812 L 1.507812 -30.132812 L 1.507812 0 L 7.53125 0 L 7.53125 -12.054688 L 11.074219 -12.054688 L 22.222656 -0.902344 C 22.824219 -0.300781 23.578125 0 24.40625 0 L 31.636719 0 L 31.636719 -6.027344 L 25.613281 -6.027344 L 19.585938 -12.054688 L 25.613281 -12.054688 C 28.925781 -12.054688 31.636719 -14.765625 31.636719 -18.078125 Z M 25.613281 -24.105469 L 25.613281 -18.078125 L 7.53125 -18.078125 L 7.53125 -24.105469 Z M 25.613281 -24.105469 "/></g></g></g><g fill="#00ffff" fill-opacity="1"><g transform="translate(300.178133, 163.038184)"><g><path d="M 25.613281 0 C 28.925781 0 31.636719 -2.710938 31.636719 -6.027344 L 31.636719 -24.105469 C 31.636719 -27.421875 28.925781 -30.132812 25.613281 -30.132812 L 1.507812 -30.132812 L 1.507812 0 Z M 7.53125 -24.105469 L 25.613281 -24.105469 L 25.613281 -6.027344 L 7.53125 -6.027344 Z M 7.53125 -24.105469 "/></g></g></g><g fill="#ffffff" fill-opacity="1"><g transform="translate(96.030496, 161.373388)"><g><path d="M 25.613281 0 C 28.925781 0 31.636719 -2.710938 31.636719 -6.027344 L 31.636719 -24.105469 C 31.636719 -27.421875 28.925781 -30.132812 25.613281 -30.132812 L 1.507812 -30.132812 L 1.507812 0 Z M 7.53125 -24.105469 L 25.613281 -24.105469 L 25.613281 -6.027344 L 7.53125 -6.027344 Z M 7.53125 -24.105469 "/></g></g></g><g fill="#ffffff" fill-opacity="1"><g transform="translate(129.777639, 161.373388)"><g><path d="M 31.636719 0 L 31.636719 -6.027344 L 19.585938 -6.027344 L 19.585938 -24.105469 L 31.636719 -24.105469 L 31.636719 -30.132812 L 1.507812 -30.132812 L 1.507812 -24.105469 L 13.558594 -24.105469 L 13.558594 -6.027344 L 1.507812 -6.027344 L 1.507812 0 Z M 31.636719 0 "/></g></g></g><g fill="#ffffff" fill-opacity="1"><g transform="translate(163.524782, 161.373388)"><g><path d="M 31.636719 -30.132812 L 7.53125 -30.132812 C 4.21875 -30.132812 1.507812 -27.421875 1.507812 -24.105469 L 1.507812 -18.078125 C 1.507812 -14.765625 4.21875 -12.054688 7.53125 -12.054688 L 25.613281 -12.054688 L 25.613281 -6.027344 L 1.507812 -6.027344 L 1.507812 0 L 25.613281 0 C 28.925781 0 31.636719 -2.710938 31.636719 -6.027344 L 31.636719 -12.054688 C 31.636719 -15.367188 28.925781 -18.078125 25.613281 -18.078125 L 7.53125 -18.078125 L 7.53125 -24.105469 L 31.636719 -24.105469 Z M 31.636719 -30.132812 "/></g></g></g><g fill="#ffffff" fill-opacity="1"><g transform="translate(197.27193, 161.373388)"><g><path d="M 31.636719 0 L 31.636719 -6.027344 L 7.53125 -6.027344 L 7.53125 -24.105469 L 31.636719 -24.105469 L 31.636719 -30.132812 L 7.53125 -30.132812 C 4.21875 -30.132812 1.507812 -27.421875 1.507812 -24.105469 L 1.507812 -6.027344 C 1.507812 -2.710938 4.21875 0 7.53125 0 Z M 31.636719 0 "/></g></g></g><g fill="#ffffff" fill-opacity="1"><g transform="translate(231.019067, 161.373388)"><g><path d="M 25.613281 0 C 28.964844 0 31.636719 -2.75 31.636719 -6.027344 L 31.636719 -24.105469 C 31.636719 -27.421875 28.925781 -30.132812 25.613281 -30.132812 L 7.53125 -30.132812 C 4.21875 -30.132812 1.507812 -27.421875 1.507812 -24.105469 L 1.507812 -6.027344 C 1.507812 -2.710938 4.21875 0 7.53125 0 Z M 7.53125 -24.105469 L 25.613281 -24.105469 L 25.613281 -6.027344 L 7.53125 -6.027344 Z M 7.53125 -24.105469 "/></g></g></g><g fill="#ffffff" fill-opacity="1"><g transform="translate(264.766203, 161.373388)"><g><path d="M 31.636719 -24.105469 C 31.636719 -27.421875 28.925781 -30.132812 25.613281 -30.132812 L 1.507812 -30.132812 L 1.507812 0 L 7.53125 0 L 7.53125 -12.054688 L 11.074219 -12.054688 L 22.222656 -0.902344 C 22.824219 -0.300781 23.578125 0 24.40625 0 L 31.636719 0 L 31.636719 -6.027344 L 25.613281 -6.027344 L 19.585938 -12.054688 L 25.613281 -12.054688 C 28.925781 -12.054688 31.636719 -14.765625 31.636719 -18.078125 Z M 25.613281 -24.105469 L 25.613281 -18.078125 L 7.53125 -18.078125 L 7.53125 -24.105469 Z M 25.613281 -24.105469 "/></g></g></g><g fill="#ffffff" fill-opacity="1"><g transform="translate(298.51334, 161.373388)"><g><path d="M 25.613281 0 C 28.925781 0 31.636719 -2.710938 31.636719 -6.027344 L 31.636719 -24.105469 C 31.636719 -27.421875 28.925781 -30.132812 25.613281 -30.132812 L 1.507812 -30.132812 L 1.507812 0 Z M 7.53125 -24.105469 L 25.613281 -24.105469 L 25.613281 -6.027344 L 7.53125 -6.027344 Z M 7.53125 -24.105469 "/></g></g></g><g clip-path="url(#d4e59b6da3)"><g clip-path="url(#9817b44116)"><path fill="#f1078c" d="M 90.550781 187.703125 L 41.992188 187.703125 L 41.992188 106.515625 L 90.550781 106.515625 Z M 90.550781 187.703125 " fill-opacity="1" fill-rule="nonzero"/></g></g><g clip-path="url(#452d002a10)"><g clip-path="url(#d76d53c5b6)"><path stroke-linecap="butt" transform="matrix(-0.75, 0, 0, -0.75, 90.550779, 187.697611)" fill="none" stroke-linejoin="miter" d="M 32.369791 -0.00214383 L 64.734377 -0.00214383 L 32.369791 108.206197 L -0.00000252822 108.206197 Z M 32.369791 -0.00214383 " stroke="#ffffff" stroke-width="8" stroke-opacity="1" stroke-miterlimit="4"/></g></g><g fill="#ff00ff" fill-opacity="1"><g transform="translate(37.528548, 244.384642)"><g><path d="M 31.636719 -30.132812 L 24.40625 -30.132812 C 23.578125 -30.132812 22.824219 -29.832031 22.222656 -29.226562 L 11.074219 -18.078125 L 7.53125 -18.078125 L 7.53125 -30.132812 L 1.507812 -30.132812 L 1.507812 0 L 7.53125 0 L 7.53125 -12.054688 L 11.074219 -12.054688 L 22.222656 -0.902344 C 22.824219 -0.300781 23.578125 0 24.40625 0 L 31.636719 0 L 31.636719 -6.027344 L 25.613281 -6.027344 L 16.574219 -15.066406 L 25.613281 -24.105469 L 31.636719 -24.105469 Z M 31.636719 -30.132812 "/></g></g></g><g fill="#ff00ff" fill-opacity="1"><g transform="translate(71.275691, 244.384642)"><g><path d="M 31.636719 0 L 31.636719 -6.027344 L 19.585938 -6.027344 L 19.585938 -24.105469 L 31.636719 -24.105469 L 31.636719 -30.132812 L 1.507812 -30.132812 L 1.507812 -24.105469 L 13.558594 -24.105469 L 13.558594 -6.027344 L 1.507812 -6.027344 L 1.507812 0 Z M 31.636719 0 "/></g></g></g><g fill="#ff00ff" fill-opacity="1"><g transform="translate(105.022833, 244.384642)"><g><path d="M 31.636719 -30.132812 L 1.507812 -30.132812 L 1.507812 -24.105469 L 13.558594 -24.105469 L 13.558594 0 L 19.585938 0 L 19.585938 -24.105469 L 31.636719 -24.105469 Z M 31.636719 -30.132812 "/></g></g></g><g fill="#ff00ff" fill-opacity="1"><g transform="translate(138.769982, 244.384642)"><g><path d="M 31.636719 -30.132812 L 1.507812 -30.132812 L 1.507812 -24.105469 L 13.558594 -24.105469 L 13.558594 0 L 19.585938 0 L 19.585938 -24.105469 L 31.636719 -24.105469 Z M 31.636719 -30.132812 "/></g></g></g><g fill="#ff00ff" fill-opacity="1"><g transform="translate(172.517118, 244.384642)"><g><path d="M 31.636719 -30.132812 L 7.53125 -30.132812 C 4.21875 -30.132812 1.507812 -27.421875 1.507812 -24.105469 L 1.507812 -6.027344 C 1.507812 -2.710938 4.21875 0 7.53125 0 L 31.636719 0 L 31.636719 -6.027344 L 7.53125 -6.027344 L 7.53125 -12.054688 L 31.636719 -12.054688 L 31.636719 -18.078125 L 7.53125 -18.078125 L 7.53125 -24.105469 L 31.636719 -24.105469 Z M 31.636719 -30.132812 "/></g></g></g><g fill="#ff00ff" fill-opacity="1"><g transform="translate(206.264255, 244.384642)"><g><path d="M 7.53125 0 L 7.53125 -19.847656 L 26.476562 -0.902344 C 27.042969 -0.339844 27.796875 0 28.625 0 C 30.28125 0 31.636719 -1.355469 31.636719 -3.011719 L 31.636719 -30.132812 L 25.613281 -30.132812 L 25.613281 -10.28125 L 6.667969 -29.226562 C 6.101562 -29.792969 5.347656 -30.132812 4.519531 -30.132812 C 2.863281 -30.132812 1.507812 -28.777344 1.507812 -27.117188 L 1.507812 0 Z M 7.53125 0 "/></g></g></g><g fill="#ff00ff" fill-opacity="1"><g transform="translate(240.011391, 244.384642)"><g><path d="M 31.636719 -30.132812 L 7.53125 -30.132812 C 4.21875 -30.132812 1.507812 -27.421875 1.507812 -24.105469 L 1.507812 -18.078125 C 1.507812 -14.765625 4.21875 -12.054688 7.53125 -12.054688 L 25.613281 -12.054688 L 25.613281 -6.027344 L 1.507812 -6.027344 L 1.507812 0 L 25.613281 0 C 28.925781 0 31.636719 -2.710938 31.636719 -6.027344 L 31.636719 -12.054688 C 31.636719 -15.367188 28.925781 -18.078125 25.613281 -18.078125 L 7.53125 -18.078125 L 7.53125 -24.105469 L 31.636719 -24.105469 Z M 31.636719 -30.132812 "/></g></g></g><g fill="#00ffff" fill-opacity="1"><g transform="translate(40.858134, 247.714232)"><g><path d="M 31.636719 -30.132812 L 24.40625 -30.132812 C 23.578125 -30.132812 22.824219 -29.832031 22.222656 -29.226562 L 11.074219 -18.078125 L 7.53125 -18.078125 L 7.53125 -30.132812 L 1.507812 -30.132812 L 1.507812 0 L 7.53125 0 L 7.53125 -12.054688 L 11.074219 -12.054688 L 22.222656 -0.902344 C 22.824219 -0.300781 23.578125 0 24.40625 0 L 31.636719 0 L 31.636719 -6.027344 L 25.613281 -6.027344 L 16.574219 -15.066406 L 25.613281 -24.105469 L 31.636719 -24.105469 Z M 31.636719 -30.132812 "/></g></g></g><g fill="#00ffff" fill-opacity="1"><g transform="translate(74.605277, 247.714232)"><g><path d="M 31.636719 0 L 31.636719 -6.027344 L 19.585938 -6.027344 L 19.585938 -24.105469 L 31.636719 -24.105469 L 31.636719 -30.132812 L 1.507812 -30.132812 L 1.507812 -24.105469 L 13.558594 -24.105469 L 13.558594 -6.027344 L 1.507812 -6.027344 L 1.507812 0 Z M 31.636719 0 "/></g></g></g><g fill="#00ffff" fill-opacity="1"><g transform="translate(108.352419, 247.714232)"><g><path d="M 31.636719 -30.132812 L 1.507812 -30.132812 L 1.507812 -24.105469 L 13.558594 -24.105469 L 13.558594 0 L 19.585938 0 L 19.585938 -24.105469 L 31.636719 -24.105469 Z M 31.636719 -30.132812 "/></g></g></g><g fill="#00ffff" fill-opacity="1"><g transform="translate(142.099568, 247.714232)"><g><path d="M 31.636719 -30.132812 L 1.507812 -30.132812 L 1.507812 -24.105469 L 13.558594 -24.105469 L 13.558594 0 L 19.585938 0 L 19.585938 -24.105469 L 31.636719 -24.105469 Z M 31.636719 -30.132812 "/></g></g></g><g fill="#00ffff" fill-opacity="1"><g transform="translate(175.846704, 247.714232)"><g><path d="M 31.636719 -30.132812 L 7.53125 -30.132812 C 4.21875 -30.132812 1.507812 -27.421875 1.507812 -24.105469 L 1.507812 -6.027344 C 1.507812 -2.710938 4.21875 0 7.53125 0 L 31.636719 0 L 31.636719 -6.027344 L 7.53125 -6.027344 L 7.53125 -12.054688 L 31.636719 -12.054688 L 31.636719 -18.078125 L 7.53125 -18.078125 L 7.53125 -24.105469 L 31.636719 -24.105469 Z M 31.636719 -30.132812 "/></g></g></g><g fill="#00ffff" fill-opacity="1"><g transform="translate(209.593841, 247.714232)"><g><path d="M 7.53125 0 L 7.53125 -19.847656 L 26.476562 -0.902344 C 27.042969 -0.339844 27.796875 0 28.625 0 C 30.28125 0 31.636719 -1.355469 31.636719 -3.011719 L 31.636719 -30.132812 L 25.613281 -30.132812 L 25.613281 -10.28125 L 6.667969 -29.226562 C 6.101562 -29.792969 5.347656 -30.132812 4.519531 -30.132812 C 2.863281 -30.132812 1.507812 -28.777344 1.507812 -27.117188 L 1.507812 0 Z M 7.53125 0 "/></g></g></g><g fill="#00ffff" fill-opacity="1"><g transform="translate(243.340977, 247.714232)"><g><path d="M 31.636719 -30.132812 L 7.53125 -30.132812 C 4.21875 -30.132812 1.507812 -27.421875 1.507812 -24.105469 L 1.507812 -18.078125 C 1.507812 -14.765625 4.21875 -12.054688 7.53125 -12.054688 L 25.613281 -12.054688 L 25.613281 -6.027344 L 1.507812 -6.027344 L 1.507812 0 L 25.613281 0 C 28.925781 0 31.636719 -2.710938 31.636719 -6.027344 L 31.636719 -12.054688 C 31.636719 -15.367188 28.925781 -18.078125 25.613281 -18.078125 L 7.53125 -18.078125 L 7.53125 -24.105469 L 31.636719 -24.105469 Z M 31.636719 -30.132812 "/></g></g></g><g fill="#ffffff" fill-opacity="1"><g transform="translate(39.193341, 246.049436)"><g><path d="M 31.636719 -30.132812 L 24.40625 -30.132812 C 23.578125 -30.132812 22.824219 -29.832031 22.222656 -29.226562 L 11.074219 -18.078125 L 7.53125 -18.078125 L 7.53125 -30.132812 L 1.507812 -30.132812 L 1.507812 0 L 7.53125 0 L 7.53125 -12.054688 L 11.074219 -12.054688 L 22.222656 -0.902344 C 22.824219 -0.300781 23.578125 0 24.40625 0 L 31.636719 0 L 31.636719 -6.027344 L 25.613281 -6.027344 L 16.574219 -15.066406 L 25.613281 -24.105469 L 31.636719 -24.105469 Z M 31.636719 -30.132812 "/></g></g></g><g fill="#ffffff" fill-opacity="1"><g transform="translate(72.940484, 246.049436)"><g><path d="M 31.636719 0 L 31.636719 -6.027344 L 19.585938 -6.027344 L 19.585938 -24.105469 L 31.636719 -24.105469 L 31.636719 -30.132812 L 1.507812 -30.132812 L 1.507812 -24.105469 L 13.558594 -24.105469 L 13.558594 -6.027344 L 1.507812 -6.027344 L 1.507812 0 Z M 31.636719 0 "/></g></g></g><g fill="#ffffff" fill-opacity="1"><g transform="translate(106.687626, 246.049436)"><g><path d="M 31.636719 -30.132812 L 1.507812 -30.132812 L 1.507812 -24.105469 L 13.558594 -24.105469 L 13.558594 0 L 19.585938 0 L 19.585938 -24.105469 L 31.636719 -24.105469 Z M 31.636719 -30.132812 "/></g></g></g><g fill="#ffffff" fill-opacity="1"><g transform="translate(140.434775, 246.049436)"><g><path d="M 31.636719 -30.132812 L 1.507812 -30.132812 L 1.507812 -24.105469 L 13.558594 -24.105469 L 13.558594 0 L 19.585938 0 L 19.585938 -24.105469 L 31.636719 -24.105469 Z M 31.636719 -30.132812 "/></g></g></g><g fill="#ffffff" fill-opacity="1"><g transform="translate(174.181911, 246.049436)"><g><path d="M 31.636719 -30.132812 L 7.53125 -30.132812 C 4.21875 -30.132812 1.507812 -27.421875 1.507812 -24.105469 L 1.507812 -6.027344 C 1.507812 -2.710938 4.21875 0 7.53125 0 L 31.636719 0 L 31.636719 -6.027344 L 7.53125 -6.027344 L 7.53125 -12.054688 L 31.636719 -12.054688 L 31.636719 -18.078125 L 7.53125 -18.078125 L 7.53125 -24.105469 L 31.636719 -24.105469 Z M 31.636719 -30.132812 "/></g></g></g><g fill="#ffffff" fill-opacity="1"><g transform="translate(207.929048, 246.049436)"><g><path d="M 7.53125 0 L 7.53125 -19.847656 L 26.476562 -0.902344 C 27.042969 -0.339844 27.796875 0 28.625 0 C 30.28125 0 31.636719 -1.355469 31.636719 -3.011719 L 31.636719 -30.132812 L 25.613281 -30.132812 L 25.613281 -10.28125 L 6.667969 -29.226562 C 6.101562 -29.792969 5.347656 -30.132812 4.519531 -30.132812 C 2.863281 -30.132812 1.507812 -28.777344 1.507812 -27.117188 L 1.507812 0 Z M 7.53125 0 "/></g></g></g><g fill="#ffffff" fill-opacity="1"><g transform="translate(241.676184, 246.049436)"><g><path d="M 31.636719 -30.132812 L 7.53125 -30.132812 C 4.21875 -30.132812 1.507812 -27.421875 1.507812 -24.105469 L 1.507812 -18.078125 C 1.507812 -14.765625 4.21875 -12.054688 7.53125 -12.054688 L 25.613281 -12.054688 L 25.613281 -6.027344 L 1.507812 -6.027344 L 1.507812 0 L 25.613281 0 C 28.925781 0 31.636719 -2.710938 31.636719 -6.027344 L 31.636719 -12.054688 C 31.636719 -15.367188 28.925781 -18.078125 25.613281 -18.078125 L 7.53125 -18.078125 L 7.53125 -24.105469 L 31.636719 -24.105469 Z M 31.636719 -30.132812 "/></g></g></g></svg>