<svg xmlns="http://www.w3.org/2000/svg" xmlns:xlink="http://www.w3.org/1999/xlink" width="500" zoomAndPan="magnify" viewBox="0 0 375 374.999991" height="500" preserveAspectRatio="xMidYMid meet" version="1.0"><defs><g/><clipPath id="51df671b5b"><path d="M 0 1.828125 L 371.34375 1.828125 L 371.34375 373.171875 L 0 373.171875 Z M 0 1.828125 " clip-rule="nonzero"/></clipPath><clipPath id="c261a257f2"><path d="M 56.019531 205.109375 L 332.738281 205.109375 L 332.738281 328.523438 L 56.019531 328.523438 Z M 56.019531 205.109375 " clip-rule="nonzero"/></clipPath><clipPath id="01c2cb021c"><path d="M 194.347656 328.523438 L 332.675781 205.109375 L 56.019531 205.109375 Z M 194.347656 328.523438 " clip-rule="nonzero"/></clipPath><clipPath id="213b2038a9"><path d="M 56.019531 42.40625 L 332.605469 42.40625 L 332.605469 205.109375 L 56.019531 205.109375 Z M 56.019531 42.40625 " clip-rule="nonzero"/></clipPath><clipPath id="e9e986c0b2"><path d="M 58.6875 202.601562 L 329.320312 202.601562 L 329.320312 207.183594 L 58.6875 207.183594 Z M 58.6875 202.601562 " clip-rule="nonzero"/></clipPath><clipPath id="201cfb1e19"><path d="M 57.171875 201.25 L 331.519531 201.25 L 331.519531 205.265625 L 57.171875 205.265625 Z M 57.171875 201.25 " clip-rule="nonzero"/></clipPath><clipPath id="66631457bf"><path d="M 59.535156 204.792969 L 329.21875 204.792969 L 329.21875 325.066406 L 59.535156 325.066406 Z M 59.535156 204.792969 " clip-rule="nonzero"/></clipPath><clipPath id="64a1a68b6c"><path d="M 194.347656 325.066406 L 329.160156 204.792969 L 59.535156 204.792969 Z M 194.347656 325.066406 " clip-rule="nonzero"/></clipPath><clipPath id="bbc96122dd"><path d="M 59.535156 46.222656 L 329 46.222656 L 329 204.792969 L 59.535156 204.792969 Z M 59.535156 46.222656 " clip-rule="nonzero"/></clipPath><clipPath id="5f07b7f7b2"><path d="M 62.136719 202.34375 L 325.886719 202.34375 L 325.886719 206.8125 L 62.136719 206.8125 Z M 62.136719 202.34375 " clip-rule="nonzero"/></clipPath><clipPath id="d1f4c61313"><path d="M 60.660156 201.027344 L 328.03125 201.027344 L 328.03125 204.941406 L 60.660156 204.941406 Z M 60.660156 201.027344 " clip-rule="nonzero"/></clipPath><clipPath id="97c2188a56"><path d="M 68.285156 199.664062 L 318.8125 199.664062 L 318.8125 311.398438 L 68.285156 311.398438 Z M 68.285156 199.664062 " clip-rule="nonzero"/></clipPath><clipPath id="a7feee805a"><path d="M 193.523438 311.398438 L 318.757812 199.664062 L 68.285156 199.664062 Z M 193.523438 311.398438 " clip-rule="nonzero"/></clipPath><clipPath id="5fc6f949d9"><path d="M 68.285156 52.359375 L 318.695312 52.359375 L 318.695312 199.664062 L 68.285156 199.664062 Z M 68.285156 52.359375 " clip-rule="nonzero"/></clipPath><clipPath id="9325a75fc3"><path d="M 70.699219 197.390625 L 315.71875 197.390625 L 315.71875 201.542969 L 70.699219 201.542969 Z M 70.699219 197.390625 " clip-rule="nonzero"/></clipPath><clipPath id="86331954e9"><path d="M 69.332031 196.167969 L 317.714844 196.167969 L 317.714844 199.804688 L 69.332031 199.804688 Z M 69.332031 196.167969 " clip-rule="nonzero"/></clipPath><clipPath id="60061626ae"><path d="M 142 56 L 304.332031 56 L 304.332031 138 L 142 138 Z M 142 56 " clip-rule="nonzero"/></clipPath></defs><rect x="-37.5" width="450" fill="#ffffff" y="-37.499999" height="449.999989" fill-opacity="1"/><rect x="-37.5" width="450" fill="#0c5327" y="-37.499999" height="449.999989" fill-opacity="1"/><g clip-path="url(#51df671b5b)"><path fill="#0c5427" d="M 0 1.828125 L 371.34375 1.828125 L 371.34375 373.171875 L 0 373.171875 Z M 0 1.828125 " fill-opacity="1" fill-rule="nonzero"/></g><g clip-path="url(#c261a257f2)"><g clip-path="url(#01c2cb021c)"><path fill="#000000" d="M 56.019531 205.109375 L 332.738281 205.109375 L 332.738281 328.523438 L 56.019531 328.523438 Z M 56.019531 205.109375 " fill-opacity="1" fill-rule="nonzero"/></g></g><g clip-path="url(#213b2038a9)"><path fill="#000000" d="M 56.019531 42.40625 L 332.488281 42.40625 L 332.488281 205.109375 L 56.019531 205.109375 Z M 56.019531 42.40625 " fill-opacity="1" fill-rule="nonzero"/></g><g clip-path="url(#e9e986c0b2)"><path fill="#000000" d="M 58.6875 202.601562 L 329.3125 202.601562 L 329.3125 207.183594 L 58.6875 207.183594 Z M 58.6875 202.601562 " fill-opacity="1" fill-rule="nonzero"/></g><g clip-path="url(#201cfb1e19)"><path fill="#000000" d="M 57.171875 201.25 L 331.515625 201.25 L 331.515625 205.265625 L 57.171875 205.265625 Z M 57.171875 201.25 " fill-opacity="1" fill-rule="nonzero"/></g><g clip-path="url(#66631457bf)"><g clip-path="url(#64a1a68b6c)"><path fill="#ffffff" d="M 59.535156 204.792969 L 329.21875 204.792969 L 329.21875 325.066406 L 59.535156 325.066406 Z M 59.535156 204.792969 " fill-opacity="1" fill-rule="nonzero"/></g></g><g clip-path="url(#bbc96122dd)"><path fill="#ffffff" d="M 59.535156 46.222656 L 328.976562 46.222656 L 328.976562 204.792969 L 59.535156 204.792969 Z M 59.535156 46.222656 " fill-opacity="1" fill-rule="nonzero"/></g><g clip-path="url(#5f07b7f7b2)"><path fill="#ffffff" d="M 62.136719 202.34375 L 325.878906 202.34375 L 325.878906 206.8125 L 62.136719 206.8125 Z M 62.136719 202.34375 " fill-opacity="1" fill-rule="nonzero"/></g><g clip-path="url(#d1f4c61313)"><path fill="#ffffff" d="M 60.660156 201.027344 L 328.03125 201.027344 L 328.03125 204.941406 L 60.660156 204.941406 Z M 60.660156 201.027344 " fill-opacity="1" fill-rule="nonzero"/></g><g clip-path="url(#97c2188a56)"><g clip-path="url(#a7feee805a)"><path fill="#d5a324" d="M 68.285156 199.664062 L 318.8125 199.664062 L 318.8125 311.398438 L 68.285156 311.398438 Z M 68.285156 199.664062 " fill-opacity="1" fill-rule="nonzero"/></g></g><g clip-path="url(#5fc6f949d9)"><path fill="#d5a324" d="M 68.285156 52.359375 L 318.589844 52.359375 L 318.589844 199.664062 L 68.285156 199.664062 Z M 68.285156 52.359375 " fill-opacity="1" fill-rule="nonzero"/></g><g clip-path="url(#9325a75fc3)"><path fill="#d5a324" d="M 70.699219 197.390625 L 315.710938 197.390625 L 315.710938 201.542969 L 70.699219 201.542969 Z M 70.699219 197.390625 " fill-opacity="1" fill-rule="nonzero"/></g><g clip-path="url(#86331954e9)"><path fill="#d5a324" d="M 69.332031 196.167969 L 317.710938 196.167969 L 317.710938 199.804688 L 69.332031 199.804688 Z M 69.332031 196.167969 " fill-opacity="1" fill-rule="nonzero"/></g><path fill="#000000" d="M 103.558594 99.140625 C 104.289062 95.964844 105.015625 92.835938 105.746094 89.707031 C 107.589844 89.0625 109.433594 88.417969 111.277344 87.777344 C 109.476562 87.089844 107.632812 86.449219 105.789062 85.804688 C 105.015625 82.71875 104.332031 79.671875 103.558594 76.585938 C 102.613281 79.628906 101.972656 82.71875 101.15625 85.804688 C 99.398438 86.449219 97.640625 87.089844 95.882812 87.777344 C 97.640625 88.417969 99.441406 89.019531 101.199219 89.621094 C 101.972656 92.835938 102.65625 96.007812 103.558594 99.140625 Z M 103.558594 99.140625 " fill-opacity="1" fill-rule="nonzero"/><path fill="#000000" d="M 96.097656 108.746094 C 95.496094 111.1875 94.941406 113.632812 94.382812 116.078125 C 92.925781 116.546875 91.464844 117.019531 90.007812 117.449219 C 91.464844 118.007812 92.925781 118.5625 94.382812 119.164062 C 94.941406 121.566406 95.453125 123.921875 96.054688 126.324219 C 96.785156 123.964844 97.382812 121.609375 97.941406 119.207031 C 99.3125 118.605469 100.6875 118.050781 102.015625 117.449219 C 100.644531 116.976562 99.3125 116.503906 97.984375 116.078125 C 97.425781 113.589844 96.828125 111.144531 96.097656 108.746094 Z M 96.097656 108.746094 " fill-opacity="1" fill-rule="nonzero"/><path fill="#000000" d="M 126.414062 115.347656 C 127.699219 110.246094 128.769531 105.140625 130.015625 100.039062 C 132.929688 99.097656 135.847656 98.066406 138.71875 96.953125 C 135.847656 95.964844 132.972656 95.023438 130.058594 94.078125 C 128.8125 89.148438 127.785156 84.175781 126.5 79.242188 C 124.910156 84.089844 124.011719 89.105469 122.8125 94.035156 C 119.980469 95.023438 117.109375 95.964844 114.320312 97.082031 C 117.152344 98.152344 119.980469 99.140625 122.8125 100.210938 C 124.054688 105.226562 125.125 110.332031 126.414062 115.347656 Z M 126.414062 115.347656 " fill-opacity="1" fill-rule="nonzero"/><path fill="#000000" d="M 257.664062 134.601562 C 237.167969 141.375 215.429688 145.191406 193.816406 143.476562 C 190.902344 143.390625 188.03125 143.390625 185.113281 143.175781 C 189.273438 142.832031 193.476562 142.917969 197.632812 143.089844 C 219.589844 143.003906 240.898438 136.402344 260.964844 127.867188 C 256.335938 125.9375 251.746094 123.921875 247.03125 122.25 C 240.640625 124.351562 234.550781 127.351562 227.992188 129.113281 C 211.613281 133.957031 194.375 136.488281 177.222656 136.273438 L 176.796875 136.273438 C 154.371094 136.058594 139.105469 132.414062 128.769531 127.652344 L 128.386719 127.480469 C 121.824219 124.394531 117.28125 120.878906 114.105469 117.492188 C 111.019531 114.402344 108.660156 110.757812 107.503906 106.472656 C 107.246094 105.527344 107.03125 104.585938 106.902344 103.597656 C 106.558594 107.113281 106.304688 110.757812 107.289062 114.191406 C 109.089844 121.394531 114.234375 127.140625 119.9375 131.640625 C 130.359375 139.660156 143.007812 144.160156 155.613281 147.507812 C 173.363281 151.878906 191.71875 153.507812 209.941406 153.125 C 235.753906 152.308594 261.78125 148.019531 285.621094 137.902344 C 279.789062 135.628906 274.128906 132.886719 268.210938 131 C 264.652344 132.027344 261.222656 133.527344 257.664062 134.601562 Z M 257.664062 134.601562 " fill-opacity="1" fill-rule="nonzero"/><g clip-path="url(#60061626ae)"><path fill="#000000" d="M 300.371094 126.410156 C 284.59375 121.992188 268.898438 117.148438 253.078125 112.6875 C 249.773438 111.746094 246.429688 110.84375 243.214844 109.6875 C 242.527344 108.703125 241.371094 108.144531 240.167969 108.230469 C 239.054688 108.273438 237.941406 108.230469 236.824219 108.058594 C 235.96875 107.929688 235.324219 107.242188 235.238281 106.386719 L 235.238281 106.34375 C 235.109375 105.226562 234.339844 104.328125 233.308594 103.984375 C 231.164062 103.339844 228.976562 102.742188 226.75 102.226562 C 223.363281 97.765625 217.230469 97.425781 213.5 93.4375 C 211.269531 91.078125 207.710938 91.335938 205.222656 89.449219 C 203.550781 88.375 201.964844 86.960938 200.292969 85.804688 C 198.578125 84.644531 196.476562 84.21875 194.460938 84.6875 C 192.660156 85.117188 190.773438 85.289062 188.929688 84.902344 C 192.015625 84.132812 196.777344 83.101562 196.519531 78.945312 C 197.121094 75.726562 193.988281 74.140625 191.632812 72.941406 L 191.546875 71.824219 C 191.289062 67.964844 189.832031 64.234375 187.214844 61.40625 C 185.585938 59.648438 183.699219 58.234375 181.382812 57.460938 C 173.878906 54.929688 163.246094 57.761719 161.402344 66.378906 C 161.230469 67.410156 160.628906 67.921875 159.816406 68.179688 C 159.644531 68.222656 159.515625 68.265625 159.34375 68.308594 C 148.496094 71.609375 146.222656 78.515625 145.921875 79.800781 C 145.878906 79.886719 145.878906 79.972656 145.835938 80.015625 C 144.679688 84.261719 144.894531 88.71875 144.636719 93.09375 C 144.378906 99.441406 143.863281 105.785156 143.691406 112.175781 C 143.480469 116.332031 143.007812 120.492188 142.707031 124.652344 C 142.621094 125.851562 142.535156 127.054688 142.492188 128.253906 C 149.867188 129.882812 157.285156 131.683594 164.875 131.855469 C 166.289062 132.070312 167.703125 132.242188 169.164062 132.371094 C 175.082031 132.886719 181.039062 132.800781 186.914062 132.542969 C 185.714844 129.410156 182.539062 123.964844 186.269531 121.90625 L 186.144531 122.378906 C 189.832031 125.210938 194.933594 127.351562 199.5625 125.722656 C 204.539062 122.808594 210.582031 122.378906 215.386719 119.078125 C 218.085938 117.277344 221.21875 116.375 223.960938 114.789062 C 227.175781 114.320312 230.4375 114.105469 233.566406 113.03125 C 237.339844 111.488281 240.855469 114.359375 244.371094 115.476562 C 260.921875 122.464844 277.601562 129.113281 294.195312 135.972656 C 295.910156 136.65625 297.628906 137.34375 299.472656 137.429688 C 302.257812 135.757812 304.316406 132.628906 304.402344 129.367188 C 304.402344 127.140625 301.914062 127.097656 300.371094 126.410156 Z M 214.613281 109.945312 C 209.640625 110.800781 204.539062 112.515625 199.433594 111.488281 C 196.648438 109.988281 194.332031 107.757812 191.589844 106.128906 C 190.773438 105.65625 190.300781 104.800781 190.300781 103.855469 C 190.300781 103.382812 190.300781 102.914062 190.34375 102.441406 C 190.386719 100.726562 189.703125 99.097656 188.5 97.851562 C 186.484375 95.792969 184.511719 93.738281 182.5 91.636719 C 182.5 91.636719 182.5 91.636719 182.539062 91.636719 C 184 91.679688 185.414062 91.980469 186.785156 92.492188 C 192.230469 94.59375 197.890625 96.179688 203.59375 97.425781 C 205.523438 99.140625 207.667969 100.554688 209.941406 101.796875 C 212.683594 104.585938 216.070312 106.601562 219.632812 108.1875 C 217.957031 108.871094 216.328125 109.472656 214.613281 109.945312 Z M 214.613281 109.945312 " fill-opacity="1" fill-rule="nonzero"/></g><path fill="#000000" d="M 258.09375 211.910156 C 254.75 210.066406 250.117188 210.195312 248.1875 206.378906 C 248.617188 205.863281 249.515625 204.792969 249.945312 204.277344 C 247.714844 202.519531 245.144531 201.320312 242.484375 200.332031 C 241.15625 200.417969 239.570312 201.191406 238.582031 199.902344 C 235.925781 198.015625 236.097656 194.371094 233.996094 192.144531 C 229.234375 186.699219 224.734375 180.996094 220.273438 175.292969 C 215.515625 168.859375 211.097656 161.957031 205.222656 156.511719 C 194.632812 156.296875 184.042969 155.738281 173.492188 154.539062 C 165.175781 153.167969 156.941406 151.324219 148.710938 149.394531 C 149.867188 152.824219 151.753906 155.867188 154.070312 158.613281 C 157.542969 164.871094 155.226562 172.203125 155.871094 178.980469 C 156.300781 181.292969 154.882812 183.222656 153.984375 185.195312 C 149.136719 184.980469 144.078125 185.066406 139.492188 186.867188 L 139.40625 187.339844 L 138.71875 187.167969 C 135.890625 187.683594 133.617188 189.65625 130.871094 190.34375 C 128.042969 191.113281 125.125 190.683594 122.296875 190.386719 C 121.824219 190.640625 120.839844 191.199219 120.367188 191.5 C 115.949219 190.34375 111.492188 189.441406 107.074219 188.242188 C 106.644531 188.414062 106.304688 188.542969 105.875 188.710938 C 103.171875 192.914062 105.015625 198.144531 104.972656 202.777344 C 104.203125 207.621094 102.53125 212.640625 103.945312 217.570312 C 104.929688 221.386719 109.5625 224.042969 113.25 222.242188 C 113.933594 218.941406 113.464844 215.425781 114.664062 212.167969 C 115.09375 212.9375 116.035156 214.441406 116.464844 215.167969 C 119.082031 211.78125 121.140625 207.921875 121.695312 203.589844 C 123.066406 203.335938 122.984375 203.378906 124.355469 203.121094 C 124.871094 204.148438 125.382812 205.179688 125.898438 206.207031 C 137.175781 203.804688 148.796875 203.507812 160.117188 201.449219 C 164.015625 201.578125 168.992188 200.933594 170.878906 196.945312 C 174.050781 190.171875 177.222656 183.394531 179.839844 176.363281 L 179.753906 176.277344 C 180.570312 173.792969 181.167969 171.261719 181.726562 168.6875 C 186.101562 172.589844 191.460938 175.25 197.207031 176.40625 C 199.433594 179.835938 201.964844 183.011719 204.796875 185.96875 C 211.785156 193.300781 219.246094 200.246094 227.390625 206.378906 C 227.09375 209.894531 226.320312 213.324219 225.675781 216.796875 C 235.324219 217.570312 244.972656 217.398438 254.621094 217.785156 C 256.207031 217.699219 258.695312 218.042969 259.121094 216.027344 C 259.464844 214.613281 259.550781 212.726562 258.09375 211.910156 Z M 258.09375 211.910156 " fill-opacity="1" fill-rule="nonzero"/><path fill="#000000" d="M 80.253906 227.746094 L 304.367188 227.746094 C 307.90625 227.746094 311.300781 229.152344 313.800781 231.65625 C 316.304688 234.15625 317.710938 237.550781 317.710938 241.089844 L 317.710938 267.78125 C 317.710938 271.320312 316.304688 274.714844 313.800781 277.21875 C 311.300781 279.722656 307.90625 281.128906 304.367188 281.128906 L 80.253906 281.128906 C 72.882812 281.128906 66.910156 275.152344 66.910156 267.78125 L 66.910156 241.089844 C 66.910156 233.722656 72.882812 227.746094 80.253906 227.746094 Z M 80.253906 227.746094 " fill-opacity="1" fill-rule="nonzero"/><g fill="#ffffff" fill-opacity="1"><g transform="translate(80.053112, 265.547135)"><g><path d="M 14.09375 -7.53125 C 13.113281 -7.53125 12.351562 -7.757812 11.8125 -8.21875 C 11.28125 -8.675781 11.015625 -9.320312 11.015625 -10.15625 C 11.015625 -11.90625 12.140625 -12.78125 14.390625 -12.78125 L 16.890625 -12.75 C 17.523438 -12.726562 18.050781 -12.703125 18.46875 -12.671875 C 18.882812 -12.640625 19.238281 -12.578125 19.53125 -12.484375 C 19.832031 -12.398438 20.078125 -12.289062 20.265625 -12.15625 C 20.460938 -12.019531 20.648438 -11.84375 20.828125 -11.625 C 21.140625 -11.257812 21.367188 -10.832031 21.515625 -10.34375 C 21.671875 -9.863281 21.75 -9.296875 21.75 -8.640625 L 21.71875 -6.578125 C 21.695312 -6.109375 21.679688 -5.75 21.671875 -5.5 C 21.660156 -5.25 21.648438 -5.046875 21.640625 -4.890625 C 21.628906 -4.742188 21.613281 -4.617188 21.59375 -4.515625 C 21.570312 -4.421875 21.535156 -4.304688 21.484375 -4.171875 C 21.316406 -3.597656 20.914062 -3.003906 20.28125 -2.390625 C 19.644531 -1.785156 18.84375 -1.226562 17.875 -0.71875 C 16.226562 0.132812 14.5 0.5625 12.6875 0.5625 C 11.082031 0.5625 9.570312 0.257812 8.15625 -0.34375 C 6.75 -0.945312 5.519531 -1.769531 4.46875 -2.8125 C 3.414062 -3.851562 2.585938 -5.070312 1.984375 -6.46875 C 1.378906 -7.875 1.078125 -9.375 1.078125 -10.96875 C 1.078125 -12.550781 1.378906 -14.039062 1.984375 -15.4375 C 2.585938 -16.84375 3.414062 -18.0625 4.46875 -19.09375 C 5.519531 -20.125 6.742188 -20.9375 8.140625 -21.53125 C 9.546875 -22.132812 11.050781 -22.4375 12.65625 -22.4375 C 13.726562 -22.4375 14.789062 -22.289062 15.84375 -22 C 16.894531 -21.707031 17.878906 -21.273438 18.796875 -20.703125 C 20.304688 -19.734375 21.0625 -18.601562 21.0625 -17.3125 C 21.0625 -16.8125 20.960938 -16.34375 20.765625 -15.90625 C 20.566406 -15.46875 20.300781 -15.082031 19.96875 -14.75 C 19.644531 -14.425781 19.257812 -14.171875 18.8125 -13.984375 C 18.363281 -13.796875 17.882812 -13.703125 17.375 -13.703125 C 17.207031 -13.703125 17.035156 -13.71875 16.859375 -13.75 C 16.679688 -13.78125 16.535156 -13.816406 16.421875 -13.859375 L 14.8125 -14.71875 C 14.425781 -14.894531 14.039062 -15.035156 13.65625 -15.140625 C 13.269531 -15.253906 12.890625 -15.3125 12.515625 -15.3125 C 11.953125 -15.3125 11.414062 -15.195312 10.90625 -14.96875 C 10.40625 -14.738281 9.96875 -14.425781 9.59375 -14.03125 C 9.21875 -13.632812 8.914062 -13.171875 8.6875 -12.640625 C 8.457031 -12.117188 8.34375 -11.578125 8.34375 -11.015625 C 8.34375 -10.421875 8.457031 -9.859375 8.6875 -9.328125 C 8.914062 -8.804688 9.222656 -8.351562 9.609375 -7.96875 C 9.992188 -7.582031 10.445312 -7.273438 10.96875 -7.046875 C 11.5 -6.816406 12.0625 -6.703125 12.65625 -6.703125 C 13.113281 -6.703125 13.507812 -6.757812 13.84375 -6.875 C 14.1875 -7 14.617188 -7.21875 15.140625 -7.53125 Z M 14.09375 -7.53125 "/></g></g></g><g fill="#ffffff" fill-opacity="1"><g transform="translate(102.852624, 265.547135)"><g><path d="M 6.671875 0 C 5.835938 0 5.242188 -0.0195312 4.890625 -0.0625 C 4.546875 -0.101562 4.21875 -0.179688 3.90625 -0.296875 C 2.75 -0.773438 2.0625 -1.648438 1.84375 -2.921875 C 1.820312 -3.035156 1.796875 -3.140625 1.765625 -3.234375 C 1.742188 -3.335938 1.726562 -3.460938 1.71875 -3.609375 C 1.707031 -3.765625 1.703125 -3.957031 1.703125 -4.1875 C 1.703125 -4.414062 1.703125 -4.71875 1.703125 -5.09375 L 1.703125 -16.984375 C 1.703125 -17.441406 1.707031 -17.8125 1.71875 -18.09375 C 1.726562 -18.382812 1.742188 -18.625 1.765625 -18.8125 C 1.796875 -19 1.832031 -19.15625 1.875 -19.28125 C 1.914062 -19.414062 1.96875 -19.570312 2.03125 -19.75 C 2.1875 -20.164062 2.421875 -20.523438 2.734375 -20.828125 C 3.054688 -21.140625 3.40625 -21.382812 3.78125 -21.5625 C 3.976562 -21.644531 4.148438 -21.707031 4.296875 -21.75 C 4.453125 -21.789062 4.632812 -21.820312 4.84375 -21.84375 C 5.050781 -21.875 5.3125 -21.894531 5.625 -21.90625 C 5.945312 -21.914062 6.375 -21.921875 6.90625 -21.921875 L 11.234375 -21.921875 C 11.765625 -21.921875 12.179688 -21.921875 12.484375 -21.921875 C 12.796875 -21.921875 13.035156 -21.90625 13.203125 -21.875 C 13.378906 -21.851562 13.519531 -21.832031 13.625 -21.8125 C 13.738281 -21.789062 13.863281 -21.769531 14 -21.75 C 14.757812 -21.550781 15.363281 -21.164062 15.8125 -20.59375 C 16.269531 -20.03125 16.5 -19.363281 16.5 -18.59375 C 16.5 -18.070312 16.394531 -17.570312 16.1875 -17.09375 C 15.976562 -16.625 15.6875 -16.238281 15.3125 -15.9375 C 14.976562 -15.65625 14.601562 -15.453125 14.1875 -15.328125 C 13.78125 -15.203125 13.234375 -15.140625 12.546875 -15.140625 L 8.9375 -15.140625 L 8.9375 -13.640625 L 11.796875 -13.640625 C 12.691406 -13.640625 13.398438 -13.394531 13.921875 -12.90625 C 14.453125 -12.425781 14.71875 -11.804688 14.71875 -11.046875 C 14.71875 -10.191406 14.398438 -9.5 13.765625 -8.96875 C 13.484375 -8.75 13.179688 -8.597656 12.859375 -8.515625 C 12.546875 -8.441406 12.101562 -8.40625 11.53125 -8.40625 L 8.9375 -8.40625 L 8.9375 -6.765625 L 12.25 -6.765625 C 13.039062 -6.765625 13.648438 -6.703125 14.078125 -6.578125 C 14.503906 -6.460938 14.90625 -6.253906 15.28125 -5.953125 C 16.070312 -5.265625 16.46875 -4.410156 16.46875 -3.390625 C 16.46875 -2.878906 16.363281 -2.390625 16.15625 -1.921875 C 15.945312 -1.453125 15.65625 -1.0625 15.28125 -0.75 C 15.101562 -0.601562 14.921875 -0.476562 14.734375 -0.375 C 14.546875 -0.28125 14.34375 -0.203125 14.125 -0.140625 C 13.90625 -0.0859375 13.644531 -0.0507812 13.34375 -0.03125 C 13.050781 -0.0078125 12.703125 0 12.296875 0 Z M 6.671875 0 "/></g></g></g><g fill="#ffffff" fill-opacity="1"><g transform="translate(120.132939, 265.547135)"><g><path d="M 6.28125 -15.1875 L 4.34375 -15.1875 C 3.707031 -15.1875 3.175781 -15.257812 2.75 -15.40625 C 2.320312 -15.5625 1.941406 -15.804688 1.609375 -16.140625 C 0.929688 -16.859375 0.59375 -17.65625 0.59375 -18.53125 C 0.59375 -19.164062 0.769531 -19.765625 1.125 -20.328125 C 1.488281 -20.898438 1.9375 -21.3125 2.46875 -21.5625 C 2.664062 -21.644531 2.835938 -21.707031 2.984375 -21.75 C 3.140625 -21.789062 3.347656 -21.820312 3.609375 -21.84375 C 3.878906 -21.875 4.226562 -21.894531 4.65625 -21.90625 C 5.082031 -21.914062 5.65625 -21.921875 6.375 -21.921875 L 13.671875 -21.921875 C 14.171875 -21.921875 14.5625 -21.921875 14.84375 -21.921875 C 15.132812 -21.921875 15.351562 -21.921875 15.5 -21.921875 C 15.65625 -21.921875 15.769531 -21.914062 15.84375 -21.90625 C 15.925781 -21.894531 16.023438 -21.875 16.140625 -21.84375 C 17.015625 -21.738281 17.722656 -21.378906 18.265625 -20.765625 C 18.816406 -20.148438 19.09375 -19.414062 19.09375 -18.5625 C 19.09375 -18.082031 18.988281 -17.613281 18.78125 -17.15625 C 18.570312 -16.695312 18.28125 -16.300781 17.90625 -15.96875 C 17.332031 -15.445312 16.398438 -15.1875 15.109375 -15.1875 L 13.5 -15.1875 L 13.5 -4.265625 C 13.5 -3.609375 13.457031 -3.070312 13.375 -2.65625 C 13.289062 -2.238281 13.125 -1.847656 12.875 -1.484375 C 12.550781 -0.953125 12.128906 -0.539062 11.609375 -0.25 C 11.097656 0.03125 10.523438 0.171875 9.890625 0.171875 C 9.273438 0.171875 8.707031 0.0390625 8.1875 -0.21875 C 7.675781 -0.488281 7.25 -0.863281 6.90625 -1.34375 C 6.65625 -1.71875 6.488281 -2.101562 6.40625 -2.5 C 6.320312 -2.894531 6.28125 -3.460938 6.28125 -4.203125 Z M 6.28125 -15.1875 "/></g></g></g><g fill="#ffffff" fill-opacity="1"><g transform="translate(139.811479, 265.547135)"><g><path d="M 9.328125 0.5625 C 8.171875 0.5625 7.085938 0.414062 6.078125 0.125 C 5.066406 -0.15625 4.1875 -0.546875 3.4375 -1.046875 C 2.695312 -1.554688 2.117188 -2.144531 1.703125 -2.8125 C 1.285156 -3.476562 1.078125 -4.207031 1.078125 -5 C 1.078125 -5.457031 1.160156 -5.882812 1.328125 -6.28125 C 1.492188 -6.675781 1.722656 -7.019531 2.015625 -7.3125 C 2.316406 -7.601562 2.671875 -7.835938 3.078125 -8.015625 C 3.484375 -8.191406 3.914062 -8.28125 4.375 -8.28125 C 4.8125 -8.28125 5.234375 -8.195312 5.640625 -8.03125 C 6.046875 -7.863281 6.476562 -7.597656 6.9375 -7.234375 C 7.332031 -6.921875 7.648438 -6.675781 7.890625 -6.5 C 8.128906 -6.332031 8.320312 -6.195312 8.46875 -6.09375 C 8.625 -6 8.753906 -5.9375 8.859375 -5.90625 C 8.972656 -5.882812 9.097656 -5.875 9.234375 -5.875 C 9.515625 -5.875 9.738281 -5.960938 9.90625 -6.140625 C 10.070312 -6.316406 10.15625 -6.546875 10.15625 -6.828125 C 10.15625 -7.203125 9.96875 -7.507812 9.59375 -7.75 C 9.550781 -7.769531 9.5 -7.796875 9.4375 -7.828125 C 9.382812 -7.867188 9.304688 -7.910156 9.203125 -7.953125 C 9.109375 -7.992188 8.976562 -8.046875 8.8125 -8.109375 C 8.65625 -8.179688 8.4375 -8.269531 8.15625 -8.375 C 7.84375 -8.488281 7.539062 -8.59375 7.25 -8.6875 C 6.96875 -8.789062 6.675781 -8.894531 6.375 -9 C 3.195312 -10.113281 1.609375 -12.195312 1.609375 -15.25 C 1.609375 -16.320312 1.804688 -17.296875 2.203125 -18.171875 C 2.597656 -19.046875 3.144531 -19.800781 3.84375 -20.4375 C 4.539062 -21.070312 5.390625 -21.5625 6.390625 -21.90625 C 7.390625 -22.257812 8.476562 -22.4375 9.65625 -22.4375 C 10.644531 -22.4375 11.566406 -22.3125 12.421875 -22.0625 C 13.273438 -21.8125 14.019531 -21.472656 14.65625 -21.046875 C 15.289062 -20.617188 15.785156 -20.113281 16.140625 -19.53125 C 16.503906 -18.957031 16.6875 -18.328125 16.6875 -17.640625 C 16.6875 -16.765625 16.421875 -16.046875 15.890625 -15.484375 C 15.367188 -14.929688 14.691406 -14.65625 13.859375 -14.65625 C 13.359375 -14.65625 12.890625 -14.75 12.453125 -14.9375 C 12.015625 -15.125 11.488281 -15.445312 10.875 -15.90625 C 10.5 -16.207031 10.203125 -16.410156 9.984375 -16.515625 C 9.765625 -16.628906 9.554688 -16.6875 9.359375 -16.6875 C 9.117188 -16.6875 8.914062 -16.601562 8.75 -16.4375 C 8.59375 -16.28125 8.515625 -16.082031 8.515625 -15.84375 C 8.515625 -15.507812 8.660156 -15.242188 8.953125 -15.046875 C 9.242188 -14.847656 9.816406 -14.609375 10.671875 -14.328125 C 11.617188 -14.046875 12.507812 -13.703125 13.34375 -13.296875 C 14.175781 -12.890625 14.84375 -12.46875 15.34375 -12.03125 C 16.019531 -11.457031 16.554688 -10.710938 16.953125 -9.796875 C 17.347656 -8.890625 17.546875 -7.914062 17.546875 -6.875 C 17.546875 -5.882812 17.363281 -4.929688 17 -4.015625 C 16.644531 -3.109375 16.140625 -2.316406 15.484375 -1.640625 C 14.734375 -0.898438 13.859375 -0.347656 12.859375 0.015625 C 11.867188 0.378906 10.691406 0.5625 9.328125 0.5625 Z M 9.328125 0.5625 "/></g></g></g><g fill="#ffffff" fill-opacity="1"><g transform="translate(158.34019, 265.547135)"><g/></g></g><g fill="#ffffff" fill-opacity="1"><g transform="translate(168.097326, 265.547135)"><g><path d="M 1.078125 -11.078125 C 1.078125 -12.648438 1.378906 -14.125 1.984375 -15.5 C 2.585938 -16.882812 3.410156 -18.09375 4.453125 -19.125 C 5.492188 -20.15625 6.710938 -20.960938 8.109375 -21.546875 C 9.515625 -22.140625 11.019531 -22.4375 12.625 -22.4375 C 14.21875 -22.4375 15.710938 -22.132812 17.109375 -21.53125 C 18.515625 -20.9375 19.742188 -20.125 20.796875 -19.09375 C 21.847656 -18.0625 22.675781 -16.84375 23.28125 -15.4375 C 23.882812 -14.039062 24.1875 -12.550781 24.1875 -10.96875 C 24.1875 -9.394531 23.882812 -7.90625 23.28125 -6.5 C 22.675781 -5.101562 21.847656 -3.878906 20.796875 -2.828125 C 19.742188 -1.773438 18.515625 -0.945312 17.109375 -0.34375 C 15.710938 0.257812 14.226562 0.5625 12.65625 0.5625 C 11.03125 0.5625 9.515625 0.257812 8.109375 -0.34375 C 6.710938 -0.945312 5.492188 -1.773438 4.453125 -2.828125 C 3.410156 -3.878906 2.585938 -5.109375 1.984375 -6.515625 C 1.378906 -7.929688 1.078125 -9.453125 1.078125 -11.078125 Z M 8.34375 -10.96875 C 8.34375 -10.382812 8.457031 -9.820312 8.6875 -9.28125 C 8.914062 -8.75 9.222656 -8.285156 9.609375 -7.890625 C 9.992188 -7.492188 10.445312 -7.179688 10.96875 -6.953125 C 11.5 -6.722656 12.0625 -6.609375 12.65625 -6.609375 C 13.238281 -6.609375 13.789062 -6.722656 14.3125 -6.953125 C 14.84375 -7.179688 15.300781 -7.492188 15.6875 -7.890625 C 16.070312 -8.285156 16.378906 -8.742188 16.609375 -9.265625 C 16.835938 -9.796875 16.953125 -10.351562 16.953125 -10.9375 C 16.953125 -11.53125 16.835938 -12.082031 16.609375 -12.59375 C 16.378906 -13.113281 16.070312 -13.566406 15.6875 -13.953125 C 15.300781 -14.335938 14.84375 -14.640625 14.3125 -14.859375 C 13.789062 -15.078125 13.238281 -15.1875 12.65625 -15.1875 C 12.0625 -15.1875 11.5 -15.078125 10.96875 -14.859375 C 10.445312 -14.640625 9.992188 -14.335938 9.609375 -13.953125 C 9.222656 -13.566406 8.914062 -13.117188 8.6875 -12.609375 C 8.457031 -12.109375 8.34375 -11.5625 8.34375 -10.96875 Z M 8.34375 -10.96875 "/></g></g></g><g fill="#ffffff" fill-opacity="1"><g transform="translate(193.360758, 265.547135)"><g><path d="M 8.96875 -8.640625 L 8.96875 -4.046875 C 8.96875 -3.316406 8.90625 -2.75 8.78125 -2.34375 C 8.664062 -1.9375 8.457031 -1.539062 8.15625 -1.15625 C 7.800781 -0.738281 7.378906 -0.410156 6.890625 -0.171875 C 6.410156 0.0546875 5.898438 0.171875 5.359375 0.171875 C 4.785156 0.171875 4.242188 0.046875 3.734375 -0.203125 C 3.234375 -0.460938 2.8125 -0.8125 2.46875 -1.25 C 2.15625 -1.664062 1.945312 -2.082031 1.84375 -2.5 C 1.75 -2.914062 1.703125 -3.53125 1.703125 -4.34375 L 1.703125 -18.203125 C 1.703125 -19.390625 2.046875 -20.332031 2.734375 -21.03125 C 3.429688 -21.726562 4.347656 -22.078125 5.484375 -22.078125 C 6.015625 -22.078125 6.492188 -21.960938 6.921875 -21.734375 C 7.347656 -21.503906 7.769531 -21.140625 8.1875 -20.640625 L 13.9375 -13.578125 L 13.9375 -17.640625 C 13.9375 -18.367188 13.976562 -18.9375 14.0625 -19.34375 C 14.144531 -19.75 14.320312 -20.132812 14.59375 -20.5 C 14.894531 -20.988281 15.3125 -21.375 15.84375 -21.65625 C 16.382812 -21.9375 16.953125 -22.078125 17.546875 -22.078125 C 18.097656 -22.078125 18.609375 -21.960938 19.078125 -21.734375 C 19.546875 -21.503906 19.957031 -21.179688 20.3125 -20.765625 C 20.613281 -20.367188 20.828125 -19.957031 20.953125 -19.53125 C 21.085938 -19.101562 21.15625 -18.550781 21.15625 -17.875 L 21.15625 -4.46875 C 21.15625 -3.59375 21.097656 -2.929688 20.984375 -2.484375 C 20.878906 -2.035156 20.675781 -1.601562 20.375 -1.1875 C 20.039062 -0.75 19.628906 -0.410156 19.140625 -0.171875 C 18.648438 0.0546875 18.117188 0.171875 17.546875 0.171875 C 16.390625 0.171875 15.4375 -0.320312 14.6875 -1.3125 Z M 8.96875 -8.640625 "/></g></g></g><g fill="#ffffff" fill-opacity="1"><g transform="translate(216.225974, 265.547135)"><g/></g></g><g fill="#ffffff" fill-opacity="1"><g transform="translate(225.98311, 265.547135)"><g><path d="M 5.75 0 C 4.957031 0 4.34375 -0.0664062 3.90625 -0.203125 C 3.46875 -0.347656 3.050781 -0.640625 2.65625 -1.078125 C 2.4375 -1.328125 2.25 -1.597656 2.09375 -1.890625 C 1.945312 -2.179688 1.84375 -2.484375 1.78125 -2.796875 C 1.75 -2.921875 1.726562 -3.097656 1.71875 -3.328125 C 1.707031 -3.566406 1.703125 -4.035156 1.703125 -4.734375 L 1.703125 -18.203125 C 1.722656 -19.296875 2.078125 -20.1875 2.765625 -20.875 C 3.460938 -21.570312 4.347656 -21.921875 5.421875 -21.921875 L 8.515625 -21.921875 C 9.097656 -21.921875 9.59375 -21.914062 10 -21.90625 C 10.40625 -21.894531 10.753906 -21.875 11.046875 -21.84375 C 11.347656 -21.820312 11.613281 -21.796875 11.84375 -21.765625 C 12.070312 -21.734375 12.296875 -21.695312 12.515625 -21.65625 C 14.023438 -21.28125 15.242188 -20.492188 16.171875 -19.296875 C 17.109375 -18.109375 17.578125 -16.703125 17.578125 -15.078125 C 17.578125 -14.441406 17.503906 -13.894531 17.359375 -13.4375 C 17.222656 -12.976562 16.957031 -12.410156 16.5625 -11.734375 C 17.4375 -10.898438 18.050781 -10.082031 18.40625 -9.28125 C 18.769531 -8.476562 18.953125 -7.550781 18.953125 -6.5 C 18.953125 -4.570312 18.222656 -2.941406 16.765625 -1.609375 C 16.410156 -1.285156 16.066406 -1.019531 15.734375 -0.8125 C 15.410156 -0.601562 15.050781 -0.4375 14.65625 -0.3125 C 14.257812 -0.1875 13.804688 -0.101562 13.296875 -0.0625 C 12.796875 -0.0195312 12.195312 0 11.5 0 Z M 9.765625 -13.4375 C 10.265625 -13.4375 10.613281 -13.492188 10.8125 -13.609375 C 11.007812 -13.734375 11.109375 -13.953125 11.109375 -14.265625 C 11.109375 -14.566406 11 -14.78125 10.78125 -14.90625 C 10.5625 -15.039062 10.195312 -15.109375 9.6875 -15.109375 L 8.90625 -15.109375 L 8.90625 -13.4375 Z M 8.90625 -6.734375 L 10.125 -6.734375 C 10.757812 -6.734375 11.179688 -6.789062 11.390625 -6.90625 C 11.597656 -7.03125 11.703125 -7.257812 11.703125 -7.59375 C 11.703125 -7.914062 11.570312 -8.148438 11.3125 -8.296875 C 11.0625 -8.441406 10.65625 -8.515625 10.09375 -8.515625 L 8.90625 -8.515625 Z M 8.90625 -6.734375 "/></g></g></g><g fill="#ffffff" fill-opacity="1"><g transform="translate(246.220135, 265.547135)"><g><path d="M 7.921875 -2.859375 C 7.460938 -1.785156 6.941406 -1.007812 6.359375 -0.53125 C 5.773438 -0.0625 5.046875 0.171875 4.171875 0.171875 C 3.671875 0.171875 3.203125 0.078125 2.765625 -0.109375 C 2.328125 -0.296875 1.945312 -0.550781 1.625 -0.875 C 1.3125 -1.207031 1.0625 -1.59375 0.875 -2.03125 C 0.6875 -2.46875 0.59375 -2.941406 0.59375 -3.453125 C 0.59375 -4.066406 0.742188 -4.703125 1.046875 -5.359375 L 7.921875 -19.90625 C 8.222656 -20.59375 8.671875 -21.125 9.265625 -21.5 C 9.859375 -21.882812 10.515625 -22.078125 11.234375 -22.078125 C 11.984375 -22.078125 12.648438 -21.882812 13.234375 -21.5 C 13.828125 -21.125 14.289062 -20.582031 14.625 -19.875 L 21.515625 -5.15625 C 21.804688 -4.613281 21.953125 -4.035156 21.953125 -3.421875 C 21.953125 -2.910156 21.851562 -2.441406 21.65625 -2.015625 C 21.457031 -1.585938 21.191406 -1.207031 20.859375 -0.875 C 20.535156 -0.550781 20.15625 -0.296875 19.71875 -0.109375 C 19.28125 0.078125 18.804688 0.171875 18.296875 0.171875 C 17.460938 0.171875 16.765625 -0.0507812 16.203125 -0.5 C 15.648438 -0.957031 15.125 -1.742188 14.625 -2.859375 Z M 12.359375 -8.078125 L 11.234375 -10.71875 L 10.125 -8.078125 Z M 12.359375 -8.078125 "/></g></g></g><g fill="#ffffff" fill-opacity="1"><g transform="translate(268.75683, 265.547135)"><g><path d="M 9.328125 0.5625 C 8.171875 0.5625 7.085938 0.414062 6.078125 0.125 C 5.066406 -0.15625 4.1875 -0.546875 3.4375 -1.046875 C 2.695312 -1.554688 2.117188 -2.144531 1.703125 -2.8125 C 1.285156 -3.476562 1.078125 -4.207031 1.078125 -5 C 1.078125 -5.457031 1.160156 -5.882812 1.328125 -6.28125 C 1.492188 -6.675781 1.722656 -7.019531 2.015625 -7.3125 C 2.316406 -7.601562 2.671875 -7.835938 3.078125 -8.015625 C 3.484375 -8.191406 3.914062 -8.28125 4.375 -8.28125 C 4.8125 -8.28125 5.234375 -8.195312 5.640625 -8.03125 C 6.046875 -7.863281 6.476562 -7.597656 6.9375 -7.234375 C 7.332031 -6.921875 7.648438 -6.675781 7.890625 -6.5 C 8.128906 -6.332031 8.320312 -6.195312 8.46875 -6.09375 C 8.625 -6 8.753906 -5.9375 8.859375 -5.90625 C 8.972656 -5.882812 9.097656 -5.875 9.234375 -5.875 C 9.515625 -5.875 9.738281 -5.960938 9.90625 -6.140625 C 10.070312 -6.316406 10.15625 -6.546875 10.15625 -6.828125 C 10.15625 -7.203125 9.96875 -7.507812 9.59375 -7.75 C 9.550781 -7.769531 9.5 -7.796875 9.4375 -7.828125 C 9.382812 -7.867188 9.304688 -7.910156 9.203125 -7.953125 C 9.109375 -7.992188 8.976562 -8.046875 8.8125 -8.109375 C 8.65625 -8.179688 8.4375 -8.269531 8.15625 -8.375 C 7.84375 -8.488281 7.539062 -8.59375 7.25 -8.6875 C 6.96875 -8.789062 6.675781 -8.894531 6.375 -9 C 3.195312 -10.113281 1.609375 -12.195312 1.609375 -15.25 C 1.609375 -16.320312 1.804688 -17.296875 2.203125 -18.171875 C 2.597656 -19.046875 3.144531 -19.800781 3.84375 -20.4375 C 4.539062 -21.070312 5.390625 -21.5625 6.390625 -21.90625 C 7.390625 -22.257812 8.476562 -22.4375 9.65625 -22.4375 C 10.644531 -22.4375 11.566406 -22.3125 12.421875 -22.0625 C 13.273438 -21.8125 14.019531 -21.472656 14.65625 -21.046875 C 15.289062 -20.617188 15.785156 -20.113281 16.140625 -19.53125 C 16.503906 -18.957031 16.6875 -18.328125 16.6875 -17.640625 C 16.6875 -16.765625 16.421875 -16.046875 15.890625 -15.484375 C 15.367188 -14.929688 14.691406 -14.65625 13.859375 -14.65625 C 13.359375 -14.65625 12.890625 -14.75 12.453125 -14.9375 C 12.015625 -15.125 11.488281 -15.445312 10.875 -15.90625 C 10.5 -16.207031 10.203125 -16.410156 9.984375 -16.515625 C 9.765625 -16.628906 9.554688 -16.6875 9.359375 -16.6875 C 9.117188 -16.6875 8.914062 -16.601562 8.75 -16.4375 C 8.59375 -16.28125 8.515625 -16.082031 8.515625 -15.84375 C 8.515625 -15.507812 8.660156 -15.242188 8.953125 -15.046875 C 9.242188 -14.847656 9.816406 -14.609375 10.671875 -14.328125 C 11.617188 -14.046875 12.507812 -13.703125 13.34375 -13.296875 C 14.175781 -12.890625 14.84375 -12.46875 15.34375 -12.03125 C 16.019531 -11.457031 16.554688 -10.710938 16.953125 -9.796875 C 17.347656 -8.890625 17.546875 -7.914062 17.546875 -6.875 C 17.546875 -5.882812 17.363281 -4.929688 17 -4.015625 C 16.644531 -3.109375 16.140625 -2.316406 15.484375 -1.640625 C 14.734375 -0.898438 13.859375 -0.347656 12.859375 0.015625 C 11.867188 0.378906 10.691406 0.5625 9.328125 0.5625 Z M 9.328125 0.5625 "/></g></g></g><g fill="#ffffff" fill-opacity="1"><g transform="translate(287.285541, 265.547135)"><g><path d="M 6.671875 0 C 5.835938 0 5.242188 -0.0195312 4.890625 -0.0625 C 4.546875 -0.101562 4.21875 -0.179688 3.90625 -0.296875 C 2.75 -0.773438 2.0625 -1.648438 1.84375 -2.921875 C 1.820312 -3.035156 1.796875 -3.140625 1.765625 -3.234375 C 1.742188 -3.335938 1.726562 -3.460938 1.71875 -3.609375 C 1.707031 -3.765625 1.703125 -3.957031 1.703125 -4.1875 C 1.703125 -4.414062 1.703125 -4.71875 1.703125 -5.09375 L 1.703125 -16.984375 C 1.703125 -17.441406 1.707031 -17.8125 1.71875 -18.09375 C 1.726562 -18.382812 1.742188 -18.625 1.765625 -18.8125 C 1.796875 -19 1.832031 -19.15625 1.875 -19.28125 C 1.914062 -19.414062 1.96875 -19.570312 2.03125 -19.75 C 2.1875 -20.164062 2.421875 -20.523438 2.734375 -20.828125 C 3.054688 -21.140625 3.40625 -21.382812 3.78125 -21.5625 C 3.976562 -21.644531 4.148438 -21.707031 4.296875 -21.75 C 4.453125 -21.789062 4.632812 -21.820312 4.84375 -21.84375 C 5.050781 -21.875 5.3125 -21.894531 5.625 -21.90625 C 5.945312 -21.914062 6.375 -21.921875 6.90625 -21.921875 L 11.234375 -21.921875 C 11.765625 -21.921875 12.179688 -21.921875 12.484375 -21.921875 C 12.796875 -21.921875 13.035156 -21.90625 13.203125 -21.875 C 13.378906 -21.851562 13.519531 -21.832031 13.625 -21.8125 C 13.738281 -21.789062 13.863281 -21.769531 14 -21.75 C 14.757812 -21.550781 15.363281 -21.164062 15.8125 -20.59375 C 16.269531 -20.03125 16.5 -19.363281 16.5 -18.59375 C 16.5 -18.070312 16.394531 -17.570312 16.1875 -17.09375 C 15.976562 -16.625 15.6875 -16.238281 15.3125 -15.9375 C 14.976562 -15.65625 14.601562 -15.453125 14.1875 -15.328125 C 13.78125 -15.203125 13.234375 -15.140625 12.546875 -15.140625 L 8.9375 -15.140625 L 8.9375 -13.640625 L 11.796875 -13.640625 C 12.691406 -13.640625 13.398438 -13.394531 13.921875 -12.90625 C 14.453125 -12.425781 14.71875 -11.804688 14.71875 -11.046875 C 14.71875 -10.191406 14.398438 -9.5 13.765625 -8.96875 C 13.484375 -8.75 13.179688 -8.597656 12.859375 -8.515625 C 12.546875 -8.441406 12.101562 -8.40625 11.53125 -8.40625 L 8.9375 -8.40625 L 8.9375 -6.765625 L 12.25 -6.765625 C 13.039062 -6.765625 13.648438 -6.703125 14.078125 -6.578125 C 14.503906 -6.460938 14.90625 -6.253906 15.28125 -5.953125 C 16.070312 -5.265625 16.46875 -4.410156 16.46875 -3.390625 C 16.46875 -2.878906 16.363281 -2.390625 16.15625 -1.921875 C 15.945312 -1.453125 15.65625 -1.0625 15.28125 -0.75 C 15.101562 -0.601562 14.921875 -0.476562 14.734375 -0.375 C 14.546875 -0.28125 14.34375 -0.203125 14.125 -0.140625 C 13.90625 -0.0859375 13.644531 -0.0507812 13.34375 -0.03125 C 13.050781 -0.0078125 12.703125 0 12.296875 0 Z M 6.671875 0 "/></g></g></g></svg>