<svg xmlns="http://www.w3.org/2000/svg" xmlns:xlink="http://www.w3.org/1999/xlink" width="500" zoomAndPan="magnify" viewBox="0 0 375 374.999991" height="500" preserveAspectRatio="xMidYMid meet" version="1.0"><defs><filter x="0%" y="0%" width="100%" height="100%" id="0361906696"><feColorMatrix values="0 0 0 0 1 0 0 0 0 1 0 0 0 0 1 0 0 0 1 0" color-interpolation-filters="sRGB"/></filter><g/><clipPath id="c254dfeb42"><path d="M 8.941406 -4.640625 L 374.984375 -4.640625 C 379.5625 -4.640625 383.949219 -2.824219 387.183594 0.410156 C 390.417969 3.648438 392.234375 8.035156 392.234375 12.609375 L 392.234375 361.726562 C 392.234375 366.300781 390.417969 370.691406 387.183594 373.925781 C 383.949219 377.160156 379.5625 378.976562 374.984375 378.976562 L 8.941406 378.976562 C 4.363281 378.976562 -0.0234375 377.160156 -3.257812 373.925781 C -6.492188 370.691406 -8.308594 366.300781 -8.308594 361.726562 L -8.308594 12.609375 C -8.308594 8.035156 -6.492188 3.648438 -3.257812 0.410156 C -0.0234375 -2.824219 4.363281 -4.640625 8.941406 -4.640625 Z M 8.941406 -4.640625 " clip-rule="nonzero"/></clipPath><clipPath id="c10a899e1f"><path d="M 0 227.328125 L 375 227.328125 L 375 375 L 0 375 Z M 0 227.328125 " clip-rule="nonzero"/></clipPath><clipPath id="c18d7854d5"><path d="M 52.441406 227.328125 L 321.625 227.328125 C 355.175781 227.328125 382.375 254.527344 382.375 288.078125 L 382.375 349.285156 C 382.375 382.835938 355.175781 410.035156 321.625 410.035156 L 52.441406 410.035156 C 18.886719 410.035156 -8.308594 382.835938 -8.308594 349.285156 L -8.308594 288.078125 C -8.308594 254.527344 18.886719 227.328125 52.441406 227.328125 Z M 52.441406 227.328125 " clip-rule="nonzero"/></clipPath><clipPath id="21ef7473eb"><path d="M 0 153 L 375 153 L 375 329.632812 L 0 329.632812 Z M 0 153 " clip-rule="nonzero"/></clipPath><mask id="0f3f62cf8d"><g filter="url(#0361906696)"><rect x="-37.5" width="450" fill="#000000" y="-37.499999" height="449.999989" fill-opacity="0.71"/></g></mask><clipPath id="f132068c00"><path d="M 1 1.15625 L 198 1.15625 L 198 351.039062 L 1 351.039062 Z M 1 1.15625 " clip-rule="nonzero"/></clipPath><clipPath id="0134473f09"><path d="M 63 1.15625 L 136 1.15625 L 136 45 L 63 45 Z M 63 1.15625 " clip-rule="nonzero"/></clipPath><clipPath id="b41fea8088"><rect x="0" width="199" y="0" height="353"/></clipPath><clipPath id="2be1b4fec1"><path d="M 119.269531 150.382812 L 255.035156 150.382812 L 255.035156 321.050781 L 119.269531 321.050781 Z M 119.269531 150.382812 " clip-rule="nonzero"/></clipPath></defs><rect x="-37.5" width="450" fill="#ffffff" y="-37.499999" height="449.999989" fill-opacity="1"/><rect x="-37.5" width="450" fill="#ffffff" y="-37.499999" height="449.999989" fill-opacity="1"/><g clip-path="url(#c254dfeb42)"><rect x="-37.5" width="450" fill="#7a1a1e" y="-37.499999" height="449.999989" fill-opacity="1"/></g><g clip-path="url(#c10a899e1f)"><g clip-path="url(#c18d7854d5)"><path fill="#d4550a" d="M -8.308594 227.328125 L 382.082031 227.328125 L 382.082031 410.035156 L -8.308594 410.035156 Z M -8.308594 227.328125 " fill-opacity="1" fill-rule="nonzero"/></g></g><g clip-path="url(#21ef7473eb)"><path fill="#d4550a" d="M 415.632812 154.535156 C 410.820312 169.554688 398.5 180.816406 383.25 184.574219 C 366.707031 188.679688 349.339844 184.691406 333.734375 178.589844 C 325.289062 175.1875 317.074219 171.195312 308.742188 167.324219 C 300.648438 163.570312 292.550781 159.582031 283.871094 157.117188 C 275.890625 154.886719 267.445312 154.183594 259.464844 156.53125 C 253.128906 158.40625 247.496094 161.929688 242.21875 165.800781 C 231.539062 173.777344 221.683594 184.21875 208.425781 187.625 C 194.816406 191.144531 180.855469 186.214844 168.300781 181.289062 C 155.511719 176.242188 142.371094 170.257812 128.289062 170.140625 C 113.039062 170.023438 101.070312 178.707031 89.6875 187.742188 C 83.703125 192.550781 77.722656 197.363281 70.796875 201 C 63.992188 204.519531 56.71875 206.984375 49.210938 208.390625 C 34.191406 211.207031 18.234375 209.5625 4.15625 203.460938 C 0.753906 201.9375 -2.53125 200.175781 -5.699219 198.300781 C -6.40625 197.832031 -6.992188 197.949219 -7.578125 198.300781 C -7.929688 198.652344 -8.28125 199.121094 -8.28125 199.941406 C -8.28125 215.78125 -8.28125 325.484375 -8.28125 341.441406 C -8.28125 343.671875 -8.28125 345.902344 -8.28125 348.128906 C -8.28125 349.070312 -7.460938 349.890625 -6.523438 349.890625 C -2.765625 349.890625 1.105469 349.890625 4.859375 349.890625 C 15.066406 349.890625 25.390625 349.890625 35.597656 349.890625 C 50.851562 349.890625 65.988281 349.890625 81.242188 349.890625 C 99.777344 349.890625 118.316406 349.890625 136.972656 349.890625 C 157.269531 349.890625 177.453125 349.890625 197.75 349.890625 C 218.28125 349.890625 238.933594 349.890625 259.464844 349.890625 C 278.472656 349.890625 297.597656 349.890625 316.605469 349.890625 C 332.796875 349.890625 348.988281 349.890625 365.0625 349.890625 C 376.679688 349.890625 388.292969 349.890625 399.910156 349.890625 C 405.425781 349.890625 410.9375 350.007812 416.335938 349.890625 C 416.570312 349.890625 416.804688 349.890625 417.039062 349.890625 C 417.976562 349.890625 418.800781 349.070312 418.800781 348.128906 C 418.800781 336.984375 418.800781 231.855469 418.800781 220.710938 C 418.800781 202.992188 418.800781 185.160156 418.800781 167.441406 C 418.800781 163.335938 418.800781 159.230469 418.800781 155.121094 C 419.035156 152.894531 416.21875 152.660156 415.632812 154.535156 Z M 415.632812 154.535156 " fill-opacity="1" fill-rule="nonzero"/></g><g mask="url(#0f3f62cf8d)"><g transform="matrix(1, 0, 0, 1, 88, 11)"><g clip-path="url(#b41fea8088)"><path fill="#060100" d="M 104.046875 345.808594 C 102.558594 345.734375 101.050781 345.695312 99.546875 345.695312 C 98.039062 345.695312 96.53125 345.734375 95.03125 345.808594 L 29.886719 349.144531 C 15.238281 349.144531 3.707031 337.605469 3.707031 323.425781 L 3.707031 134.632812 C 3.707031 124.625 9.570312 115.464844 18.65625 111.277344 C 31.464844 105.242188 62.039062 91.039062 68.820312 89.632812 L 68.949219 54.820312 C 67.355469 52.734375 66.484375 50.1875 66.484375 47.554688 C 66.484375 46.019531 66.699219 44.6875 67.117188 43.449219 C 66.269531 41.765625 65.828125 39.902344 65.828125 38 L 65.828125 15.914062 C 65.828125 9.199219 71.289062 3.738281 78.003906 3.738281 L 121.085938 3.738281 C 127.800781 3.738281 133.265625 9.199219 133.265625 15.914062 L 133.265625 38 C 133.265625 39.910156 132.820312 41.773438 131.972656 43.457031 C 132.390625 44.6875 132.609375 45.96875 132.609375 47.28125 C 132.609375 50.15625 131.734375 52.730469 130.144531 54.820312 L 130.144531 89.394531 C 137.332031 91.09375 170.460938 106.574219 180.453125 111.285156 C 189.519531 115.472656 195.390625 124.636719 195.390625 134.632812 L 195.390625 323.425781 C 195.390625 337.609375 183.851562 349.152344 169.667969 349.152344 L 104.046875 345.808594 " fill-opacity="1" fill-rule="nonzero"/><g clip-path="url(#f132068c00)"><path fill="#ffffff" d="M 104.046875 345.808594 L 104.175781 343.203125 C 102.648438 343.125 101.097656 343.085938 99.546875 343.085938 C 97.992188 343.085938 96.441406 343.125 94.902344 343.203125 L 94.898438 343.203125 L 29.757812 346.539062 L 29.886719 349.144531 L 29.886719 346.535156 C 23.253906 346.53125 17.378906 343.933594 13.136719 339.742188 C 8.898438 335.554688 6.316406 329.804688 6.316406 323.425781 L 6.316406 134.632812 C 6.3125 125.652344 11.59375 117.398438 19.75 113.644531 L 19.769531 113.636719 C 26.160156 110.625 36.996094 105.574219 47.054688 101.101562 C 52.085938 98.871094 56.921875 96.785156 60.898438 95.179688 C 62.886719 94.375 64.65625 93.691406 66.113281 93.179688 C 67.5625 92.660156 68.726562 92.3125 69.347656 92.1875 C 70.558594 91.933594 71.421875 90.878906 71.425781 89.640625 L 71.558594 54.835938 C 71.5625 54.253906 71.375 53.703125 71.023438 53.242188 C 69.773438 51.601562 69.09375 49.609375 69.09375 47.554688 C 69.097656 46.257812 69.269531 45.242188 69.589844 44.277344 C 69.808594 43.617188 69.761719 42.90625 69.445312 42.28125 C 68.78125 40.957031 68.4375 39.492188 68.4375 38 L 68.4375 15.914062 C 68.4375 13.269531 69.503906 10.894531 71.246094 9.148438 C 72.984375 7.414062 75.363281 6.347656 78.003906 6.347656 L 121.085938 6.347656 C 123.730469 6.347656 126.105469 7.414062 127.851562 9.148438 C 129.585938 10.894531 130.65625 13.269531 130.65625 15.914062 L 130.65625 38 C 130.65625 39.5 130.308594 40.960938 129.644531 42.28125 C 129.332031 42.902344 129.277344 43.632812 129.507812 44.292969 C 129.832031 45.261719 130 46.253906 130 47.28125 C 129.992188 49.625 129.304688 51.605469 128.066406 53.246094 C 127.722656 53.703125 127.539062 54.253906 127.539062 54.820312 L 127.539062 89.394531 C 127.539062 90.609375 128.363281 91.65625 129.542969 91.933594 C 130.238281 92.097656 131.5 92.5 133.054688 93.078125 C 135.800781 94.089844 139.546875 95.632812 143.726562 97.429688 C 156.28125 102.832031 172.796875 110.558594 179.339844 113.640625 L 179.359375 113.65625 C 187.5 117.402344 192.789062 125.664062 192.78125 134.632812 L 192.78125 323.425781 C 192.78125 329.804688 190.195312 335.566406 186.003906 339.761719 C 181.808594 343.953125 176.046875 346.539062 169.667969 346.542969 L 169.667969 349.152344 L 169.800781 346.546875 L 104.179688 343.203125 L 104.175781 343.203125 L 103.914062 348.414062 L 169.539062 351.753906 L 169.667969 351.757812 C 177.476562 351.757812 184.574219 348.574219 189.691406 343.449219 C 194.820312 338.328125 198 331.234375 197.996094 323.425781 L 197.996094 134.632812 C 197.992188 123.609375 191.542969 113.535156 181.542969 108.917969 L 181.566406 108.925781 C 176.558594 106.566406 165.769531 101.511719 155.3125 96.832031 C 150.085938 94.488281 144.941406 92.238281 140.628906 90.460938 C 138.46875 89.566406 136.519531 88.796875 134.863281 88.1875 C 133.195312 87.570312 131.84375 87.121094 130.742188 86.855469 L 130.144531 89.394531 L 132.753906 89.394531 L 132.753906 54.820312 L 130.144531 54.820312 L 132.21875 56.402344 C 134.164062 53.855469 135.21875 50.679688 135.214844 47.28125 C 135.214844 45.683594 134.949219 44.109375 134.441406 42.613281 L 131.972656 43.457031 L 134.304688 44.628906 C 135.335938 42.578125 135.871094 40.3125 135.871094 38 L 135.871094 15.914062 C 135.875 11.84375 134.210938 8.132812 131.539062 5.460938 C 128.871094 2.792969 125.15625 1.125 121.085938 1.128906 L 78.003906 1.128906 C 73.933594 1.125 70.222656 2.792969 67.550781 5.460938 C 64.882812 8.132812 63.21875 11.84375 63.21875 15.914062 L 63.21875 38 C 63.21875 40.304688 63.757812 42.566406 64.785156 44.617188 L 67.117188 43.449219 L 64.640625 42.625 C 64.132812 44.132812 63.875 45.773438 63.875 47.554688 C 63.875 50.765625 64.941406 53.871094 66.878906 56.40625 L 68.949219 54.820312 L 66.339844 54.8125 L 66.210938 89.625 L 68.820312 89.632812 L 68.289062 87.078125 C 67.21875 87.304688 65.941406 87.703125 64.371094 88.257812 C 61.636719 89.230469 58.074219 90.664062 54.0625 92.367188 C 42.03125 97.464844 25.96875 104.949219 17.542969 108.917969 L 17.5625 108.90625 C 7.550781 113.527344 1.101562 123.597656 1.097656 134.632812 L 1.097656 323.425781 C 1.09375 331.230469 4.28125 338.332031 9.46875 343.457031 C 14.652344 348.585938 21.871094 351.753906 29.886719 351.75 L 30.023438 351.746094 L 95.164062 348.414062 L 95.160156 348.414062 C 96.621094 348.34375 98.085938 348.304688 99.546875 348.304688 C 101.003906 348.304688 102.46875 348.34375 103.917969 348.414062 L 103.914062 348.414062 L 104.046875 345.808594 " fill-opacity="1" fill-rule="nonzero"/></g><path fill="#060100" d="M 68.34375 42.332031 C 67.300781 42.332031 66.402344 41.601562 66.179688 40.585938 C 66.011719 39.792969 65.828125 38.957031 65.828125 38 L 65.828125 15.914062 C 65.828125 9.199219 71.289062 3.738281 78.003906 3.738281 L 121.085938 3.738281 C 127.800781 3.738281 133.265625 9.199219 133.265625 15.914062 L 133.265625 38 C 133.265625 39 133.066406 39.890625 132.910156 40.597656 C 132.679688 41.609375 131.785156 42.332031 130.753906 42.332031 L 68.34375 42.332031 " fill-opacity="1" fill-rule="nonzero"/><g clip-path="url(#0134473f09)"><path fill="#ffffff" d="M 68.34375 42.332031 L 68.34375 39.722656 L 68.34375 40.113281 L 68.730469 40.027344 C 68.691406 39.855469 68.53125 39.722656 68.34375 39.722656 L 68.34375 40.113281 L 68.730469 40.027344 L 68.734375 40.046875 C 68.558594 39.230469 68.433594 38.617188 68.4375 38 L 68.4375 15.914062 C 68.4375 13.269531 69.503906 10.894531 71.246094 9.148438 C 72.984375 7.414062 75.363281 6.347656 78.003906 6.347656 L 121.085938 6.347656 C 123.730469 6.347656 126.105469 7.414062 127.851562 9.148438 C 129.585938 10.894531 130.65625 13.269531 130.65625 15.914062 L 130.65625 38 C 130.660156 38.65625 130.519531 39.328125 130.363281 40.027344 L 130.753906 40.113281 L 130.753906 39.722656 C 130.554688 39.722656 130.40625 39.847656 130.363281 40.027344 L 130.753906 40.113281 L 130.753906 39.722656 L 68.34375 39.722656 L 68.34375 44.9375 L 130.753906 44.9375 C 133.015625 44.933594 134.960938 43.371094 135.453125 41.164062 C 135.613281 40.453125 135.871094 39.34375 135.871094 38 L 135.871094 15.914062 C 135.875 11.84375 134.210938 8.132812 131.539062 5.460938 C 128.871094 2.792969 125.15625 1.125 121.085938 1.128906 L 78.003906 1.128906 C 73.933594 1.125 70.222656 2.792969 67.550781 5.460938 C 64.882812 8.132812 63.21875 11.84375 63.21875 15.914062 L 63.21875 38 C 63.21875 39.296875 63.46875 40.347656 63.625 41.121094 L 63.632812 41.140625 C 64.113281 43.34375 66.066406 44.9375 68.34375 44.9375 L 68.34375 42.332031 " fill-opacity="1" fill-rule="nonzero"/></g><path fill="#060100" d="M 33.378906 311.0625 C 32.15625 311.0625 31.164062 310.078125 31.164062 308.855469 L 31.164062 141.496094 C 31.164062 140.273438 32.15625 139.28125 33.378906 139.28125 L 165.71875 139.28125 C 166.941406 139.28125 167.929688 140.273438 167.929688 141.496094 L 167.929688 308.855469 C 167.929688 310.078125 166.941406 311.0625 165.71875 311.0625 L 33.378906 311.0625 " fill-opacity="1" fill-rule="nonzero"/><path fill="#ffffff" d="M 33.378906 311.0625 L 33.378906 308.457031 L 33.378906 308.851562 L 33.660156 308.574219 C 33.59375 308.503906 33.480469 308.457031 33.378906 308.457031 L 33.378906 308.851562 L 33.660156 308.574219 L 33.378906 308.855469 L 33.773438 308.855469 C 33.777344 308.753906 33.722656 308.632812 33.660156 308.574219 L 33.378906 308.855469 L 33.773438 308.855469 L 33.773438 141.496094 L 33.378906 141.496094 L 33.378906 141.890625 C 33.597656 141.886719 33.773438 141.710938 33.773438 141.496094 L 33.378906 141.496094 L 33.378906 141.890625 L 165.71875 141.890625 L 165.71875 141.496094 L 165.324219 141.496094 C 165.324219 141.710938 165.5 141.886719 165.71875 141.890625 L 165.71875 141.496094 L 165.324219 141.496094 L 165.324219 308.855469 L 165.71875 308.855469 L 165.441406 308.574219 C 165.371094 308.632812 165.324219 308.753906 165.324219 308.855469 L 165.71875 308.855469 L 165.441406 308.574219 L 165.71875 308.851562 L 165.71875 308.457031 C 165.621094 308.457031 165.503906 308.503906 165.441406 308.574219 L 165.71875 308.851562 L 165.71875 308.457031 L 33.378906 308.457031 L 33.378906 313.671875 L 165.71875 313.671875 C 167.039062 313.675781 168.261719 313.128906 169.125 312.261719 C 169.992188 311.398438 170.539062 310.175781 170.539062 308.855469 L 170.539062 141.496094 C 170.539062 138.828125 168.378906 136.675781 165.71875 136.675781 L 33.378906 136.675781 C 30.714844 136.675781 28.558594 138.828125 28.554688 141.496094 L 28.554688 308.855469 C 28.554688 310.175781 29.101562 311.398438 29.96875 312.261719 C 30.835938 313.128906 32.058594 313.675781 33.378906 313.671875 L 33.378906 311.0625 " fill-opacity="1" fill-rule="nonzero"/><path fill="#060100" d="M 137.902344 47.675781 C 137.902344 53.152344 133.464844 57.589844 127.988281 57.589844 L 70.605469 57.589844 C 65.128906 57.589844 60.691406 53.152344 60.691406 47.675781 C 60.691406 42.199219 65.128906 37.765625 70.605469 37.765625 L 127.988281 37.765625 C 133.464844 37.765625 137.902344 42.199219 137.902344 47.675781 " fill-opacity="1" fill-rule="nonzero"/><path fill="#ffffff" d="M 137.902344 47.675781 L 135.292969 47.675781 C 135.292969 49.703125 134.476562 51.511719 133.152344 52.839844 C 131.824219 54.164062 130.015625 54.976562 127.988281 54.980469 L 70.605469 54.980469 C 68.578125 54.976562 66.769531 54.164062 65.441406 52.839844 C 64.117188 51.511719 63.300781 49.703125 63.300781 47.675781 C 63.300781 45.652344 64.117188 43.84375 65.441406 42.511719 C 66.769531 41.183594 68.578125 40.375 70.605469 40.375 L 127.988281 40.375 C 130.015625 40.375 131.824219 41.183594 133.152344 42.511719 C 134.476562 43.84375 135.292969 45.652344 135.292969 47.675781 L 140.511719 47.675781 C 140.511719 40.761719 134.90625 35.15625 127.988281 35.15625 L 70.605469 35.15625 C 63.6875 35.15625 58.082031 40.761719 58.082031 47.675781 C 58.082031 54.59375 63.6875 60.195312 70.605469 60.199219 L 127.988281 60.199219 C 134.90625 60.195312 140.511719 54.59375 140.511719 47.675781 L 137.902344 47.675781 " fill-opacity="1" fill-rule="nonzero"/></g></g></g><g clip-path="url(#2be1b4fec1)"><path fill="#7a1a1e" d="M 119.269531 150.382812 L 255.035156 150.382812 L 255.035156 321.152344 L 119.269531 321.152344 Z M 119.269531 150.382812 " fill-opacity="1" fill-rule="nonzero"/></g><g fill="#f7a967" fill-opacity="1"><g transform="translate(124.256248, 247.400139)"><g><path d="M 12.53125 0 C 10.570312 0 8.992188 -0.28125 7.796875 -0.84375 C 6.609375 -1.40625 5.617188 -2.3125 4.828125 -3.5625 C 4.546875 -4.03125 4.332031 -4.472656 4.1875 -4.890625 C 4.050781 -5.316406 3.9375 -5.832031 3.84375 -6.4375 C 3.75 -7.039062 3.691406 -7.796875 3.671875 -8.703125 C 3.648438 -9.617188 3.640625 -10.820312 3.640625 -12.3125 L 3.640625 -37.453125 C 3.640625 -39.085938 3.734375 -40.347656 3.921875 -41.234375 C 4.109375 -42.117188 4.484375 -42.957031 5.046875 -43.75 C 5.691406 -44.78125 6.570312 -45.585938 7.6875 -46.171875 C 8.8125 -46.753906 10.03125 -47.046875 11.34375 -47.046875 C 12.695312 -47.046875 13.96875 -46.707031 15.15625 -46.03125 C 16.34375 -45.351562 17.265625 -44.429688 17.921875 -43.265625 C 18.335938 -42.515625 18.628906 -41.726562 18.796875 -40.90625 C 18.960938 -40.09375 19.046875 -38.941406 19.046875 -37.453125 L 19.046875 -14.421875 L 26.453125 -14.421875 C 27.804688 -14.421875 28.90625 -14.316406 29.75 -14.109375 C 30.59375 -13.898438 31.363281 -13.535156 32.0625 -13.015625 C 32.988281 -12.367188 33.707031 -11.53125 34.21875 -10.5 C 34.738281 -9.46875 35 -8.394531 35 -7.28125 C 35 -6.25 34.785156 -5.234375 34.359375 -4.234375 C 33.941406 -3.234375 33.363281 -2.40625 32.625 -1.75 C 31.914062 -1.09375 31.128906 -0.632812 30.265625 -0.375 C 29.410156 -0.125 28.304688 0 26.953125 0 Z M 26.59375 -2.65625 C 27.570312 -2.65625 28.304688 -2.703125 28.796875 -2.796875 C 29.296875 -2.890625 29.726562 -3.054688 30.09375 -3.296875 C 30.894531 -3.804688 31.296875 -4.363281 31.296875 -4.96875 C 31.296875 -5.289062 31.1875 -5.566406 30.96875 -5.796875 C 30.757812 -6.035156 30.492188 -6.15625 30.171875 -6.15625 C 29.929688 -6.15625 29.554688 -5.992188 29.046875 -5.671875 C 28.628906 -5.390625 28.242188 -5.210938 27.890625 -5.140625 C 27.546875 -5.078125 26.929688 -5.046875 26.046875 -5.046875 L 16.796875 -5.046875 L 16.03125 -5.109375 C 15.09375 -5.015625 14.625 -4.617188 14.625 -3.921875 C 14.625 -3.410156 14.765625 -3.070312 15.046875 -2.90625 C 15.328125 -2.738281 15.910156 -2.65625 16.796875 -2.65625 Z M 8.609375 -43.265625 C 8.191406 -43.265625 7.851562 -43.109375 7.59375 -42.796875 C 7.332031 -42.492188 7.203125 -42.160156 7.203125 -41.796875 C 7.203125 -41.421875 7.34375 -41.09375 7.625 -40.8125 C 7.90625 -40.53125 8.234375 -40.390625 8.609375 -40.390625 C 8.984375 -40.390625 9.3125 -40.53125 9.59375 -40.8125 C 9.875 -41.09375 10.015625 -41.421875 10.015625 -41.796875 C 10.015625 -42.160156 9.875 -42.492188 9.59375 -42.796875 C 9.3125 -43.109375 8.984375 -43.265625 8.609375 -43.265625 Z M 8.6875 -9.171875 L 8.6875 -37.453125 C 8.6875 -38.335938 8.613281 -38.921875 8.46875 -39.203125 C 8.332031 -39.484375 8.003906 -39.625 7.484375 -39.625 C 6.972656 -39.625 6.632812 -39.46875 6.46875 -39.15625 C 6.3125 -38.851562 6.234375 -38.285156 6.234375 -37.453125 L 6.234375 -9.234375 C 6.234375 -7.460938 6.328125 -6.273438 6.515625 -5.671875 C 6.703125 -5.066406 7.117188 -4.765625 7.765625 -4.765625 C 8.554688 -4.765625 8.953125 -5.132812 8.953125 -5.875 C 8.953125 -5.96875 8.941406 -6.0625 8.921875 -6.15625 C 8.898438 -6.25 8.890625 -6.367188 8.890625 -6.515625 C 8.796875 -6.835938 8.738281 -7.113281 8.71875 -7.34375 C 8.695312 -7.582031 8.6875 -7.957031 8.6875 -8.46875 Z M 8.6875 -9.171875 "/></g></g></g><g fill="#f7a967" fill-opacity="1"><g transform="translate(160.584267, 247.400139)"><g><path d="M 26.953125 -47.953125 C 30.359375 -47.953125 33.550781 -47.304688 36.53125 -46.015625 C 39.519531 -44.734375 42.125 -42.972656 44.34375 -40.734375 C 46.5625 -38.492188 48.3125 -35.878906 49.59375 -32.890625 C 50.875 -29.910156 51.515625 -26.71875 51.515625 -23.3125 C 51.515625 -19.90625 50.875 -16.707031 49.59375 -13.71875 C 48.3125 -10.726562 46.5625 -8.125 44.34375 -5.90625 C 42.125 -3.695312 39.519531 -1.945312 36.53125 -0.65625 C 33.550781 0.625 30.359375 1.265625 26.953125 1.265625 C 23.546875 1.265625 20.347656 0.625 17.359375 -0.65625 C 14.367188 -1.945312 11.753906 -3.695312 9.515625 -5.90625 C 7.273438 -8.125 5.515625 -10.726562 4.234375 -13.71875 C 2.953125 -16.707031 2.3125 -19.90625 2.3125 -23.3125 C 2.3125 -26.71875 2.953125 -29.910156 4.234375 -32.890625 C 5.515625 -35.878906 7.273438 -38.492188 9.515625 -40.734375 C 11.753906 -42.972656 14.367188 -44.734375 17.359375 -46.015625 C 20.347656 -47.304688 23.546875 -47.953125 26.953125 -47.953125 Z M 26.953125 -32.484375 C 25.691406 -32.484375 24.5 -32.25 23.375 -31.78125 C 22.257812 -31.3125 21.289062 -30.65625 20.46875 -29.8125 C 19.65625 -28.976562 19.003906 -28 18.515625 -26.875 C 18.023438 -25.757812 17.78125 -24.570312 17.78125 -23.3125 C 17.78125 -22.050781 18.015625 -20.859375 18.484375 -19.734375 C 18.953125 -18.617188 19.601562 -17.648438 20.4375 -16.828125 C 21.28125 -16.015625 22.257812 -15.363281 23.375 -14.875 C 24.5 -14.382812 25.691406 -14.140625 26.953125 -14.140625 C 28.210938 -14.140625 29.398438 -14.382812 30.515625 -14.875 C 31.640625 -15.363281 32.609375 -16.015625 33.421875 -16.828125 C 34.242188 -17.648438 34.898438 -18.617188 35.390625 -19.734375 C 35.878906 -20.859375 36.125 -22.050781 36.125 -23.3125 C 36.125 -24.570312 35.878906 -25.757812 35.390625 -26.875 C 34.898438 -28 34.242188 -28.976562 33.421875 -29.8125 C 32.609375 -30.65625 31.640625 -31.3125 30.515625 -31.78125 C 29.398438 -32.25 28.210938 -32.484375 26.953125 -32.484375 Z M 7.5625 -23.453125 C 7.5625 -25.128906 7.828125 -26.863281 8.359375 -28.65625 C 8.898438 -30.457031 9.59375 -32.035156 10.4375 -33.390625 C 10.800781 -33.898438 11.019531 -34.25 11.09375 -34.4375 C 11.164062 -34.625 11.203125 -34.832031 11.203125 -35.0625 C 11.203125 -35.8125 10.851562 -36.1875 10.15625 -36.1875 C 9.632812 -36.1875 9.097656 -35.769531 8.546875 -34.9375 C 7.515625 -33.394531 6.695312 -31.5625 6.09375 -29.4375 C 5.488281 -27.3125 5.1875 -25.195312 5.1875 -23.09375 C 5.1875 -20.113281 5.753906 -17.300781 6.890625 -14.65625 C 8.035156 -12.019531 9.597656 -9.722656 11.578125 -7.765625 C 13.566406 -5.804688 15.898438 -4.265625 18.578125 -3.140625 C 21.265625 -2.023438 24.125 -1.46875 27.15625 -1.46875 C 28.789062 -1.46875 30.457031 -1.664062 32.15625 -2.0625 C 33.863281 -2.457031 35.394531 -3.03125 36.75 -3.78125 C 37.5 -4.15625 37.875 -4.625 37.875 -5.1875 C 37.875 -5.507812 37.78125 -5.785156 37.59375 -6.015625 C 37.40625 -6.253906 37.144531 -6.375 36.8125 -6.375 C 36.675781 -6.375 36.535156 -6.335938 36.390625 -6.265625 C 36.253906 -6.191406 35.929688 -6.039062 35.421875 -5.8125 C 32.617188 -4.5 29.816406 -3.84375 27.015625 -3.84375 C 24.304688 -3.84375 21.773438 -4.359375 19.421875 -5.390625 C 17.066406 -6.421875 15.015625 -7.820312 13.265625 -9.59375 C 11.515625 -11.363281 10.125 -13.4375 9.09375 -15.8125 C 8.070312 -18.195312 7.5625 -20.742188 7.5625 -23.453125 Z M 41.09375 -23.03125 C 41.09375 -25.082031 40.726562 -26.984375 40 -28.734375 C 39.28125 -30.484375 38.289062 -32 37.03125 -33.28125 C 35.769531 -34.5625 34.265625 -35.5625 32.515625 -36.28125 C 30.765625 -37.007812 28.882812 -37.375 26.875 -37.375 C 25.945312 -37.375 25.035156 -37.289062 24.140625 -37.125 C 23.253906 -36.96875 22.472656 -36.757812 21.796875 -36.5 C 21.128906 -36.25 20.59375 -35.957031 20.1875 -35.625 C 19.789062 -35.300781 19.59375 -34.953125 19.59375 -34.578125 C 19.59375 -33.785156 19.945312 -33.390625 20.65625 -33.390625 C 20.84375 -33.390625 21.191406 -33.503906 21.703125 -33.734375 C 23.378906 -34.578125 25.148438 -35 27.015625 -35 C 28.703125 -35 30.253906 -34.695312 31.671875 -34.09375 C 33.097656 -33.488281 34.332031 -32.632812 35.375 -31.53125 C 36.425781 -30.4375 37.242188 -29.15625 37.828125 -27.6875 C 38.410156 -26.21875 38.703125 -24.640625 38.703125 -22.953125 C 38.703125 -22.253906 38.644531 -21.601562 38.53125 -21 C 38.414062 -20.394531 38.195312 -19.671875 37.875 -18.828125 C 37.6875 -18.265625 37.59375 -17.914062 37.59375 -17.78125 C 37.59375 -17.5 37.695312 -17.253906 37.90625 -17.046875 C 38.113281 -16.835938 38.378906 -16.734375 38.703125 -16.734375 C 39.316406 -16.734375 39.785156 -17.128906 40.109375 -17.921875 C 40.429688 -18.617188 40.675781 -19.421875 40.84375 -20.328125 C 41.007812 -21.242188 41.09375 -22.144531 41.09375 -23.03125 Z M 12.53125 -39.265625 C 12.15625 -39.265625 11.816406 -39.125 11.515625 -38.84375 C 11.210938 -38.570312 11.0625 -38.25 11.0625 -37.875 C 11.0625 -37.445312 11.210938 -37.09375 11.515625 -36.8125 C 11.816406 -36.539062 12.15625 -36.40625 12.53125 -36.40625 C 12.90625 -36.40625 13.234375 -36.539062 13.515625 -36.8125 C 13.796875 -37.09375 13.9375 -37.445312 13.9375 -37.875 C 13.9375 -38.25 13.796875 -38.570312 13.515625 -38.84375 C 13.234375 -39.125 12.90625 -39.265625 12.53125 -39.265625 Z M 12.53125 -39.265625 "/></g></g></g><g fill="#f7a967" fill-opacity="1"><g transform="translate(214.411321, 247.400139)"><g><path d="M 12.53125 0 C 10.570312 0 8.992188 -0.28125 7.796875 -0.84375 C 6.609375 -1.40625 5.617188 -2.3125 4.828125 -3.5625 C 4.546875 -4.03125 4.332031 -4.472656 4.1875 -4.890625 C 4.050781 -5.316406 3.9375 -5.832031 3.84375 -6.4375 C 3.75 -7.039062 3.691406 -7.796875 3.671875 -8.703125 C 3.648438 -9.617188 3.640625 -10.820312 3.640625 -12.3125 L 3.640625 -37.453125 C 3.640625 -39.085938 3.734375 -40.347656 3.921875 -41.234375 C 4.109375 -42.117188 4.484375 -42.957031 5.046875 -43.75 C 5.691406 -44.78125 6.570312 -45.585938 7.6875 -46.171875 C 8.8125 -46.753906 10.03125 -47.046875 11.34375 -47.046875 C 12.695312 -47.046875 13.96875 -46.707031 15.15625 -46.03125 C 16.34375 -45.351562 17.265625 -44.429688 17.921875 -43.265625 C 18.335938 -42.515625 18.628906 -41.726562 18.796875 -40.90625 C 18.960938 -40.09375 19.046875 -38.941406 19.046875 -37.453125 L 19.046875 -14.421875 L 26.453125 -14.421875 C 27.804688 -14.421875 28.90625 -14.316406 29.75 -14.109375 C 30.59375 -13.898438 31.363281 -13.535156 32.0625 -13.015625 C 32.988281 -12.367188 33.707031 -11.53125 34.21875 -10.5 C 34.738281 -9.46875 35 -8.394531 35 -7.28125 C 35 -6.25 34.785156 -5.234375 34.359375 -4.234375 C 33.941406 -3.234375 33.363281 -2.40625 32.625 -1.75 C 31.914062 -1.09375 31.128906 -0.632812 30.265625 -0.375 C 29.410156 -0.125 28.304688 0 26.953125 0 Z M 26.59375 -2.65625 C 27.570312 -2.65625 28.304688 -2.703125 28.796875 -2.796875 C 29.296875 -2.890625 29.726562 -3.054688 30.09375 -3.296875 C 30.894531 -3.804688 31.296875 -4.363281 31.296875 -4.96875 C 31.296875 -5.289062 31.1875 -5.566406 30.96875 -5.796875 C 30.757812 -6.035156 30.492188 -6.15625 30.171875 -6.15625 C 29.929688 -6.15625 29.554688 -5.992188 29.046875 -5.671875 C 28.628906 -5.390625 28.242188 -5.210938 27.890625 -5.140625 C 27.546875 -5.078125 26.929688 -5.046875 26.046875 -5.046875 L 16.796875 -5.046875 L 16.03125 -5.109375 C 15.09375 -5.015625 14.625 -4.617188 14.625 -3.921875 C 14.625 -3.410156 14.765625 -3.070312 15.046875 -2.90625 C 15.328125 -2.738281 15.910156 -2.65625 16.796875 -2.65625 Z M 8.609375 -43.265625 C 8.191406 -43.265625 7.851562 -43.109375 7.59375 -42.796875 C 7.332031 -42.492188 7.203125 -42.160156 7.203125 -41.796875 C 7.203125 -41.421875 7.34375 -41.09375 7.625 -40.8125 C 7.90625 -40.53125 8.234375 -40.390625 8.609375 -40.390625 C 8.984375 -40.390625 9.3125 -40.53125 9.59375 -40.8125 C 9.875 -41.09375 10.015625 -41.421875 10.015625 -41.796875 C 10.015625 -42.160156 9.875 -42.492188 9.59375 -42.796875 C 9.3125 -43.109375 8.984375 -43.265625 8.609375 -43.265625 Z M 8.6875 -9.171875 L 8.6875 -37.453125 C 8.6875 -38.335938 8.613281 -38.921875 8.46875 -39.203125 C 8.332031 -39.484375 8.003906 -39.625 7.484375 -39.625 C 6.972656 -39.625 6.632812 -39.46875 6.46875 -39.15625 C 6.3125 -38.851562 6.234375 -38.285156 6.234375 -37.453125 L 6.234375 -9.234375 C 6.234375 -7.460938 6.328125 -6.273438 6.515625 -5.671875 C 6.703125 -5.066406 7.117188 -4.765625 7.765625 -4.765625 C 8.554688 -4.765625 8.953125 -5.132812 8.953125 -5.875 C 8.953125 -5.96875 8.941406 -6.0625 8.921875 -6.15625 C 8.898438 -6.25 8.890625 -6.367188 8.890625 -6.515625 C 8.796875 -6.835938 8.738281 -7.113281 8.71875 -7.34375 C 8.695312 -7.582031 8.6875 -7.957031 8.6875 -8.46875 Z M 8.6875 -9.171875 "/></g></g></g></svg>