<svg xmlns="http://www.w3.org/2000/svg" xmlns:xlink="http://www.w3.org/1999/xlink" width="500" zoomAndPan="magnify" viewBox="0 0 375 374.999991" height="500" preserveAspectRatio="xMidYMid meet" version="1.0"><defs><filter x="0%" y="0%" width="100%" height="100%" id="b73e1cf1b6"><feColorMatrix values="0 0 0 0 1 0 0 0 0 1 0 0 0 0 1 0 0 0 1 0" color-interpolation-filters="sRGB"/></filter><g/><clipPath id="bbfb5b7f27"><path d="M 0.121094 0 L 203.40625 0 L 203.40625 375 L 0.121094 375 Z M 0.121094 0 " clip-rule="nonzero"/></clipPath><clipPath id="b727b86a03"><path d="M 171.714844 0 L 375 0 L 375 375 L 171.714844 375 Z M 171.714844 0 " clip-rule="nonzero"/></clipPath><clipPath id="e2d5cd4ace"><path d="M 125.507812 0 L 248.988281 0 L 248.988281 375 L 125.507812 375 Z M 125.507812 0 " clip-rule="nonzero"/></clipPath><mask id="f6a3eaae50"><g filter="url(#b73e1cf1b6)"><rect x="-37.5" width="450" fill="#000000" y="-37.499999" height="449.999989" fill-opacity="0.5"/></g></mask><clipPath id="bc9e84918f"><path d="M 0.414062 0.695312 L 57.351562 0.695312 L 57.351562 54.882812 L 0.414062 54.882812 Z M 0.414062 0.695312 " clip-rule="nonzero"/></clipPath><clipPath id="94ccf4df97"><path d="M 28.839844 0.695312 L 35.550781 21.394531 L 57.265625 21.394531 L 39.699219 34.183594 L 46.410156 54.882812 L 28.839844 42.089844 L 11.273438 54.882812 L 17.980469 34.183594 L 0.414062 21.394531 L 22.128906 21.394531 Z M 28.839844 0.695312 " clip-rule="nonzero"/></clipPath><clipPath id="ad65b12c04"><rect x="0" width="58" y="0" height="55"/></clipPath><clipPath id="218d750c7c"><path d="M 159.132812 37.5 L 216 37.5 L 216 91.6875 L 159.132812 91.6875 Z M 159.132812 37.5 " clip-rule="nonzero"/></clipPath><clipPath id="ee8a0c4762"><path d="M 187.558594 37.5 L 194.269531 58.199219 L 215.984375 58.199219 L 198.417969 70.988281 L 205.128906 91.6875 L 187.558594 78.894531 L 169.992188 91.6875 L 176.703125 70.988281 L 159.132812 58.199219 L 180.847656 58.199219 Z M 187.558594 37.5 " clip-rule="nonzero"/></clipPath></defs><rect x="-37.5" width="450" fill="#ffffff" y="-37.499999" height="449.999989" fill-opacity="1"/><rect x="-37.5" width="450" fill="#ffffff" y="-37.499999" height="449.999989" fill-opacity="1"/><g clip-path="url(#bbfb5b7f27)"><path fill="#090df6" d="M 0.121094 0 L 203.40625 0 L 203.40625 374.808594 L 0.121094 374.808594 Z M 0.121094 0 " fill-opacity="1" fill-rule="nonzero"/></g><g clip-path="url(#b727b86a03)"><path fill="#fd0501" d="M 171.714844 0 L 375 0 L 375 374.808594 L 171.714844 374.808594 Z M 171.714844 0 " fill-opacity="1" fill-rule="nonzero"/></g><g clip-path="url(#e2d5cd4ace)"><path fill="#f2f4f2" d="M 125.507812 0 L 248.988281 0 L 248.988281 374.773438 L 125.507812 374.773438 Z M 125.507812 0 " fill-opacity="1" fill-rule="nonzero"/></g><g fill="#000000" fill-opacity="0.4"><g transform="translate(133.260392, 246.994049)"><g><path d="M 119.257812 -73.484375 L 114.875 -73.484375 C 114.875 -73.484375 112.066406 -54.542969 86.636719 -54.542969 L 65.242188 -54.542969 L 65.242188 -50.335938 L 80.851562 -50.335938 L 80.851562 -47.351562 C 80.851562 -28.234375 103.296875 -16.308594 93.828125 -10.699219 C 81.375 -3.332031 59.980469 -22.800781 44.371094 -48.054688 C 28.0625 -74.359375 22.976562 -100.667969 32.972656 -106.980469 C 50.683594 -118.207031 59.628906 -75.589844 85.761719 -75.589844 C 111.890625 -75.589844 117.152344 -99.792969 114.699219 -119.082031 L 110.664062 -119.082031 C 110.664062 -111.367188 108.910156 -106.457031 100.140625 -106.457031 C 91.546875 -106.457031 79.972656 -119.960938 62.609375 -119.960938 C 29.816406 -119.960938 3.15625 -92.953125 3.15625 -59.453125 C 3.15625 -25.957031 29.816406 1.226562 62.609375 1.226562 C 85.9375 1.226562 104.703125 -9.996094 119.257812 -26.65625 Z M 119.257812 -73.484375 "/></g></g></g><g fill="#000000" fill-opacity="1"><g transform="translate(125.509347, 239.243012)"><g><path d="M 119.257812 -73.484375 L 114.875 -73.484375 C 114.875 -73.484375 112.066406 -54.542969 86.636719 -54.542969 L 65.242188 -54.542969 L 65.242188 -50.335938 L 80.851562 -50.335938 L 80.851562 -47.351562 C 80.851562 -28.234375 103.296875 -16.308594 93.828125 -10.699219 C 81.375 -3.332031 59.980469 -22.800781 44.371094 -48.054688 C 28.0625 -74.359375 22.976562 -100.667969 32.972656 -106.980469 C 50.683594 -118.207031 59.628906 -75.589844 85.761719 -75.589844 C 111.890625 -75.589844 117.152344 -99.792969 114.699219 -119.082031 L 110.664062 -119.082031 C 110.664062 -111.367188 108.910156 -106.457031 100.140625 -106.457031 C 91.546875 -106.457031 79.972656 -119.960938 62.609375 -119.960938 C 29.816406 -119.960938 3.15625 -92.953125 3.15625 -59.453125 C 3.15625 -25.957031 29.816406 1.226562 62.609375 1.226562 C 85.9375 1.226562 104.703125 -9.996094 119.257812 -26.65625 Z M 119.257812 -73.484375 "/></g></g></g><g fill="#000000" fill-opacity="0.4"><g transform="translate(22.97852, 248.278839)"><g><path d="M 3.085938 -82.085938 C 3.085938 -59.464844 20.222656 -51.070312 43.699219 -44.214844 C 72.664062 -35.644531 88.941406 -21.9375 80.886719 -14.738281 C 66.492188 -2.054688 57.582031 -42.328125 32.046875 -42.328125 C 6.683594 -42.328125 1.371094 -18.679688 3.941406 0.171875 L 7.710938 0.171875 C 7.710938 -7.367188 9.425781 -12.167969 17.996094 -12.167969 C 26.5625 -12.167969 37.703125 1.199219 54.667969 1.199219 C 76.773438 1.199219 93.570312 -15.765625 93.570312 -34.960938 C 93.570312 -58.78125 63.578125 -69.0625 49.183594 -73.175781 C 20.222656 -81.230469 6.855469 -94.425781 15.082031 -101.28125 C 30.160156 -113.792969 35.988281 -73.863281 61.523438 -73.863281 C 87.058594 -73.863281 92.199219 -97.511719 89.800781 -116.363281 L 85.859375 -116.363281 C 85.859375 -108.820312 84.144531 -104.023438 75.574219 -104.023438 C 67.179688 -104.023438 58.265625 -117.21875 41.300781 -117.21875 C 19.535156 -117.21875 3.085938 -100.9375 3.085938 -82.085938 Z M 3.085938 -82.085938 "/></g></g></g><g fill="#000000" fill-opacity="1"><g transform="translate(15.404747, 240.70507)"><g><path d="M 3.085938 -82.085938 C 3.085938 -59.464844 20.222656 -51.070312 43.699219 -44.214844 C 72.664062 -35.644531 88.941406 -21.9375 80.886719 -14.738281 C 66.492188 -2.054688 57.582031 -42.328125 32.046875 -42.328125 C 6.683594 -42.328125 1.371094 -18.679688 3.941406 0.171875 L 7.710938 0.171875 C 7.710938 -7.367188 9.425781 -12.167969 17.996094 -12.167969 C 26.5625 -12.167969 37.703125 1.199219 54.667969 1.199219 C 76.773438 1.199219 93.570312 -15.765625 93.570312 -34.960938 C 93.570312 -58.78125 63.578125 -69.0625 49.183594 -73.175781 C 20.222656 -81.230469 6.855469 -94.425781 15.082031 -101.28125 C 30.160156 -113.792969 35.988281 -73.863281 61.523438 -73.863281 C 87.058594 -73.863281 92.199219 -97.511719 89.800781 -116.363281 L 85.859375 -116.363281 C 85.859375 -108.820312 84.144531 -104.023438 75.574219 -104.023438 C 67.179688 -104.023438 58.265625 -117.21875 41.300781 -117.21875 C 19.535156 -117.21875 3.085938 -100.9375 3.085938 -82.085938 Z M 3.085938 -82.085938 "/></g></g></g><g fill="#000000" fill-opacity="0.4"><g transform="translate(294.39684, 250.305465)"><g><path d="M 43.121094 0 L 43.121094 -120.8125 L 4.097656 -120.8125 L 4.097656 0 Z M 43.121094 0 "/></g></g></g><g fill="#000000" fill-opacity="1"><g transform="translate(286.521607, 242.43023)"><g><path d="M 43.121094 0 L 43.121094 -120.8125 L 4.097656 -120.8125 L 4.097656 0 Z M 43.121094 0 "/></g></g></g><g fill="#000000" fill-opacity="0.4"><g transform="translate(231.914975, 243.65963)"><g><path d="M 1.226562 -8.070312 C 1.226562 -3.027344 4.972656 0.503906 10.519531 0.503906 C 15.996094 0.503906 19.742188 -3.027344 19.742188 -8.070312 C 19.742188 -13.113281 15.996094 -16.644531 10.519531 -16.644531 C 4.972656 -16.644531 1.226562 -13.113281 1.226562 -8.070312 Z M 1.226562 -8.070312 "/></g></g></g><g fill="#000000" fill-opacity="1"><g transform="translate(228.730785, 240.47544)"><g><path d="M 1.226562 -8.070312 C 1.226562 -3.027344 4.972656 0.503906 10.519531 0.503906 C 15.996094 0.503906 19.742188 -3.027344 19.742188 -8.070312 C 19.742188 -13.113281 15.996094 -16.644531 10.519531 -16.644531 C 4.972656 -16.644531 1.226562 -13.113281 1.226562 -8.070312 Z M 1.226562 -8.070312 "/></g></g></g><g fill="#000000" fill-opacity="0.4"><g transform="translate(336.70841, 243.65963)"><g><path d="M 1.226562 -8.070312 C 1.226562 -3.027344 4.972656 0.503906 10.519531 0.503906 C 15.996094 0.503906 19.742188 -3.027344 19.742188 -8.070312 C 19.742188 -13.113281 15.996094 -16.644531 10.519531 -16.644531 C 4.972656 -16.644531 1.226562 -13.113281 1.226562 -8.070312 Z M 1.226562 -8.070312 "/></g></g></g><g fill="#000000" fill-opacity="1"><g transform="translate(333.524222, 240.47544)"><g><path d="M 1.226562 -8.070312 C 1.226562 -3.027344 4.972656 0.503906 10.519531 0.503906 C 15.996094 0.503906 19.742188 -3.027344 19.742188 -8.070312 C 19.742188 -13.113281 15.996094 -16.644531 10.519531 -16.644531 C 4.972656 -16.644531 1.226562 -13.113281 1.226562 -8.070312 Z M 1.226562 -8.070312 "/></g></g></g><g fill="#000000" fill-opacity="0.4"><g transform="translate(104.729894, 243.65963)"><g><path d="M 1.226562 -8.070312 C 1.226562 -3.027344 4.972656 0.503906 10.519531 0.503906 C 15.996094 0.503906 19.742188 -3.027344 19.742188 -8.070312 C 19.742188 -13.113281 15.996094 -16.644531 10.519531 -16.644531 C 4.972656 -16.644531 1.226562 -13.113281 1.226562 -8.070312 Z M 1.226562 -8.070312 "/></g></g></g><g fill="#000000" fill-opacity="1"><g transform="translate(101.545699, 240.47544)"><g><path d="M 1.226562 -8.070312 C 1.226562 -3.027344 4.972656 0.503906 10.519531 0.503906 C 15.996094 0.503906 19.742188 -3.027344 19.742188 -8.070312 C 19.742188 -13.113281 15.996094 -16.644531 10.519531 -16.644531 C 4.972656 -16.644531 1.226562 -13.113281 1.226562 -8.070312 Z M 1.226562 -8.070312 "/></g></g></g><g mask="url(#f6a3eaae50)"><g transform="matrix(1, 0, 0, 1, 164, 41)"><g clip-path="url(#ad65b12c04)"><g clip-path="url(#bc9e84918f)"><g clip-path="url(#94ccf4df97)"><path fill="#000000" d="M 0.414062 0.695312 L 57.351562 0.695312 L 57.351562 54.882812 L 0.414062 54.882812 Z M 0.414062 0.695312 " fill-opacity="1" fill-rule="nonzero"/></g></g></g></g></g><g clip-path="url(#218d750c7c)"><g clip-path="url(#ee8a0c4762)"><path fill="#000000" d="M 159.132812 37.5 L 216.074219 37.5 L 216.074219 91.6875 L 159.132812 91.6875 Z M 159.132812 37.5 " fill-opacity="1" fill-rule="nonzero"/></g></g></svg>