<svg xmlns="http://www.w3.org/2000/svg" xmlns:xlink="http://www.w3.org/1999/xlink" width="500" zoomAndPan="magnify" viewBox="0 0 375 374.999991" height="500" preserveAspectRatio="xMidYMid meet" version="1.0"><defs><g/><clipPath id="ef2c0a6dc7"><path d="M 48 26.34375 L 326 26.34375 L 326 282.84375 L 48 282.84375 Z M 48 26.34375 " clip-rule="nonzero"/></clipPath></defs><rect x="-37.5" width="450" fill="#ffffff" y="-37.499999" height="449.999989" fill-opacity="1"/><rect x="-37.5" width="450" fill="#bd212c" y="-37.499999" height="449.999989" fill-opacity="1"/><rect x="-37.5" width="450" fill="#bd212c" y="-37.499999" height="449.999989" fill-opacity="1"/><g fill="#ffffff" fill-opacity="1"><g transform="translate(3.000004, 329.301866)"><g><path d="M 15.5 -20.6875 L 15.5 0 L 3.75 0 L 3.75 -51.578125 L 15.5 -51.578125 L 15.5 -31 L 32.140625 -31 L 32.140625 -51.578125 L 43.890625 -51.578125 L 43.890625 0 L 32.140625 0 L 32.140625 -20.6875 Z M 15.5 -20.6875 "/></g></g></g><g fill="#ffffff" fill-opacity="1"><g transform="translate(47.50833, 329.301866)"><g><path d="M 6.78125 -3.8125 C 3.21875 -6.976562 1.4375 -11.039062 1.4375 -16 C 1.4375 -20.957031 3.289062 -25.03125 7 -28.21875 C 10.707031 -31.414062 15.289062 -33.015625 20.75 -33.015625 C 26.125 -33.015625 30.65625 -31.40625 34.34375 -28.1875 C 38.039062 -24.976562 39.890625 -20.914062 39.890625 -16 C 39.890625 -11.082031 38.082031 -7.03125 34.46875 -3.84375 C 30.863281 -0.65625 26.289062 0.9375 20.75 0.9375 C 15 0.9375 10.34375 -0.644531 6.78125 -3.8125 Z M 15.34375 -21.4375 C 13.90625 -20.019531 13.1875 -18.207031 13.1875 -16 C 13.1875 -13.789062 13.875 -11.988281 15.25 -10.59375 C 16.625 -9.195312 18.4375 -8.5 20.6875 -8.5 C 22.851562 -8.5 24.632812 -9.207031 26.03125 -10.625 C 27.425781 -12.039062 28.125 -13.832031 28.125 -16 C 28.125 -18.207031 27.40625 -20.019531 25.96875 -21.4375 C 24.53125 -22.851562 22.769531 -23.5625 20.6875 -23.5625 C 18.5625 -23.5625 16.78125 -22.851562 15.34375 -21.4375 Z M 15.34375 -21.4375 "/></g></g></g><g fill="#ffffff" fill-opacity="1"><g transform="translate(85.702973, 329.301866)"><g><path d="M 17.6875 -33.015625 C 19.519531 -33.015625 21.332031 -32.804688 23.125 -32.390625 C 24.914062 -31.972656 26.25 -31.554688 27.125 -31.140625 L 28.4375 -30.5 L 24.8125 -23.25 C 22.3125 -24.582031 19.9375 -25.25 17.6875 -25.25 C 16.4375 -25.25 15.550781 -25.113281 15.03125 -24.84375 C 14.507812 -24.570312 14.25 -24.0625 14.25 -23.3125 C 14.25 -23.144531 14.269531 -22.976562 14.3125 -22.8125 C 14.351562 -22.644531 14.4375 -22.488281 14.5625 -22.34375 C 14.6875 -22.195312 14.800781 -22.070312 14.90625 -21.96875 C 15.007812 -21.863281 15.1875 -21.75 15.4375 -21.625 C 15.6875 -21.5 15.882812 -21.40625 16.03125 -21.34375 C 16.175781 -21.28125 16.414062 -21.1875 16.75 -21.0625 C 17.082031 -20.9375 17.332031 -20.84375 17.5 -20.78125 C 17.664062 -20.71875 17.945312 -20.625 18.34375 -20.5 C 18.738281 -20.375 19.039062 -20.289062 19.25 -20.25 C 20.539062 -19.875 21.664062 -19.457031 22.625 -19 C 23.582031 -18.539062 24.59375 -17.914062 25.65625 -17.125 C 26.71875 -16.332031 27.539062 -15.332031 28.125 -14.125 C 28.707031 -12.914062 29 -11.539062 29 -10 C 29 -2.707031 23.9375 0.9375 13.8125 0.9375 C 11.519531 0.9375 9.34375 0.582031 7.28125 -0.125 C 5.21875 -0.832031 3.726562 -1.539062 2.8125 -2.25 L 1.4375 -3.375 L 5.9375 -10.9375 C 6.269531 -10.644531 6.707031 -10.300781 7.25 -9.90625 C 7.789062 -9.507812 8.769531 -8.96875 10.1875 -8.28125 C 11.601562 -7.59375 12.832031 -7.25 13.875 -7.25 C 16.164062 -7.25 17.3125 -8.019531 17.3125 -9.5625 C 17.3125 -10.269531 17.019531 -10.820312 16.4375 -11.21875 C 15.851562 -11.613281 14.863281 -12.0625 13.46875 -12.5625 C 12.070312 -13.0625 10.976562 -13.519531 10.1875 -13.9375 C 8.1875 -14.976562 6.601562 -16.15625 5.4375 -17.46875 C 4.269531 -18.78125 3.6875 -20.519531 3.6875 -22.6875 C 3.6875 -25.9375 4.945312 -28.46875 7.46875 -30.28125 C 9.988281 -32.101562 13.394531 -33.015625 17.6875 -33.015625 Z M 17.6875 -33.015625 "/></g></g></g><g fill="#ffffff" fill-opacity="1"><g transform="translate(113.333141, 329.301866)"><g><path d="M 36.765625 -28.09375 C 39.765625 -24.820312 41.265625 -20.8125 41.265625 -16.0625 C 41.265625 -11.3125 39.765625 -7.289062 36.765625 -4 C 33.765625 -0.707031 29.945312 0.9375 25.3125 0.9375 C 21.0625 0.9375 17.5625 -0.394531 14.8125 -3.0625 L 14.8125 16.25 L 3.75 16.25 L 3.75 -32.078125 L 14.6875 -32.078125 L 14.6875 -28.4375 L 14.8125 -28.4375 C 17.5625 -31.488281 21.0625 -33.015625 25.3125 -33.015625 C 29.945312 -33.015625 33.765625 -31.375 36.765625 -28.09375 Z M 27.34375 -10.625 C 28.78125 -12.039062 29.5 -13.851562 29.5 -16.0625 C 29.5 -18.269531 28.8125 -20.070312 27.4375 -21.46875 C 26.0625 -22.863281 24.25 -23.5625 22 -23.5625 C 19.832031 -23.5625 18.050781 -22.851562 16.65625 -21.4375 C 15.257812 -20.019531 14.5625 -18.226562 14.5625 -16.0625 C 14.5625 -13.851562 15.28125 -12.039062 16.71875 -10.625 C 18.15625 -9.207031 19.914062 -8.5 22 -8.5 C 24.125 -8.5 25.90625 -9.207031 27.34375 -10.625 Z M 27.34375 -10.625 "/></g></g></g><g fill="#ffffff" fill-opacity="1"><g transform="translate(152.90304, 329.301866)"><g><path d="M 4.8125 -49.953125 C 6.101562 -51.242188 7.644531 -51.890625 9.4375 -51.890625 C 11.226562 -51.890625 12.769531 -51.242188 14.0625 -49.953125 C 15.351562 -48.660156 16 -47.117188 16 -45.328125 C 16 -43.535156 15.351562 -41.992188 14.0625 -40.703125 C 12.769531 -39.410156 11.226562 -38.765625 9.4375 -38.765625 C 7.644531 -38.765625 6.101562 -39.410156 4.8125 -40.703125 C 3.519531 -41.992188 2.875 -43.535156 2.875 -45.328125 C 2.875 -47.117188 3.519531 -48.660156 4.8125 -49.953125 Z M 3.75 -32.078125 L 3.75 0 L 14.8125 0 L 14.8125 -32.078125 Z M 3.75 -32.078125 "/></g></g></g><g fill="#ffffff" fill-opacity="1"><g transform="translate(168.655987, 329.301866)"><g><path d="M 5.625 -32.078125 L 5.625 -44.015625 L 16.6875 -44.015625 L 16.6875 -32.078125 L 23.4375 -32.078125 L 23.4375 -23.625 L 16.6875 -23.625 L 16.6875 -13.4375 C 16.6875 -10.476562 17.519531 -9 19.1875 -9 C 19.601562 -9 20.039062 -9.082031 20.5 -9.25 C 20.957031 -9.414062 21.3125 -9.582031 21.5625 -9.75 L 21.9375 -10 L 24.6875 -1.0625 C 22.3125 0.269531 19.601562 0.9375 16.5625 0.9375 C 14.476562 0.9375 12.6875 0.570312 11.1875 -0.15625 C 9.6875 -0.882812 8.550781 -1.863281 7.78125 -3.09375 C 7.007812 -4.320312 6.457031 -5.613281 6.125 -6.96875 C 5.789062 -8.320312 5.625 -9.769531 5.625 -11.3125 L 5.625 -23.625 L 1 -23.625 L 1 -32.078125 Z M 5.625 -32.078125 "/></g></g></g><g fill="#ffffff" fill-opacity="1"><g transform="translate(190.222524, 329.301866)"><g><path d="M 5.9375 -3.96875 C 2.9375 -7.238281 1.4375 -11.25 1.4375 -16 C 1.4375 -20.75 2.9375 -24.769531 5.9375 -28.0625 C 8.9375 -31.363281 12.75 -33.015625 17.375 -33.015625 C 21.625 -33.015625 25.125 -31.675781 27.875 -29 L 27.875 -32.078125 L 38.953125 -32.078125 L 38.953125 0 L 28 0 L 28 -3.625 L 27.875 -3.625 C 25.125 -0.582031 21.625 0.9375 17.375 0.9375 C 12.75 0.9375 8.9375 -0.695312 5.9375 -3.96875 Z M 15.34375 -21.4375 C 13.90625 -20.019531 13.1875 -18.207031 13.1875 -16 C 13.1875 -13.789062 13.875 -11.988281 15.25 -10.59375 C 16.625 -9.195312 18.4375 -8.5 20.6875 -8.5 C 22.851562 -8.5 24.632812 -9.207031 26.03125 -10.625 C 27.425781 -12.039062 28.125 -13.832031 28.125 -16 C 28.125 -18.207031 27.40625 -20.019531 25.96875 -21.4375 C 24.53125 -22.851562 22.769531 -23.5625 20.6875 -23.5625 C 18.5625 -23.5625 16.78125 -22.851562 15.34375 -21.4375 Z M 15.34375 -21.4375 "/></g></g></g><g fill="#ffffff" fill-opacity="1"><g transform="translate(229.792417, 329.301866)"><g><path d="M 3.75 0 L 3.75 -53.765625 L 14.8125 -53.765625 L 14.8125 0 Z M 3.75 0 "/></g></g></g><g fill="#ffffff" fill-opacity="1"><g transform="translate(245.2328, 329.301866)"><g><path d="M 4.8125 -49.953125 C 6.101562 -51.242188 7.644531 -51.890625 9.4375 -51.890625 C 11.226562 -51.890625 12.769531 -51.242188 14.0625 -49.953125 C 15.351562 -48.660156 16 -47.117188 16 -45.328125 C 16 -43.535156 15.351562 -41.992188 14.0625 -40.703125 C 12.769531 -39.410156 11.226562 -38.765625 9.4375 -38.765625 C 7.644531 -38.765625 6.101562 -39.410156 4.8125 -40.703125 C 3.519531 -41.992188 2.875 -43.535156 2.875 -45.328125 C 2.875 -47.117188 3.519531 -48.660156 4.8125 -49.953125 Z M 3.75 -32.078125 L 3.75 0 L 14.8125 0 L 14.8125 -32.078125 Z M 3.75 -32.078125 "/></g></g></g><g fill="#ffffff" fill-opacity="1"><g transform="translate(260.985746, 329.301866)"><g><path d="M 34.765625 -32.078125 L 18.875 -8.4375 L 33.515625 -8.4375 L 33.515625 0 L 0.3125 0 L 16.1875 -23.625 L 2.9375 -23.625 L 2.9375 -32.078125 Z M 34.765625 -32.078125 "/></g></g></g><g fill="#ffffff" fill-opacity="1"><g transform="translate(292.929212, 329.301866)"><g><path d="M 36.203125 -14.5 L 12.9375 -14.5 C 12.9375 -12.25 13.664062 -10.582031 15.125 -9.5 C 16.582031 -8.414062 18.164062 -7.875 19.875 -7.875 C 21.664062 -7.875 23.082031 -8.113281 24.125 -8.59375 C 25.164062 -9.070312 26.351562 -10.019531 27.6875 -11.4375 L 35.703125 -7.4375 C 32.359375 -1.851562 26.8125 0.9375 19.0625 0.9375 C 14.226562 0.9375 10.082031 -0.71875 6.625 -4.03125 C 3.164062 -7.34375 1.4375 -11.332031 1.4375 -16 C 1.4375 -20.664062 3.164062 -24.664062 6.625 -28 C 10.082031 -31.34375 14.226562 -33.015625 19.0625 -33.015625 C 24.144531 -33.015625 28.28125 -31.539062 31.46875 -28.59375 C 34.664062 -25.65625 36.265625 -21.457031 36.265625 -16 C 36.265625 -15.25 36.242188 -14.75 36.203125 -14.5 Z M 13.25 -20.625 L 25.4375 -20.625 C 25.1875 -22.289062 24.53125 -23.570312 23.46875 -24.46875 C 22.40625 -25.363281 21.039062 -25.8125 19.375 -25.8125 C 17.539062 -25.8125 16.082031 -25.332031 15 -24.375 C 13.914062 -23.414062 13.332031 -22.164062 13.25 -20.625 Z M 13.25 -20.625 "/></g></g></g><g fill="#ffffff" fill-opacity="1"><g transform="translate(327.498168, 329.301866)"><g><path d="M 5.9375 -3.96875 C 2.9375 -7.238281 1.4375 -11.25 1.4375 -16 C 1.4375 -20.75 2.9375 -24.769531 5.9375 -28.0625 C 8.9375 -31.363281 12.75 -33.015625 17.375 -33.015625 C 21.625 -33.015625 25.125 -31.675781 27.875 -29 L 27.875 -53.765625 L 38.953125 -53.765625 L 38.953125 0 L 28 0 L 28 -3.625 L 27.875 -3.625 C 25.125 -0.582031 21.625 0.9375 17.375 0.9375 C 12.75 0.9375 8.9375 -0.695312 5.9375 -3.96875 Z M 15.34375 -21.4375 C 13.90625 -20.019531 13.1875 -18.207031 13.1875 -16 C 13.1875 -13.789062 13.875 -11.988281 15.25 -10.59375 C 16.625 -9.195312 18.4375 -8.5 20.6875 -8.5 C 22.851562 -8.5 24.632812 -9.207031 26.03125 -10.625 C 27.425781 -12.039062 28.125 -13.832031 28.125 -16 C 28.125 -18.207031 27.40625 -20.019531 25.96875 -21.4375 C 24.53125 -22.851562 22.769531 -23.5625 20.6875 -23.5625 C 18.5625 -23.5625 16.78125 -22.851562 15.34375 -21.4375 Z M 15.34375 -21.4375 "/></g></g></g><path stroke-linecap="butt" transform="matrix(0.75, 0, 0, 0.75, 7.27011, 338.548221)" fill="none" stroke-linejoin="miter" d="M 1.499229 1.498205 L 465.718009 1.498205 " stroke="#ffffff" stroke-width="3" stroke-opacity="1" stroke-miterlimit="4"/><path stroke-linecap="round" transform="matrix(0.75, 0, 0, 0.75, 7.27011, 338.548221)" fill="none" stroke-linejoin="round" d="M 7.499229 -3.001795 L 1.499229 1.498205 L 7.499229 5.998206 " stroke="#ffffff" stroke-width="3" stroke-opacity="1" stroke-miterlimit="4"/><path stroke-linecap="round" transform="matrix(0.75, 0, 0, 0.75, 7.27011, 338.548221)" fill="none" stroke-linejoin="round" d="M 459.718009 -3.001795 L 465.718009 1.498205 L 459.718009 5.998206 " stroke="#ffffff" stroke-width="3" stroke-opacity="1" stroke-miterlimit="4"/><path fill="#dc1c4b" d="M 186.847656 279.136719 C 180.484375 274.703125 174.316406 270.214844 168.347656 265.695312 C 81.683594 200.011719 37.503906 126.324219 56.476562 78.820312 C 64.359375 59.082031 88.542969 30.347656 121.582031 30.175781 C 147.523438 30.042969 172.375 47.546875 186.847656 74.621094 C 195 59.371094 206.449219 47.15625 219.527344 39.421875 C 229.664062 33.425781 240.789062 30.117188 252.117188 30.175781 C 285.15625 30.347656 309.339844 59.082031 317.21875 78.820312 C 337.503906 129.597656 285.632812 210.28125 186.847656 279.136719 Z M 186.847656 279.136719 " fill-opacity="1" fill-rule="nonzero"/><path fill="#ffffff" d="M 114.175781 117.738281 C 114.765625 125.429688 115.410156 132.492188 115.386719 138.511719 C 115.324219 144.46875 114.59375 149.382812 111.417969 151.375 C 108.382812 153.304688 103.039062 151.699219 97.972656 146.101562 C 92.949219 140.617188 88.195312 131.136719 87.394531 119.882812 C 86.394531 108.648438 89.578125 98.535156 93.664062 92.316406 C 97.777344 85.984375 102.792969 83.550781 106.097656 84.972656 C 109.550781 86.429688 111.054688 91.167969 112.066406 97.039062 C 113.046875 102.980469 113.535156 110.050781 114.175781 117.738281 Z M 114.175781 117.738281 " fill-opacity="0.5" fill-rule="nonzero"/><path fill="#ffffff" d="M 177.554688 265.695312 C 182.074219 269.117188 186.707031 272.519531 191.449219 275.894531 C 189.925781 276.980469 188.394531 278.058594 186.847656 279.136719 C 180.484375 274.703125 174.316406 270.214844 168.347656 265.695312 C 81.683594 200.011719 37.503906 126.324219 56.476562 78.820312 C 64.359375 59.082031 88.542969 30.347656 121.582031 30.175781 C 123.226562 30.167969 124.863281 30.230469 126.492188 30.363281 C 95.65625 32.851562 73.21875 59.945312 65.683594 78.820312 C 46.710938 126.324219 90.890625 200.011719 177.554688 265.695312 Z M 177.554688 265.695312 " fill-opacity="0.8" fill-rule="nonzero"/><path fill="#2f1b12" d="M 321.425781 107.183594 C 318.457031 156.757812 268.792969 222.015625 186.847656 279.136719 C 180.484375 274.703125 174.316406 270.214844 168.347656 265.695312 C 176.640625 260.097656 187.921875 251.945312 200.445312 241.101562 C 212.613281 230.5625 231.949219 213.8125 246.804688 191.855469 C 260.480469 171.636719 286.089844 133.777344 273.585938 94.25 C 265.144531 67.566406 243.03125 51.824219 228.792969 44.015625 C 236.285156 40.964844 244.148438 39.339844 252.117188 39.382812 C 285.15625 39.550781 309.339844 68.285156 317.21875 88.027344 C 319.613281 94.015625 321.003906 100.425781 321.425781 107.183594 Z M 321.425781 107.183594 " fill-opacity="0.3" fill-rule="nonzero"/><g clip-path="url(#ef2c0a6dc7)"><path fill="#2f1b12" d="M 186.847656 282.820312 C 186.113281 282.820312 185.375 282.601562 184.742188 282.160156 C 160.308594 265.128906 138.316406 247.09375 119.378906 228.5625 C 100.859375 210.441406 85.566406 192.152344 73.925781 174.203125 C 62.222656 156.160156 54.445312 138.824219 50.808594 122.667969 C 47.027344 105.871094 47.78125 90.660156 53.058594 77.453125 C 57.710938 65.800781 66.730469 53.4375 77.183594 44.375 C 90.589844 32.757812 105.9375 26.574219 121.5625 26.492188 C 121.667969 26.492188 121.773438 26.492188 121.875 26.492188 C 146.859375 26.492188 171.253906 41.921875 186.847656 67.230469 C 202.511719 41.820312 227.039062 26.359375 252.132812 26.492188 C 267.761719 26.574219 283.105469 32.757812 296.515625 44.375 C 306.96875 53.4375 315.988281 65.800781 320.640625 77.453125 C 325.914062 90.660156 326.671875 105.871094 322.890625 122.667969 C 319.25 138.824219 311.472656 156.160156 299.773438 174.203125 C 288.132812 192.152344 272.839844 210.441406 254.320312 228.5625 C 235.378906 247.09375 213.386719 265.128906 188.953125 282.160156 C 188.324219 282.601562 187.585938 282.820312 186.847656 282.820312 Z M 121.878906 33.859375 C 121.785156 33.859375 121.695312 33.859375 121.601562 33.859375 C 90.0625 34.019531 67.015625 62.359375 59.898438 80.183594 C 50.378906 104.011719 57.367188 135.136719 80.105469 170.195312 C 103.027344 205.542969 139.910156 241.621094 186.847656 274.640625 C 233.789062 241.621094 270.671875 205.542969 293.59375 170.195312 C 316.332031 135.136719 323.316406 104.011719 313.800781 80.183594 C 306.683594 62.359375 283.636719 34.019531 252.097656 33.859375 C 252.003906 33.859375 251.914062 33.859375 251.820312 33.859375 C 227.753906 33.859375 204.125 50.117188 190.097656 76.355469 C 189.457031 77.554688 188.207031 78.304688 186.847656 78.304688 C 185.492188 78.304688 184.242188 77.554688 183.601562 76.355469 C 169.574219 50.121094 145.945312 33.859375 121.878906 33.859375 Z M 121.878906 33.859375 " fill-opacity="1" fill-rule="nonzero"/></g><path fill="#ffe5a4" d="M 315.464844 152.15625 C 309.921875 162.210938 304.382812 172.265625 298.839844 182.316406 C 278.421875 191.148438 255.925781 199.917969 231.4375 208.089844 C 226.359375 209.785156 221.195312 211.453125 215.945312 213.089844 C 215.132812 213.34375 214.320312 213.597656 213.503906 213.847656 C 208.964844 215.25 204.359375 216.628906 199.691406 217.984375 C 172.394531 225.898438 146.53125 231.882812 122.539062 236.429688 C 115.484375 229.597656 108.429688 222.765625 101.375 215.9375 C 118.546875 212.242188 136.269531 208.101562 154.488281 203.457031 C 161.53125 201.660156 168.644531 199.789062 175.832031 197.835938 C 184.453125 195.496094 193.171875 193.042969 201.992188 190.46875 C 228.941406 182.601562 254.558594 174.269531 278.804688 165.691406 C 291.398438 161.234375 303.617188 156.714844 315.464844 152.15625 Z M 315.464844 152.15625 " fill-opacity="1" fill-rule="nonzero"/><path fill="#ffffff" d="M 315.464844 152.15625 C 314.886719 152.375 314.308594 152.59375 313.730469 152.8125 C 311.1875 155.199219 308.644531 157.585938 306.105469 159.96875 C 297.539062 163.898438 288.765625 167.746094 279.785156 171.484375 C 222.386719 195.398438 166.808594 210.816406 115.183594 220.539062 C 120.148438 225.347656 125.113281 230.15625 130.082031 234.964844 C 127.546875 235.46875 125.03125 235.957031 122.539062 236.429688 C 115.484375 229.597656 108.429688 222.765625 101.375 215.9375 C 133.148438 209.101562 166.804688 200.738281 201.992188 190.46875 C 228.941406 182.601562 254.558594 174.269531 278.804688 165.691406 C 291.398438 161.234375 303.617188 156.714844 315.464844 152.15625 Z M 315.464844 152.15625 " fill-opacity="0.8" fill-rule="nonzero"/><path fill="#2f1b12" d="M 231.4375 208.089844 C 226.359375 209.785156 221.195312 211.453125 215.945312 213.089844 C 215.132812 213.34375 214.320312 213.597656 213.503906 213.847656 C 193.878906 210.144531 174.207031 206.683594 154.488281 203.457031 C 161.53125 201.660156 168.644531 199.789062 175.832031 197.835938 C 194.40625 201.046875 212.941406 204.460938 231.4375 208.089844 Z M 231.4375 208.089844 " fill-opacity="0.3" fill-rule="nonzero"/><path fill="#2f1b12" d="M 315.464844 152.15625 C 309.921875 162.210938 304.382812 172.265625 298.839844 182.316406 C 274.1875 192.980469 246.507812 203.550781 215.945312 213.089844 C 226.027344 206.785156 236.359375 199.738281 246.804688 191.855469 C 254.285156 186.210938 255.464844 185.34375 256.632812 184.210938 C 261.476562 179.511719 264.507812 174.730469 266.324219 171.378906 C 270.484375 169.484375 274.644531 167.585938 278.804688 165.691406 C 291.398438 161.234375 303.617188 156.714844 315.464844 152.15625 Z M 315.464844 152.15625 " fill-opacity="0.3" fill-rule="nonzero"/><path fill="#ffe5a4" d="M 323.328125 128.773438 C 320.707031 136.570312 318.085938 144.363281 315.464844 152.15625 C 299.207031 159.085938 281.855469 165.90625 263.441406 172.402344 C 233.492188 182.96875 200.734375 192.6875 165.28125 200.660156 C 142.511719 205.777344 120.597656 209.734375 99.707031 212.765625 C 90.425781 201.789062 81.144531 190.816406 71.863281 179.839844 C 110.273438 177.058594 153.75 171.691406 200.96875 162.011719 C 227.136719 156.652344 251.722656 150.527344 274.628906 144 C 291.820312 139.097656 308.070312 133.972656 323.328125 128.773438 Z M 323.328125 128.773438 " fill-opacity="1" fill-rule="nonzero"/><path fill="#ffffff" d="M 317.074219 147.371094 C 318.628906 142.132812 320.183594 136.894531 321.738281 131.652344 C 306.675781 137.398438 290.625 143.101562 273.617188 148.613281 C 250.960938 155.960938 226.609375 162.964844 200.652344 169.261719 C 157.363281 179.765625 117.132812 186.476562 81.0625 190.714844 C 77.996094 187.089844 74.929688 183.464844 71.863281 179.839844 C 110.273438 177.058594 153.75 171.691406 200.96875 162.011719 C 227.136719 156.652344 251.722656 150.527344 274.628906 144 C 291.820312 139.097656 308.070312 133.972656 323.328125 128.773438 C 321.242188 134.972656 319.160156 141.171875 317.074219 147.371094 Z M 317.074219 147.371094 " fill-opacity="0.8" fill-rule="nonzero"/><path fill="#ffffff" d="M 323.328125 128.773438 C 322.9375 129.933594 322.550781 131.089844 322.160156 132.246094 C 309.96875 136.253906 297.1875 140.191406 283.835938 144 C 260.929688 150.527344 236.34375 156.652344 210.175781 162.011719 C 162.957031 171.691406 119.480469 177.058594 81.070312 179.839844 C 90.003906 190.40625 98.941406 200.972656 107.878906 211.539062 C 105.136719 211.964844 102.414062 212.375 99.707031 212.765625 C 90.425781 201.789062 81.144531 190.816406 71.863281 179.839844 C 110.273438 177.058594 153.75 171.691406 200.96875 162.011719 C 227.136719 156.652344 251.722656 150.527344 274.628906 144 C 291.820312 139.097656 308.070312 133.972656 323.328125 128.773438 Z M 323.328125 128.773438 " fill-opacity="0.8" fill-rule="nonzero"/><path fill="#2f1b12" d="M 217.699219 187.132812 C 200.945312 192.019531 183.46875 196.570312 165.28125 200.660156 C 161.261719 201.5625 157.269531 202.429688 153.304688 203.261719 C 129.871094 199.4375 106.378906 195.949219 82.816406 192.789062 C 79.164062 188.472656 75.515625 184.15625 71.863281 179.839844 C 89.753906 178.542969 108.738281 176.6875 128.695312 174.097656 C 158.363281 178.441406 188.027344 182.785156 217.699219 187.132812 Z M 217.699219 187.132812 " fill-opacity="0.3" fill-rule="nonzero"/><path fill="#2f1b12" d="M 323.328125 128.773438 C 320.707031 136.570312 318.085938 144.363281 315.464844 152.15625 C 299.207031 159.085938 281.855469 165.90625 263.441406 172.402344 C 265.1875 169.328125 266.839844 166.039062 268.367188 162.523438 C 271.460938 155.386719 273.167969 149.265625 274.628906 144 C 291.820312 139.097656 308.070312 133.972656 323.328125 128.773438 Z M 323.328125 128.773438 " fill-opacity="0.3" fill-rule="nonzero"/><path fill="#ffe5a4" d="M 243.800781 152.257812 C 232.09375 155.195312 219.941406 158.019531 207.359375 160.683594 C 195.398438 163.214844 183.742188 165.453125 172.410156 167.4375 C 155.003906 166.605469 136.605469 165.210938 117.324219 163.078125 C 97.15625 160.84375 78.097656 158.03125 60.230469 154.863281 C 56.535156 143.910156 52.839844 132.957031 49.144531 122.003906 C 62.214844 124.917969 75.621094 127.726562 89.359375 130.402344 C 97.894531 132.066406 106.554688 133.675781 115.339844 135.226562 C 119.128906 135.894531 122.941406 136.554688 126.773438 137.199219 C 167.871094 144.132812 207 148.976562 243.800781 152.257812 Z M 243.800781 152.257812 " fill-opacity="1" fill-rule="nonzero"/><path fill="#ffffff" d="M 115.386719 138.507812 C 115.324219 144.46875 114.59375 149.382812 111.417969 151.375 C 108.382812 153.304688 103.039062 151.699219 97.972656 146.101562 C 94.613281 142.433594 91.375 136.980469 89.359375 130.402344 C 97.894531 132.066406 106.554688 133.675781 115.339844 135.226562 C 115.375 136.351562 115.390625 137.449219 115.386719 138.507812 Z M 115.386719 138.507812 " fill-opacity="0.5" fill-rule="nonzero"/><path fill="#ffffff" d="M 221.851562 157.503906 C 229.332031 155.804688 236.648438 154.050781 243.800781 152.257812 C 207 148.980469 167.871094 144.132812 126.773438 137.199219 C 103.203125 133.222656 80.503906 128.820312 58.71875 124.105469 C 57.566406 123.855469 56.417969 123.605469 55.269531 123.355469 C 54.847656 123.261719 54.425781 123.171875 54.003906 123.078125 C 52.378906 122.722656 50.757812 122.363281 49.144531 122.003906 C 50.039062 124.65625 50.933594 127.3125 51.828125 129.964844 C 51.828125 129.964844 51.832031 129.964844 51.832031 129.964844 C 54.632812 138.265625 57.433594 146.5625 60.234375 154.863281 C 78.097656 158.03125 97.160156 160.84375 117.324219 163.078125 C 136.605469 165.210938 155.003906 166.605469 172.410156 167.4375 C 173.109375 167.316406 173.808594 167.191406 174.511719 167.066406 C 159.226562 166.214844 143.207031 164.921875 126.53125 163.078125 C 106.363281 160.84375 87.304688 158.03125 69.441406 154.863281 C 66.882812 147.28125 64.324219 139.703125 61.765625 132.125 C 82.621094 136.59375 104.296875 140.773438 126.773438 144.566406 C 159.796875 150.136719 191.554688 154.359375 221.851562 157.503906 Z M 221.851562 157.503906 " fill-opacity="1" fill-rule="nonzero"/><path fill="#2f1b12" d="M 122.539062 240.113281 C 121.589844 240.113281 120.667969 239.746094 119.976562 239.074219 L 98.8125 218.582031 C 97.835938 217.636719 97.460938 216.230469 97.835938 214.921875 C 98.207031 213.617188 99.273438 212.621094 100.601562 212.335938 C 134.207031 205.109375 167.972656 196.5625 200.960938 186.933594 C 239.035156 175.820312 277.117188 162.964844 314.144531 148.71875 C 315.585938 148.164062 317.222656 148.570312 318.242188 149.738281 C 319.257812 150.902344 319.4375 152.578125 318.691406 153.933594 L 302.0625 184.09375 C 301.667969 184.808594 301.050781 185.375 300.300781 185.695312 C 267.992188 199.675781 234.488281 211.726562 200.714844 221.519531 C 175.304688 228.886719 149.234375 235.121094 123.222656 240.046875 C 122.996094 240.089844 122.765625 240.113281 122.539062 240.113281 Z M 108.875 218.074219 L 123.726562 232.453125 C 148.886719 227.625 174.089844 221.570312 198.664062 214.445312 C 231.738281 204.855469 264.554688 193.078125 296.222656 179.4375 L 307.394531 159.167969 C 273.144531 172.066406 238.082031 183.769531 203.023438 194.003906 C 172.066406 203.039062 140.429688 211.128906 108.875 218.074219 Z M 108.875 218.074219 " fill-opacity="1" fill-rule="nonzero"/><path fill="#2f1b12" d="M 99.707031 216.449219 C 98.632812 216.449219 97.601562 215.980469 96.898438 215.144531 L 69.050781 182.214844 C 68.15625 181.160156 67.929688 179.6875 68.46875 178.410156 C 69.007812 177.132812 70.214844 176.265625 71.597656 176.164062 C 114.660156 173.046875 157.9375 167.074219 200.230469 158.40625 C 241.371094 149.976562 282.386719 138.835938 322.140625 125.289062 C 323.46875 124.835938 324.933594 125.175781 325.925781 126.164062 C 326.921875 127.152344 327.265625 128.621094 326.820312 129.949219 L 318.957031 153.332031 C 318.621094 154.328125 317.875 155.132812 316.910156 155.542969 C 268.175781 176.316406 217.433594 192.703125 166.089844 204.25 C 144.410156 209.125 122.253906 213.21875 100.238281 216.410156 C 100.0625 216.4375 99.882812 216.449219 99.707031 216.449219 Z M 79.328125 182.964844 L 101.199219 208.828125 C 122.363281 205.703125 143.640625 201.75 164.472656 197.066406 C 214.847656 185.738281 264.644531 169.707031 312.503906 149.414062 L 317.472656 134.628906 C 279.636719 147.210938 240.726562 157.628906 201.707031 165.621094 C 161.460938 173.867188 120.328125 179.695312 79.328125 182.964844 Z M 79.328125 182.964844 " fill-opacity="1" fill-rule="nonzero"/><path fill="#2f1b12" d="M 172.410156 171.117188 C 172.351562 171.117188 172.292969 171.117188 172.234375 171.113281 C 153.835938 170.234375 135.222656 168.761719 116.921875 166.738281 C 97.8125 164.621094 78.523438 161.847656 59.589844 158.488281 C 58.265625 158.253906 57.171875 157.3125 56.742188 156.039062 L 45.652344 123.179688 C 45.226562 121.921875 45.515625 120.527344 46.40625 119.539062 C 47.292969 118.550781 48.648438 118.117188 49.945312 118.410156 C 75.511719 124.113281 101.566406 129.214844 127.386719 133.570312 C 165.910156 140.066406 205.1875 145.121094 244.125 148.589844 C 245.917969 148.75 247.332031 150.175781 247.472656 151.96875 C 247.613281 153.757812 246.4375 155.390625 244.695312 155.828125 C 232.617188 158.859375 220.308594 161.707031 208.121094 164.285156 C 196.523438 166.742188 184.71875 169.023438 173.042969 171.0625 C 172.835938 171.101562 172.621094 171.117188 172.410156 171.117188 Z M 63.023438 151.613281 C 81.109375 154.777344 99.503906 157.398438 117.730469 159.417969 C 135.746094 161.410156 154.0625 162.863281 172.175781 163.738281 C 183.636719 161.730469 195.214844 159.488281 206.59375 157.082031 C 211.554688 156.03125 216.53125 154.9375 221.503906 153.804688 C 189.617188 150.488281 157.640625 146.140625 126.160156 140.832031 C 102.359375 136.816406 78.355469 132.171875 54.71875 127.003906 Z M 63.023438 151.613281 " fill-opacity="1" fill-rule="nonzero"/><path fill="#ffe5a4" d="M 291.023438 188.667969 C 289.589844 193.140625 286.863281 199.710938 281.554688 206.339844 C 277.996094 210.785156 274.285156 213.996094 271.25 216.234375 C 259.699219 213.773438 248.132812 211.394531 236.546875 209.097656 C 234.84375 208.757812 233.140625 208.421875 231.4375 208.089844 C 178.707031 197.746094 125.648438 189.117188 72.25 182.191406 C 70.5625 178.429688 68.886719 174.664062 67.226562 170.894531 C 64.871094 165.5625 62.539062 160.214844 60.234375 154.863281 C 124.582031 164.289062 188.925781 173.714844 253.273438 183.136719 C 265.855469 184.980469 278.441406 186.824219 291.023438 188.667969 Z M 291.023438 188.667969 " fill-opacity="1" fill-rule="nonzero"/><path fill="#ffffff" d="M 289.582031 192.636719 C 289.679688 192.394531 289.777344 192.152344 289.875 191.90625 C 290.304688 190.804688 290.6875 189.722656 291.023438 188.667969 C 278.441406 186.824219 265.855469 184.980469 253.273438 183.136719 C 188.925781 173.714844 124.582031 164.289062 60.234375 154.863281 C 61.363281 157.484375 62.5 160.109375 63.640625 162.726562 C 64.832031 165.453125 66.023438 168.175781 67.226562 170.894531 C 68.886719 174.664062 70.5625 178.429688 72.25 182.191406 C 125.648438 189.117188 178.707031 197.746094 231.4375 208.089844 C 233.140625 208.421875 234.84375 208.757812 236.546875 209.097656 C 248.132812 211.394531 259.699219 213.773438 271.25 216.234375 C 271.878906 215.769531 272.542969 215.257812 273.226562 214.707031 C 264.078125 212.78125 254.921875 210.914062 245.753906 209.097656 C 244.050781 208.757812 242.347656 208.421875 240.644531 208.089844 C 187.914062 197.746094 134.851562 189.117188 81.457031 182.191406 C 79.769531 178.429688 78.09375 174.664062 76.429688 170.894531 C 75.441406 168.652344 74.460938 166.410156 73.476562 164.167969 C 145.511719 173.65625 217.546875 183.148438 289.582031 192.636719 Z M 289.582031 192.636719 " fill-opacity="0.8" fill-rule="nonzero"/><path fill="#2f1b12" d="M 291.023438 188.667969 C 289.589844 193.140625 286.863281 199.710938 281.554688 206.339844 C 277.996094 210.785156 274.285156 213.996094 271.25 216.234375 C 259.699219 213.773438 248.132812 211.394531 236.546875 209.097656 C 247.609375 197.835938 250.617188 193.992188 250.617188 193.992188 C 252.453125 191.652344 254.941406 188.222656 257.535156 183.734375 C 268.699219 185.378906 279.863281 187.023438 291.023438 188.667969 Z M 291.023438 188.667969 " fill-opacity="0.3" fill-rule="nonzero"/><path fill="#2f1b12" d="M 271.25 220.007812 C 270.984375 220.007812 270.722656 219.980469 270.460938 219.925781 C 257.292969 217.117188 243.917969 214.382812 230.710938 211.792969 C 178.308594 201.515625 124.828125 192.816406 71.765625 185.933594 C 70.464844 185.765625 69.34375 184.933594 68.804688 183.734375 C 67.121094 179.976562 65.425781 176.171875 63.769531 172.417969 C 61.421875 167.097656 59.066406 161.695312 56.765625 156.355469 C 56.226562 155.097656 56.40625 153.648438 57.238281 152.5625 C 58.070312 151.480469 59.425781 150.929688 60.78125 151.128906 L 291.574219 184.933594 C 292.671875 185.09375 293.640625 185.730469 294.230469 186.671875 C 294.816406 187.613281 294.957031 188.765625 294.621094 189.820312 C 292.398438 196.734375 288.992188 203.085938 284.5 208.699219 C 281.316406 212.675781 277.609375 216.234375 273.488281 219.273438 C 272.832031 219.753906 272.046875 220.007812 271.25 220.007812 Z M 74.832031 178.71875 C 127.367188 185.578125 180.289062 194.210938 232.164062 204.382812 C 244.84375 206.871094 257.679688 209.492188 270.339844 212.179688 C 273.402344 209.765625 276.179688 207.011719 278.605469 203.980469 C 281.59375 200.25 284.03125 196.144531 285.878906 191.726562 L 66.386719 159.578125 C 67.8125 162.851562 69.246094 166.128906 70.675781 169.371094 C 72.042969 172.46875 73.4375 175.605469 74.832031 178.71875 Z M 74.832031 178.71875 " fill-opacity="1" fill-rule="nonzero"/><path fill="#2f1b12" d="M 199.136719 270.335938 C 195.421875 268.121094 191.710938 265.90625 187.996094 263.695312 C 188.808594 258.996094 189.621094 254.300781 190.4375 249.601562 C 188.992188 244.183594 187.546875 238.761719 186.101562 233.34375 C 189.894531 238.222656 193.6875 243.097656 197.480469 247.976562 C 197.300781 250.6875 197.121094 253.398438 196.9375 256.105469 C 201.023438 258.324219 205.105469 260.542969 209.1875 262.757812 C 205.835938 265.285156 202.488281 267.808594 199.136719 270.335938 Z M 199.136719 270.335938 " fill-opacity="1" fill-rule="nonzero"/><path fill="#2f1b12" d="M 103.582031 33.167969 C 108.890625 38.691406 114.199219 44.210938 119.503906 49.730469 C 117.667969 54.933594 115.832031 60.132812 113.996094 65.335938 C 119.046875 74.359375 124.09375 83.386719 129.140625 92.410156 C 127 83.539062 124.859375 74.667969 122.71875 65.792969 C 125.777344 61.816406 128.835938 57.839844 131.894531 53.863281 C 131.613281 46.210938 131.332031 38.558594 131.050781 30.90625 C 127.78125 30.382812 123.730469 30.019531 119.105469 30.242188 C 112.742188 30.554688 107.453125 31.871094 103.582031 33.167969 Z M 103.582031 33.167969 " fill-opacity="1" fill-rule="nonzero"/><g fill="#ffffff" fill-opacity="1"><g transform="translate(49.557731, 279.069329)"><g><path d="M 6.625 0 L 3.390625 0 C 3.273438 0 3.21875 -0.0625 3.21875 -0.1875 L 3.21875 -0.859375 C 3.21875 -0.972656 3.273438 -1.03125 3.390625 -1.03125 L 4.4375 -1.03125 L 4.4375 -8.90625 L 1.828125 -8.90625 L 1.828125 -7.4375 C 1.828125 -7.300781 1.765625 -7.234375 1.640625 -7.234375 L 0.859375 -7.234375 C 0.734375 -7.234375 0.671875 -7.300781 0.671875 -7.4375 L 0.671875 -9.765625 C 0.671875 -9.878906 0.734375 -9.9375 0.859375 -9.9375 L 9.203125 -9.9375 C 9.335938 -9.9375 9.40625 -9.878906 9.40625 -9.765625 L 9.40625 -7.4375 C 9.40625 -7.300781 9.335938 -7.234375 9.203125 -7.234375 L 8.421875 -7.234375 C 8.296875 -7.234375 8.234375 -7.300781 8.234375 -7.4375 L 8.234375 -8.90625 L 5.640625 -8.90625 L 5.640625 -1.03125 L 6.625 -1.03125 C 6.75 -1.03125 6.8125 -0.972656 6.8125 -0.859375 L 6.8125 -0.1875 C 6.8125 -0.0625 6.75 0 6.625 0 Z M 6.625 0 "/></g></g></g><g fill="#ffffff" fill-opacity="1"><g transform="translate(60.312825, 279.069329)"><g><path d="M 8.203125 0 L 0.84375 0 C 0.726562 0 0.671875 -0.0546875 0.671875 -0.171875 L 0.671875 -0.875 C 0.671875 -0.976562 0.726562 -1.03125 0.84375 -1.03125 L 1.890625 -1.03125 L 1.890625 -8.90625 L 0.84375 -8.90625 C 0.726562 -8.90625 0.671875 -8.957031 0.671875 -9.0625 L 0.671875 -9.78125 C 0.671875 -9.882812 0.726562 -9.9375 0.84375 -9.9375 L 8.203125 -9.9375 C 8.316406 -9.9375 8.375 -9.882812 8.375 -9.78125 L 8.375 -7.546875 C 8.375 -7.421875 8.316406 -7.359375 8.203125 -7.359375 L 7.453125 -7.359375 C 7.335938 -7.359375 7.28125 -7.421875 7.28125 -7.546875 L 7.28125 -8.90625 L 3.09375 -8.90625 L 3.09375 -5.46875 L 6.609375 -5.46875 C 6.722656 -5.46875 6.78125 -5.410156 6.78125 -5.296875 L 6.78125 -4.59375 C 6.78125 -4.488281 6.722656 -4.4375 6.609375 -4.4375 L 3.09375 -4.4375 L 3.09375 -1.03125 L 7.265625 -1.03125 L 7.265625 -2.390625 C 7.265625 -2.503906 7.328125 -2.5625 7.453125 -2.5625 L 8.203125 -2.5625 C 8.316406 -2.5625 8.375 -2.503906 8.375 -2.390625 L 8.375 -0.171875 C 8.375 -0.0546875 8.316406 0 8.203125 0 Z M 8.203125 0 "/></g></g></g><g fill="#ffffff" fill-opacity="1"><g transform="translate(70.043626, 279.069329)"><g><path d="M 10.625 0 L 7.5 0 C 7.394531 0 7.34375 -0.0546875 7.34375 -0.171875 L 7.34375 -0.875 C 7.34375 -0.976562 7.394531 -1.03125 7.5 -1.03125 L 8.46875 -1.03125 L 7.578125 -3.4375 L 3.703125 -3.4375 L 2.8125 -1.03125 L 3.78125 -1.03125 C 3.894531 -1.03125 3.953125 -0.976562 3.953125 -0.875 L 3.953125 -0.171875 C 3.953125 -0.0546875 3.894531 0 3.78125 0 L 0.671875 0 C 0.554688 0 0.5 -0.0546875 0.5 -0.171875 L 0.5 -0.875 C 0.5 -0.976562 0.554688 -1.03125 0.671875 -1.03125 L 1.59375 -1.03125 L 4.5625 -8.90625 L 3.828125 -8.90625 C 3.703125 -8.90625 3.640625 -8.957031 3.640625 -9.0625 L 3.640625 -9.78125 C 3.640625 -9.882812 3.703125 -9.9375 3.828125 -9.9375 L 5.703125 -9.9375 C 5.921875 -9.9375 6.085938 -9.890625 6.203125 -9.796875 C 6.316406 -9.703125 6.414062 -9.550781 6.5 -9.34375 L 9.6875 -1.03125 L 10.625 -1.03125 C 10.738281 -1.03125 10.796875 -0.976562 10.796875 -0.875 L 10.796875 -0.171875 C 10.796875 -0.0546875 10.738281 0 10.625 0 Z M 7.203125 -4.390625 L 5.65625 -8.5 L 5.625 -8.5 L 4.0625 -4.390625 Z M 7.203125 -4.390625 "/></g></g></g><g fill="#ffffff" fill-opacity="1"><g transform="translate(82.376683, 279.069329)"><g><path d="M 11.890625 0 L 8.6875 0 C 8.582031 0 8.53125 -0.0546875 8.53125 -0.171875 L 8.53125 -0.875 C 8.53125 -0.976562 8.582031 -1.03125 8.6875 -1.03125 L 9.625 -1.03125 L 9.625 -7.9375 L 9.609375 -7.9375 L 6.984375 -1.390625 C 6.867188 -1.117188 6.660156 -0.984375 6.359375 -0.984375 C 6.066406 -0.984375 5.867188 -1.117188 5.765625 -1.390625 L 3.125 -7.9375 L 3.09375 -7.9375 L 3.09375 -1.03125 L 4.03125 -1.03125 C 4.144531 -1.03125 4.203125 -0.976562 4.203125 -0.875 L 4.203125 -0.171875 C 4.203125 -0.0546875 4.144531 0 4.03125 0 L 0.84375 0 C 0.726562 0 0.671875 -0.0546875 0.671875 -0.171875 L 0.671875 -0.875 C 0.671875 -0.976562 0.726562 -1.03125 0.84375 -1.03125 L 1.890625 -1.03125 L 1.890625 -8.90625 L 0.84375 -8.90625 C 0.726562 -8.90625 0.671875 -8.957031 0.671875 -9.0625 L 0.671875 -9.78125 C 0.671875 -9.882812 0.726562 -9.9375 0.84375 -9.9375 L 2.96875 -9.9375 C 3.289062 -9.9375 3.507812 -9.78125 3.625 -9.46875 L 5.6875 -4.484375 L 6.34375 -2.734375 L 6.390625 -2.734375 C 6.648438 -3.460938 6.863281 -4.035156 7.03125 -4.453125 L 9.109375 -9.46875 C 9.234375 -9.78125 9.457031 -9.9375 9.78125 -9.9375 L 11.890625 -9.9375 C 12.003906 -9.9375 12.0625 -9.882812 12.0625 -9.78125 L 12.0625 -9.0625 C 12.0625 -8.957031 12.003906 -8.90625 11.890625 -8.90625 L 10.828125 -8.90625 L 10.828125 -1.03125 L 11.890625 -1.03125 C 12.003906 -1.03125 12.0625 -0.976562 12.0625 -0.875 L 12.0625 -0.171875 C 12.0625 -0.0546875 12.003906 0 11.890625 0 Z M 11.890625 0 "/></g></g></g></svg>