  <svg
    xmlns="http://www.w3.org/2000/svg"
    xmlns:xlink="http://www.w3.org/1999/xlink"
    width="500"
    zoomAndPan="magnify"
    viewBox="0 0 375 374.999991"
    height="500"
    preserveAspectRatio="xMidYMid meet"
    version="1.0"
  >
    <defs>
      <g />
      <clipPath id="3037df00cd">
        <path
          d="M 0 8.589844 L 216 8.589844 L 216 356.589844 L 0 356.589844 Z M 0 8.589844 "
          clip-rule="nonzero"
        />
      </clipPath>
      <clipPath id="4c014e1213">
        <path
          d="M 159 329 L 187 329 L 187 356.589844 L 159 356.589844 Z M 159 329 "
          clip-rule="nonzero"
        />
      </clipPath>
      <clipPath id="3dd2cb184c">
        <path
          d="M 186 8.589844 L 375 8.589844 L 375 347 L 186 347 Z M 186 8.589844 "
          clip-rule="nonzero"
        />
      </clipPath>
    </defs>
    <g clip-path="url(#3037df00cd)">
      <path
        fill="#ff3366"
        d="M 182.917969 323.128906 C 181.753906 322.867188 180.652344 322.496094 179.449219 322.320312 C 177.070312 321.828125 174.640625 321.777344 172.230469 321.910156 C 169.308594 321.910156 166.390625 321.820312 163.46875 321.675781 C 163.273438 320.742188 163.019531 319.683594 162.640625 318.523438 C 161.457031 314.710938 159.226562 310.203125 155.410156 306.195312 C 154.457031 305.199219 153.429688 304.363281 152.386719 303.539062 C 151.355469 302.683594 150.285156 301.921875 149.222656 301.25 C 147.085938 299.964844 144.984375 298.738281 143.101562 297.878906 C 141.1875 297.070312 139.566406 296.234375 138.371094 295.824219 C 137.183594 295.363281 136.449219 295.164062 136.449219 295.164062 C 136.449219 295.164062 135.726562 297.898438 135.832031 301.761719 C 135.882812 303.695312 136.160156 305.917969 136.878906 308.242188 C 137.238281 309.414062 137.71875 310.597656 138.332031 311.785156 C 138.960938 312.925781 139.722656 314.054688 140.671875 315.152344 C 141.605469 316.265625 142.679688 317.28125 143.828125 318.222656 C 144.6875 318.867188 145.589844 319.445312 146.519531 320 C 140.867188 319.109375 135.28125 317.878906 129.789062 316.320312 C 129.832031 315.472656 129.851562 314.519531 129.808594 313.464844 C 129.742188 311.488281 129.492188 309.21875 128.917969 306.863281 C 128.339844 304.511719 127.4375 302.105469 126.125 299.640625 C 124.789062 297.234375 123.128906 295.164062 121.445312 293.210938 C 120.59375 292.261719 119.707031 291.421875 118.855469 290.601562 C 118.019531 289.75 117.179688 288.992188 116.378906 288.3125 C 114.75 286.996094 113.335938 285.828125 112.289062 285.0625 C 111.25 284.300781 110.589844 283.90625 110.589844 283.90625 C 110.589844 283.90625 109.191406 286.363281 108.292969 290.136719 C 107.417969 293.882812 106.992188 299.144531 109.492188 304.363281 C 110.597656 306.769531 112.230469 308.914062 114.078125 310.804688 C 108.746094 308.53125 103.5625 305.914062 98.558594 302.945312 C 98.859375 302.070312 99.160156 301.054688 99.425781 299.894531 C 100.332031 295.992188 100.734375 290.914062 99.367188 285.546875 C 98.695312 282.835938 97.566406 280.425781 96.402344 278.097656 C 95.808594 276.953125 95.164062 275.878906 94.507812 274.894531 C 93.890625 273.859375 93.265625 272.886719 92.640625 272.015625 C 92.027344 271.148438 91.417969 270.367188 90.863281 269.671875 C 90.335938 268.949219 89.847656 268.328125 89.421875 267.816406 C 88.59375 266.8125 88.046875 266.253906 88.046875 266.253906 C 88.046875 266.253906 86.09375 268.300781 84.304688 271.753906 C 82.53125 275.203125 80.882812 280.171875 82.011719 285.875 C 82.535156 288.707031 83.710938 291.40625 85.195312 293.847656 C 82.519531 291.796875 79.898438 289.675781 77.378906 287.429688 C 75.402344 285.679688 73.496094 283.859375 71.625 281.996094 C 72.15625 281.167969 72.742188 280.195312 73.316406 279.046875 C 75.117188 275.511719 76.78125 270.605469 76.675781 265.078125 C 76.605469 259.503906 74.816406 254.296875 73.269531 250.242188 C 72.464844 248.25 71.628906 246.597656 71.085938 245.382812 C 70.515625 244.1875 70.105469 243.511719 70.105469 243.511719 C 70.105469 243.511719 67.742188 245.054688 65.195312 248.011719 C 63.925781 249.488281 62.621094 251.339844 61.570312 253.558594 C 60.558594 255.753906 59.84375 258.304688 59.6875 261.246094 C 59.496094 264.207031 60.144531 267.085938 60.960938 269.933594 C 61.007812 270.089844 61.066406 270.230469 61.121094 270.386719 C 57.207031 265.5625 53.589844 260.503906 50.292969 255.234375 C 51.046875 254.523438 51.925781 253.628906 52.828125 252.554688 C 55.300781 249.570312 58.179688 245.113281 59.261719 239.730469 C 59.921875 236.972656 60.015625 234.265625 59.972656 231.667969 C 60 229.035156 59.574219 226.636719 59.324219 224.472656 C 59.039062 222.316406 58.5625 220.535156 58.289062 219.242188 C 58.015625 217.941406 57.785156 217.183594 57.785156 217.183594 C 57.785156 217.183594 55.125 218.148438 51.96875 220.453125 C 48.773438 222.785156 45.25 226.433594 43.589844 232.105469 C 42.824219 234.90625 42.683594 237.90625 42.851562 240.851562 C 42.898438 241.316406 42.96875 241.777344 43.035156 242.242188 C 40.160156 236.410156 37.671875 230.394531 35.578125 224.234375 C 36.53125 223.699219 37.675781 222.984375 38.917969 222.050781 C 40.5 220.886719 42.167969 219.390625 43.78125 217.554688 C 45.414062 215.714844 46.941406 213.546875 48.097656 211.042969 C 49.25 208.535156 50.140625 205.871094 50.601562 203.359375 C 51.152344 200.824219 51.492188 198.367188 51.585938 196.230469 C 51.8125 194.074219 51.847656 192.222656 51.824219 190.902344 C 51.792969 189.589844 51.773438 188.796875 51.773438 188.796875 C 51.773438 188.796875 48.960938 189.136719 45.351562 190.652344 C 41.824219 192.171875 37.414062 194.925781 34.574219 200.050781 C 32.832031 203.238281 31.9375 206.957031 31.621094 210.542969 C 30.601562 206.265625 29.765625 201.949219 29.128906 197.601562 C 28.777344 195.296875 28.507812 192.976562 28.277344 190.652344 C 29.375 190.34375 30.757812 189.890625 32.3125 189.21875 C 35.972656 187.648438 40.242188 184.949219 43.796875 180.617188 C 44.671875 179.527344 45.421875 178.394531 46.101562 177.242188 C 46.828125 176.082031 47.457031 174.894531 48.007812 173.734375 C 49.050781 171.378906 49.96875 169.078125 50.625 167.039062 C 51.226562 164.988281 51.757812 163.210938 52.070312 161.941406 C 52.371094 160.660156 52.488281 159.882812 52.488281 159.882812 C 52.488281 159.882812 49.683594 159.550781 45.84375 160.191406 C 42.050781 160.839844 37.027344 162.488281 33.167969 166.824219 C 32.195312 167.902344 31.28125 169.101562 30.523438 170.363281 C 29.804688 171.625 29.164062 172.957031 28.605469 174.3125 C 28.195312 175.28125 27.867188 176.246094 27.578125 177.214844 C 27.539062 170.203125 28.023438 163.183594 28.980469 156.21875 C 30.136719 156.1875 31.660156 156.082031 33.417969 155.761719 C 37.347656 155.089844 42.238281 153.484375 46.613281 150.097656 C 51.039062 146.714844 54.140625 142.191406 56.453125 138.566406 C 57.582031 136.742188 58.390625 135.101562 59.039062 133.949219 C 59.65625 132.792969 59.960938 132.070312 59.960938 132.070312 C 59.960938 132.070312 57.3125 131.082031 53.425781 130.785156 C 51.484375 130.648438 49.21875 130.6875 46.800781 131.164062 C 44.449219 131.652344 41.972656 132.59375 39.523438 134.222656 C 37.035156 135.832031 35.105469 138.0625 33.316406 140.421875 C 32.542969 141.496094 31.863281 142.621094 31.253906 143.734375 C 32.867188 136.636719 35.007812 129.660156 37.671875 122.878906 C 38.828125 123.144531 40.472656 123.429688 42.417969 123.550781 C 46.273438 123.777344 51.582031 123.453125 56.546875 121.164062 C 59.15625 120.070312 61.375 118.558594 63.449219 117 C 65.570312 115.480469 67.25 113.738281 68.851562 112.277344 C 71.871094 109.25 73.808594 106.796875 73.808594 106.796875 C 73.808594 106.796875 71.476562 105.210938 67.757812 104 C 65.910156 103.410156 63.667969 102.898438 61.253906 102.816406 C 58.847656 102.738281 56.199219 103.054688 53.429688 104.050781 C 50.6875 105.070312 48.210938 106.738281 45.929688 108.601562 C 44.660156 109.753906 43.460938 110.976562 42.371094 112.203125 C 44.84375 107.164062 47.589844 102.253906 50.667969 97.542969 C 51.769531 95.828125 52.917969 94.144531 54.097656 92.476562 C 55.15625 93.023438 56.761719 93.75 58.789062 94.375 C 62.488281 95.503906 67.691406 96.429688 73.078125 95.371094 C 75.851562 94.910156 78.414062 93.988281 80.757812 92.941406 C 83.195312 91.960938 85.234375 90.675781 87.132812 89.617188 C 89.007812 88.542969 90.453125 87.429688 91.554688 86.691406 C 92.636719 85.941406 93.25 85.449219 93.25 85.449219 C 93.25 85.449219 91.347656 83.363281 88.015625 81.3125 C 84.652344 79.238281 79.933594 77.367188 74.066406 77.996094 C 71.191406 78.367188 68.347656 79.367188 65.71875 80.667969 C 63.96875 81.625 62.265625 82.6875 60.75 83.792969 C 65.78125 77.683594 71.296875 71.976562 77.238281 66.746094 C 78.132812 67.523438 79.589844 68.691406 81.554688 69.851562 C 84.890625 71.832031 89.71875 73.921875 95.214844 74.171875 C 98 74.347656 100.730469 74.097656 103.246094 73.605469 C 105.839844 73.230469 108.144531 72.476562 110.214844 71.867188 C 112.28125 71.265625 113.96875 70.554688 115.191406 70.070312 C 116.421875 69.601562 117.132812 69.273438 117.132812 69.273438 C 117.132812 69.273438 115.773438 66.792969 113.019531 64.011719 C 110.230469 61.191406 106.097656 58.300781 100.238281 57.503906 C 97.382812 57.222656 94.347656 57.480469 91.511719 58.160156 C 89.144531 58.792969 86.824219 59.574219 84.808594 60.523438 C 85.308594 60.132812 85.796875 59.726562 86.304688 59.355469 C 92.445312 54.734375 98.988281 50.660156 105.808594 47.09375 C 106.464844 48.050781 107.679688 49.644531 109.433594 51.363281 C 110.835938 52.746094 112.566406 54.167969 114.609375 55.484375 C 116.679688 56.820312 119.054688 58.011719 121.679688 58.785156 C 124.328125 59.570312 127.070312 60.035156 129.609375 60.121094 C 132.203125 60.339844 134.652344 60.246094 136.78125 60.078125 C 138.929688 59.992188 140.75 59.746094 142.03125 59.519531 C 143.335938 59.335938 144.109375 59.207031 144.109375 59.207031 C 144.109375 59.207031 143.378906 56.457031 141.359375 53.105469 C 139.328125 49.761719 135.988281 45.910156 130.492188 43.789062 C 125.039062 41.789062 118.546875 42.136719 113.609375 43.320312 C 113.546875 43.332031 113.492188 43.339844 113.433594 43.367188 C 117.480469 41.535156 121.605469 39.886719 125.804688 38.441406 C 125.972656 38.480469 126.125 38.515625 126.328125 38.558594 C 127.734375 38.851562 129.714844 39.152344 132.105469 39.527344 C 134.496094 39.886719 137.195312 40.027344 140.140625 40.15625 C 141.605469 40.195312 143.117188 40.148438 144.660156 40.027344 C 146.207031 39.964844 147.78125 39.804688 149.378906 39.515625 C 150.972656 39.203125 152.53125 38.875 154.023438 38.480469 C 155.515625 38.085938 156.945312 37.59375 158.328125 37.050781 C 161.078125 36.117188 163.574219 34.933594 165.71875 33.824219 C 169.992188 31.785156 172.792969 29.765625 172.792969 29.765625 C 172.792969 29.765625 170.046875 27.894531 165.34375 26.074219 C 163 25.246094 160.15625 24.511719 157 24.015625 C 155.417969 23.851562 153.761719 23.75 152.050781 23.761719 C 150.335938 23.746094 148.574219 23.863281 146.808594 24.210938 C 145.027344 24.523438 143.308594 24.953125 141.6875 25.460938 C 140.074219 26.039062 138.542969 26.710938 137.113281 27.414062 C 134.246094 28.757812 131.863281 30.539062 129.917969 32.082031 C 127.953125 33.609375 126.53125 35.175781 125.550781 36.253906 C 125.40625 36.421875 125.289062 36.5625 125.167969 36.707031 C 120.898438 38.101562 116.691406 39.707031 112.566406 41.503906 C 112.625 41.457031 112.6875 41.417969 112.746094 41.375 C 116.960938 38.375 122.203125 34.464844 125.96875 29.472656 C 129.761719 24.597656 131.308594 19.367188 131.847656 15.394531 C 132.402344 11.449219 131.886719 8.664062 131.886719 8.664062 C 131.886719 8.664062 130.800781 8.917969 129.035156 9.523438 C 127.277344 10.164062 124.839844 11.121094 122.15625 12.398438 C 119.496094 13.761719 116.605469 15.503906 113.925781 17.542969 C 111.285156 19.714844 108.8125 22.078125 107.027344 24.839844 C 105.253906 27.609375 104.257812 30.320312 103.761719 32.808594 C 103.28125 35.332031 103.3125 37.6875 103.535156 39.664062 C 103.816406 42.136719 104.398438 44.050781 104.796875 45.152344 C 97.824219 48.664062 91.117188 52.699219 84.792969 57.300781 C 84.195312 57.722656 83.632812 58.179688 83.046875 58.625 C 84.566406 56.84375 86.261719 54.9375 87.773438 52.695312 C 89.550781 50.230469 91.238281 47.578125 92.449219 44.671875 C 94.996094 39.066406 95.21875 33.558594 94.839844 29.628906 C 94.4375 25.652344 93.277344 23.070312 93.277344 23.070312 C 93.277344 23.070312 92.289062 23.59375 90.699219 24.582031 C 89.128906 25.574219 87.019531 27.128906 84.71875 29.007812 C 82.417969 30.898438 80.078125 33.355469 77.9375 35.9375 C 75.871094 38.636719 74.066406 41.585938 72.960938 44.644531 C 70.824219 50.859375 71.671875 56.089844 73.066406 59.875 C 73.867188 62.050781 74.796875 63.683594 75.441406 64.683594 C 69.214844 70 63.429688 75.816406 58.140625 82.082031 C 59.058594 80.289062 60.015625 78.347656 60.808594 76.230469 C 61.980469 73.449219 62.960938 70.433594 63.480469 67.351562 C 64.621094 61.273438 63.566406 55.90625 62.261719 52.171875 C 60.933594 48.386719 59.199219 46.15625 59.199219 46.15625 C 59.199219 46.15625 58.371094 46.902344 57.058594 48.234375 C 55.742188 49.542969 54.082031 51.578125 52.285156 53.941406 C 50.476562 56.296875 48.800781 59.25 47.328125 62.265625 C 45.929688 65.351562 44.914062 68.667969 44.527344 71.875 C 43.917969 78.433594 45.949219 83.308594 48.199219 86.652344 C 49.386719 88.4375 50.566406 89.738281 51.421875 90.574219 C 50.207031 92.253906 49 93.960938 47.851562 95.695312 C 44.664062 100.40625 41.8125 105.332031 39.222656 110.394531 C 39.578125 108.820312 39.902344 107.179688 40.113281 105.445312 C 40.628906 102.480469 40.828125 99.289062 40.640625 96.175781 C 40.484375 93.097656 39.828125 90.308594 38.9375 87.867188 C 38.058594 85.433594 37 83.390625 35.894531 81.710938 C 33.710938 78.347656 31.503906 76.574219 31.503906 76.574219 C 31.503906 76.574219 28.882812 80.246094 26.609375 85.773438 C 25.390625 88.476562 24.464844 91.75 23.75 95.035156 C 23.078125 98.355469 22.90625 101.84375 23.269531 105.050781 C 24.234375 111.570312 27.328125 115.820312 30.304688 118.550781 C 31.757812 119.871094 33.117188 120.828125 34.132812 121.453125 C 31.28125 128.386719 28.964844 135.546875 27.191406 142.84375 C 27.136719 141.503906 27.050781 140.121094 26.917969 138.726562 C 26.730469 135.722656 26.085938 132.550781 25.234375 129.601562 C 24.34375 126.628906 23.039062 124.082031 21.59375 121.917969 C 20.210938 119.777344 18.65625 118.019531 17.195312 116.648438 C 14.28125 113.890625 11.714844 112.695312 11.714844 112.695312 C 11.714844 112.695312 11.320312 113.738281 10.773438 115.53125 C 10.183594 117.308594 9.613281 119.859375 9.136719 122.8125 C 8.140625 128.675781 8.113281 136.253906 10.464844 142.332031 C 12.859375 148.433594 17.0625 151.855469 20.464844 153.773438 C 22.089844 154.671875 23.550781 155.246094 24.664062 155.613281 C 23.570312 162.730469 22.96875 169.921875 22.898438 177.117188 C 22.601562 176.148438 22.304688 175.167969 21.992188 174.175781 C 21.511719 172.730469 20.949219 171.296875 20.285156 169.859375 C 19.65625 168.445312 19.003906 167.050781 18.191406 165.710938 C 14.929688 160.367188 10.832031 157.015625 7.296875 155.039062 C 3.800781 153.054688 1.023438 152.5 1.023438 152.5 C 1.023438 152.5 0.898438 153.605469 0.8125 155.476562 C 0.714844 157.339844 0.621094 159.945312 0.933594 162.917969 C 1.179688 165.882812 1.636719 169.191406 2.648438 172.449219 C 3.132812 174.070312 3.695312 175.671875 4.359375 177.203125 C 5.078125 178.730469 5.910156 180.1875 6.839844 181.535156 C 10.492188 186.890625 15.480469 189.226562 19.25 190.300781 C 20.863281 190.75 22.277344 190.96875 23.394531 191.085938 C 23.597656 193.492188 23.84375 195.894531 24.164062 198.285156 C 24.757812 202.757812 25.539062 207.203125 26.511719 211.617188 C 24.660156 208.441406 22.449219 205.191406 19.75 202.4375 C 15.425781 197.980469 10.578125 195.699219 6.65625 194.59375 C 2.824219 193.476562 0.00390625 193.585938 0.00390625 193.582031 C 0.00390625 193.582031 0.0664062 194.699219 0.46875 196.519531 C 0.832031 198.339844 1.417969 200.882812 2.285156 203.71875 C 3.285156 206.523438 4.507812 209.636719 6.167969 212.570312 C 7.917969 215.492188 9.871094 218.28125 12.339844 220.433594 C 14.804688 222.59375 17.328125 223.980469 19.71875 224.835938 C 22.132812 225.695312 24.476562 226.015625 26.453125 226.101562 C 27.996094 226.164062 29.335938 226.078125 30.414062 225.949219 C 32.460938 232.296875 34.914062 238.519531 37.765625 244.5625 C 37.46875 244.265625 37.179688 243.964844 36.867188 243.667969 C 34.777344 241.515625 32.34375 239.464844 29.699219 237.800781 C 24.539062 234.433594 19.164062 233.371094 15.214844 233.152344 C 11.21875 232.957031 8.488281 233.699219 8.488281 233.699219 C 8.488281 233.699219 8.859375 234.753906 9.589844 236.457031 C 10.308594 238.167969 11.535156 240.476562 13.039062 243.027344 C 14.496094 245.582031 16.589844 248.25 18.800781 250.753906 C 21.082031 253.230469 23.792969 255.417969 26.578125 257.007812 C 32.398438 260.082031 37.660156 260.09375 41.605469 259.320312 C 43 259.046875 44.203125 258.699219 45.183594 258.351562 C 48.539062 263.902344 52.234375 269.246094 56.25 274.335938 C 56.085938 274.246094 55.945312 274.140625 55.777344 274.046875 C 53.253906 272.410156 50.332031 271.039062 47.457031 269.957031 C 44.550781 268.914062 41.710938 268.449219 39.128906 268.316406 C 36.589844 268.15625 34.253906 268.367188 32.285156 268.730469 C 28.332031 269.441406 25.855469 270.792969 25.855469 270.792969 C 25.855469 270.792969 26.460938 271.734375 27.558594 273.21875 C 28.636719 274.730469 30.332031 276.71875 32.410156 278.839844 C 36.5 283.109375 42.550781 287.636719 48.8125 289.390625 C 55.125 291.105469 60.367188 289.8125 63.960938 288.21875 C 65.148438 287.6875 66.160156 287.121094 66.996094 286.59375 C 68.929688 288.566406 70.882812 290.507812 72.921875 292.375 C 75.488281 294.734375 78.160156 296.964844 80.890625 299.128906 C 78.085938 298.25 75.125 297.542969 72.15625 297.210938 C 65.9375 296.597656 60.765625 297.90625 57.085938 299.523438 C 53.394531 301.128906 51.289062 303.023438 51.289062 303.023438 C 51.289062 303.023438 52.101562 303.789062 53.539062 304.988281 C 54.253906 305.585938 55.125 306.285156 56.128906 307.050781 C 57.144531 307.789062 58.320312 308.5625 59.585938 309.355469 C 60.855469 310.152344 62.214844 310.949219 63.65625 311.703125 C 65.140625 312.421875 66.699219 313.101562 68.277344 313.703125 C 71.417969 314.953125 74.871094 315.671875 78.121094 315.804688 C 84.667969 316.023438 89.496094 313.445312 92.574219 311.0625 C 93.484375 310.34375 94.242188 309.636719 94.882812 308.992188 C 100.042969 312.160156 105.414062 314.976562 110.949219 317.449219 C 108.25 317.347656 105.464844 317.414062 102.753906 317.785156 C 96.550781 318.742188 91.867188 321.21875 88.664062 323.714844 C 85.464844 326.167969 83.878906 328.511719 83.878906 328.511719 C 83.878906 328.511719 84.871094 329.0625 86.566406 329.875 C 88.269531 330.683594 90.671875 331.789062 93.566406 332.660156 C 95.007812 333.117188 96.546875 333.558594 98.148438 333.941406 C 99.761719 334.308594 101.464844 334.554688 103.160156 334.746094 C 106.550781 335.167969 110.074219 335.03125 113.285156 334.3125 C 116.472656 333.648438 119.109375 332.300781 121.207031 330.789062 C 123.3125 329.292969 124.894531 327.601562 126.085938 326.03125 C 126.722656 325.1875 127.246094 324.375 127.679688 323.632812 C 133.289062 325.304688 139.011719 326.625 144.804688 327.558594 C 143.898438 327.785156 142.996094 328.039062 142.09375 328.324219 C 140.605469 328.738281 139.117188 329.253906 137.691406 329.875 C 136.265625 330.507812 134.9375 331.21875 133.722656 332 C 132.507812 332.722656 131.410156 333.496094 130.421875 334.3125 C 128.417969 335.9375 126.820312 337.671875 125.589844 339.28125 C 123.128906 342.488281 122.203125 345.167969 122.203125 345.167969 C 122.203125 345.167969 123.3125 345.4375 125.1875 345.777344 C 127.070312 346.078125 129.675781 346.597656 132.726562 346.652344 C 135.773438 346.75 139.167969 346.777344 142.589844 346.136719 C 144.292969 345.855469 145.984375 345.480469 147.605469 345.003906 C 149.246094 344.496094 150.8125 343.800781 152.269531 343.039062 C 158.085938 339.996094 160.953125 335.253906 162.40625 331.613281 C 162.746094 330.753906 163 329.945312 163.207031 329.203125 C 166.324219 329.273438 169.441406 329.273438 172.546875 329.125 C 174.335938 328.964844 176.148438 329.046875 177.898438 329.484375 L 186.796875 332.929688 C 189.101562 334.195312 191.304688 335.671875 193.34375 337.335938 C 199.488281 342.292969 204.074219 348.992188 207.015625 356.324219 L 215.335938 352.996094 C 211.558594 344.445312 205.839844 336.691406 198.378906 331.09375 C 197.40625 330.351562 196.394531 329.648438 195.375 328.976562 L 186.253906 324.257812 C 185.160156 323.835938 184.03125 323.492188 182.917969 323.128906 "
        fill-opacity="1"
        fill-rule="nonzero"
      />
    </g>
    <g clip-path="url(#4c014e1213)">
      <path
        fill="#20a4f3"
        d="M 176.289062 330.675781 C 168.863281 336.480469 163.261719 344.382812 159.667969 352.996094 L 167.980469 356.324219 C 170.765625 348.925781 175.203125 342.074219 181.320312 336.921875 C 183.027344 335.449219 184.875 334.121094 186.796875 332.929688 L 177.898438 329.484375 C 177.351562 329.875 176.800781 330.257812 176.289062 330.675781 "
        fill-opacity="1"
        fill-rule="nonzero"
      />
    </g>
    <g clip-path="url(#3dd2cb184c)">
      <path
        fill="#20a4f3"
        d="M 368.339844 194.59375 C 364.425781 195.699219 359.574219 197.980469 355.25 202.4375 C 352.484375 205.246094 350.234375 208.582031 348.375 211.816406 C 349.367188 207.34375 350.167969 202.820312 350.777344 198.28125 C 351.089844 195.890625 351.339844 193.492188 351.546875 191.085938 C 352.667969 190.976562 354.113281 190.753906 355.75 190.296875 C 359.527344 189.226562 364.507812 186.890625 368.167969 181.535156 C 369.097656 180.1875 369.921875 178.730469 370.640625 177.203125 C 371.308594 175.671875 371.871094 174.070312 372.347656 172.445312 C 373.359375 169.191406 373.820312 165.882812 374.070312 162.917969 C 374.378906 159.945312 374.28125 157.335938 374.195312 155.472656 C 374.097656 153.609375 373.96875 152.5 373.96875 152.5 C 373.96875 152.5 371.207031 153.050781 367.703125 155.039062 C 364.164062 157.015625 360.074219 160.367188 356.8125 165.710938 C 356 167.050781 355.347656 168.445312 354.714844 169.859375 C 354.046875 171.289062 353.488281 172.730469 353 174.175781 C 352.667969 175.234375 352.355469 176.269531 352.054688 177.300781 C 351.984375 170.042969 351.386719 162.800781 350.289062 155.636719 C 351.402344 155.257812 352.878906 154.679688 354.539062 153.773438 C 357.9375 151.855469 362.140625 148.433594 364.542969 142.332031 C 366.882812 136.25 366.863281 128.675781 365.863281 122.804688 C 365.386719 119.859375 364.8125 117.308594 364.226562 115.53125 C 363.683594 113.738281 363.285156 112.691406 363.285156 112.691406 C 363.285156 112.691406 360.722656 113.890625 357.808594 116.648438 C 356.339844 118.019531 354.785156 119.777344 353.40625 121.914062 C 351.964844 124.078125 350.652344 126.628906 349.769531 129.601562 C 348.914062 132.550781 348.269531 135.726562 348.074219 138.730469 C 347.941406 140.183594 347.855469 141.613281 347.796875 143 C 346.023438 135.652344 343.695312 128.453125 340.828125 121.476562 C 341.855469 120.851562 343.226562 119.890625 344.695312 118.550781 C 347.667969 115.820312 350.761719 111.570312 351.730469 105.046875 C 352.09375 101.84375 351.929688 98.355469 351.261719 95.039062 C 350.535156 91.75 349.609375 88.476562 348.390625 85.773438 C 346.117188 80.246094 343.492188 76.570312 343.492188 76.570312 C 343.492188 76.570312 341.28125 78.347656 339.101562 81.710938 C 337.992188 83.390625 336.941406 85.433594 336.0625 87.867188 C 335.171875 90.3125 334.515625 93.097656 334.363281 96.175781 C 334.171875 99.28125 334.367188 102.480469 334.886719 105.445312 C 335.101562 107.222656 335.449219 108.921875 335.804688 110.527344 C 333.207031 105.425781 330.328125 100.464844 327.117188 95.710938 C 325.964844 93.976562 324.769531 92.28125 323.550781 90.59375 C 324.410156 89.765625 325.597656 88.453125 326.804688 86.652344 C 329.050781 83.308594 331.074219 78.433594 330.480469 71.867188 C 330.085938 68.664062 329.066406 65.347656 327.664062 62.265625 C 326.191406 59.246094 324.519531 56.292969 322.707031 53.941406 C 320.917969 51.578125 319.257812 49.546875 317.933594 48.230469 C 316.632812 46.90625 315.800781 46.15625 315.800781 46.15625 C 315.800781 46.15625 314.0625 48.382812 312.734375 52.171875 C 311.429688 55.90625 310.375 61.277344 311.519531 67.347656 C 312.039062 70.433594 313.027344 73.449219 314.191406 76.230469 C 314.988281 78.386719 315.976562 80.359375 316.914062 82.183594 C 311.597656 75.890625 305.796875 70.035156 299.546875 64.695312 C 300.1875 63.699219 301.128906 62.058594 301.929688 59.871094 C 303.332031 56.089844 304.175781 50.863281 302.035156 44.640625 C 300.917969 41.585938 299.125 38.636719 297.066406 35.9375 C 294.917969 33.347656 292.578125 30.890625 290.277344 29.007812 C 287.980469 27.128906 285.863281 25.574219 284.300781 24.578125 C 282.703125 23.59375 281.71875 23.070312 281.71875 23.070312 C 281.71875 23.070312 280.558594 25.652344 280.164062 29.628906 C 279.773438 33.554688 280 39.0625 282.558594 44.664062 C 283.757812 47.578125 285.453125 50.230469 287.222656 52.695312 C 288.757812 54.957031 290.46875 56.878906 291.984375 58.675781 C 291.386719 58.230469 290.808594 57.753906 290.195312 57.3125 C 283.875 52.71875 277.15625 48.671875 270.203125 45.160156 C 270.59375 44.066406 271.175781 42.140625 271.464844 39.664062 C 271.683594 37.6875 271.71875 35.332031 271.234375 32.808594 C 270.742188 30.316406 269.746094 27.601562 267.964844 24.835938 C 266.1875 22.078125 263.714844 19.714844 261.078125 17.542969 C 258.394531 15.503906 255.511719 13.761719 252.84375 12.398438 C 250.15625 11.121094 247.722656 10.164062 245.96875 9.523438 C 244.199219 8.917969 243.105469 8.660156 243.105469 8.660156 C 243.105469 8.660156 242.585938 11.445312 243.148438 15.394531 C 243.703125 19.367188 245.242188 24.597656 249.023438 29.46875 C 252.796875 34.464844 258.039062 38.371094 262.257812 41.375 C 262.320312 41.425781 262.382812 41.464844 262.464844 41.515625 C 258.324219 39.726562 254.113281 38.113281 249.832031 36.707031 C 249.710938 36.5625 249.601562 36.417969 249.441406 36.246094 C 248.464844 35.171875 247.042969 33.605469 245.082031 32.082031 C 243.140625 30.539062 240.746094 28.757812 237.878906 27.40625 C 236.457031 26.710938 234.929688 26.035156 233.300781 25.457031 C 231.679688 24.953125 229.964844 24.527344 228.195312 24.210938 C 226.421875 23.863281 224.65625 23.746094 222.949219 23.757812 C 221.230469 23.75 219.578125 23.847656 218 24.015625 C 214.839844 24.503906 212.011719 25.238281 209.667969 26.074219 C 204.960938 27.894531 202.214844 29.765625 202.214844 29.765625 C 202.214844 29.765625 205 31.785156 209.289062 33.824219 C 211.417969 34.933594 213.921875 36.117188 216.675781 37.050781 C 218.050781 37.59375 219.484375 38.085938 220.96875 38.480469 C 222.476562 38.875 224.019531 39.199219 225.617188 39.515625 C 227.214844 39.796875 228.792969 39.960938 230.347656 40.027344 C 231.878906 40.148438 233.394531 40.195312 234.859375 40.15625 C 237.796875 40.027344 240.507812 39.886719 242.886719 39.523438 C 245.28125 39.15625 247.253906 38.851562 248.675781 38.546875 C 248.875 38.515625 249.019531 38.476562 249.1875 38.441406 C 253.386719 39.890625 257.5 41.53125 261.539062 43.359375 C 261.488281 43.339844 261.441406 43.328125 261.394531 43.320312 C 256.449219 42.136719 249.953125 41.789062 244.5 43.789062 C 239.007812 45.914062 235.671875 49.761719 233.640625 53.105469 C 231.625 56.460938 230.894531 59.203125 230.894531 59.203125 C 230.894531 59.203125 231.664062 59.339844 232.960938 59.519531 C 234.25 59.746094 236.074219 59.992188 238.214844 60.078125 C 240.351562 60.242188 242.796875 60.339844 245.390625 60.121094 C 247.933594 60.035156 250.671875 59.570312 253.316406 58.785156 C 255.953125 58.011719 258.3125 56.824219 260.390625 55.484375 C 262.4375 54.167969 264.167969 52.746094 265.570312 51.359375 C 267.316406 49.648438 268.523438 48.050781 269.191406 47.097656 C 276 50.667969 282.542969 54.742188 288.6875 59.359375 C 289.171875 59.726562 289.644531 60.121094 290.125 60.496094 C 288.125 59.558594 285.824219 58.792969 283.492188 58.160156 C 280.648438 57.484375 277.617188 57.222656 274.75 57.503906 C 268.894531 58.300781 264.769531 61.191406 261.980469 64.011719 C 259.222656 66.792969 257.867188 69.269531 257.867188 69.269531 C 257.867188 69.269531 258.578125 69.601562 259.800781 70.070312 C 261.027344 70.554688 262.710938 71.265625 264.78125 71.867188 C 266.851562 72.480469 269.15625 73.226562 271.75 73.605469 C 274.261719 74.09375 277 74.347656 279.785156 74.167969 C 285.28125 73.921875 290.105469 71.828125 293.445312 69.851562 C 295.390625 68.695312 296.847656 67.53125 297.742188 66.753906 C 303.671875 71.964844 309.15625 77.65625 314.175781 83.738281 C 312.675781 82.644531 311.011719 81.613281 309.277344 80.667969 C 306.640625 79.367188 303.796875 78.371094 300.933594 77.992188 C 295.066406 77.367188 290.347656 79.238281 286.984375 81.308594 C 283.652344 83.359375 281.746094 85.449219 281.746094 85.449219 C 281.746094 85.449219 282.359375 85.941406 283.449219 86.691406 C 284.539062 87.429688 286 88.542969 287.863281 89.617188 C 289.761719 90.675781 291.804688 91.960938 294.234375 92.945312 C 296.582031 93.988281 299.15625 94.90625 301.929688 95.371094 C 307.300781 96.429688 312.515625 95.5 316.207031 94.375 C 318.226562 93.75 319.808594 93.03125 320.882812 92.492188 C 322.058594 94.160156 323.199219 95.84375 324.304688 97.558594 C 327.351562 102.234375 330.078125 107.101562 332.527344 112.097656 C 331.464844 110.902344 330.304688 109.71875 329.066406 108.601562 C 326.785156 106.734375 324.316406 105.070312 321.570312 104.050781 C 318.796875 103.054688 316.152344 102.734375 313.742188 102.8125 C 311.335938 102.898438 309.082031 103.414062 307.234375 104 C 303.519531 105.207031 301.179688 106.792969 301.179688 106.792969 C 301.179688 106.792969 303.121094 109.25 306.144531 112.277344 C 307.746094 113.738281 309.425781 115.480469 311.546875 117 C 313.625 118.558594 315.839844 120.070312 318.449219 121.160156 C 323.414062 123.453125 328.722656 123.777344 332.578125 123.550781 C 334.503906 123.429688 336.136719 123.144531 337.296875 122.882812 C 339.929688 129.617188 342.054688 136.550781 343.664062 143.585938 C 343.070312 142.515625 342.421875 141.445312 341.683594 140.421875 C 339.890625 138.0625 337.964844 135.832031 335.472656 134.214844 C 333.027344 132.59375 330.550781 131.652344 328.191406 131.160156 C 325.777344 130.691406 323.515625 130.644531 321.574219 130.785156 C 317.6875 131.082031 315.039062 132.070312 315.039062 132.070312 C 315.039062 132.070312 315.34375 132.792969 315.953125 133.949219 C 316.609375 135.101562 317.414062 136.742188 318.550781 138.5625 C 320.863281 142.191406 323.960938 146.710938 328.382812 150.09375 C 332.753906 153.484375 337.648438 155.085938 341.59375 155.761719 C 343.3125 156.074219 344.820312 156.1875 345.96875 156.214844 C 346.917969 163.117188 347.394531 170.058594 347.367188 177.015625 C 347.082031 176.109375 346.773438 175.203125 346.390625 174.3125 C 345.835938 172.957031 345.199219 171.625 344.472656 170.359375 C 343.722656 169.101562 342.808594 167.902344 341.835938 166.824219 C 337.96875 162.488281 332.945312 160.835938 329.148438 160.1875 C 325.324219 159.546875 322.503906 159.882812 322.503906 159.882812 C 322.503906 159.882812 322.628906 160.65625 322.9375 161.941406 C 323.238281 163.210938 323.777344 164.988281 324.371094 167.039062 C 325.023438 169.078125 325.941406 171.378906 326.996094 173.730469 C 327.535156 174.894531 328.179688 176.082031 328.90625 177.230469 C 329.574219 178.394531 330.328125 179.527344 331.207031 180.617188 C 334.753906 184.949219 339.035156 187.648438 342.691406 189.21875 C 344.21875 189.882812 345.578125 190.332031 346.660156 190.628906 C 346.429688 192.953125 346.15625 195.28125 345.804688 197.59375 C 345.167969 201.875 344.355469 206.140625 343.363281 210.351562 C 343.019531 206.832031 342.140625 203.1875 340.421875 200.050781 C 337.582031 194.925781 333.175781 192.167969 329.644531 190.636719 C 326.03125 189.136719 323.226562 188.796875 323.226562 188.796875 C 323.226562 188.796875 323.207031 189.589844 323.167969 190.898438 C 323.152344 192.222656 323.179688 194.074219 323.414062 196.230469 C 323.5 198.367188 323.847656 200.824219 324.394531 203.359375 C 324.855469 205.871094 325.75 208.535156 326.890625 211.042969 C 328.058594 213.546875 329.585938 215.714844 331.226562 217.554688 C 332.824219 219.390625 334.503906 220.882812 336.078125 222.050781 C 337.296875 222.960938 338.417969 223.671875 339.359375 224.191406 C 337.28125 230.289062 334.832031 236.238281 332 242.003906 C 332.046875 241.625 332.101562 241.234375 332.144531 240.851562 C 332.308594 237.90625 332.171875 234.90625 331.414062 232.101562 C 329.75 226.433594 326.238281 222.785156 323.03125 220.453125 C 319.875 218.148438 317.21875 217.179688 317.21875 217.179688 C 317.21875 217.179688 316.976562 217.941406 316.710938 219.242188 C 316.425781 220.535156 315.953125 222.316406 315.675781 224.472656 C 315.433594 226.636719 315.003906 229.035156 315.03125 231.667969 C 314.976562 234.265625 315.078125 236.972656 315.734375 239.726562 C 316.820312 245.113281 319.691406 249.570312 322.179688 252.554688 C 323.058594 253.601562 323.902344 254.46875 324.644531 255.171875 C 321.394531 260.378906 317.832031 265.375 313.96875 270.140625 C 313.992188 270.0625 314.023438 270.003906 314.042969 269.933594 C 314.855469 267.085938 315.503906 264.207031 315.308594 261.246094 C 315.160156 258.304688 314.445312 255.753906 313.429688 253.558594 C 312.378906 251.339844 311.074219 249.488281 309.800781 248.011719 C 307.261719 245.050781 304.886719 243.511719 304.886719 243.511719 C 304.886719 243.511719 304.484375 244.1875 303.90625 245.382812 C 303.371094 246.597656 302.53125 248.25 301.738281 250.242188 C 300.175781 254.296875 298.390625 259.503906 298.324219 265.078125 C 298.21875 270.605469 299.882812 275.511719 301.683594 279.046875 C 302.246094 280.152344 302.796875 281.105469 303.316406 281.90625 C 301.441406 283.773438 299.535156 285.605469 297.550781 287.359375 C 295.09375 289.542969 292.539062 291.621094 289.933594 293.621094 C 291.351562 291.234375 292.476562 288.617188 292.980469 285.875 C 294.121094 280.171875 292.46875 275.203125 290.6875 271.753906 C 288.902344 268.292969 286.949219 266.253906 286.949219 266.253906 C 286.949219 266.253906 286.402344 266.8125 285.570312 267.816406 C 285.152344 268.328125 284.667969 268.949219 284.136719 269.671875 C 283.582031 270.367188 282.976562 271.148438 282.359375 272.015625 C 281.738281 272.886719 281.109375 273.859375 280.492188 274.894531 C 279.832031 275.878906 279.191406 276.953125 278.601562 278.097656 C 277.4375 280.425781 276.308594 282.835938 275.640625 285.546875 C 274.261719 290.914062 274.664062 295.992188 275.578125 299.894531 C 275.832031 301.007812 276.113281 301.984375 276.402344 302.84375 C 271.484375 305.765625 266.375 308.347656 261.117188 310.589844 C 262.886719 308.757812 264.445312 306.683594 265.5 304.363281 C 268.015625 299.144531 267.585938 293.882812 266.707031 290.136719 C 265.804688 286.363281 264.414062 283.90625 264.414062 283.90625 C 264.414062 283.90625 263.75 284.300781 262.707031 285.0625 C 261.664062 285.828125 260.253906 286.996094 258.625 288.3125 C 257.820312 288.992188 256.992188 289.75 256.144531 290.601562 C 255.289062 291.421875 254.398438 292.261719 253.554688 293.210938 C 251.863281 295.164062 250.203125 297.234375 248.875 299.652344 C 247.570312 302.109375 246.660156 304.511719 246.089844 306.863281 C 245.511719 309.21875 245.257812 311.488281 245.183594 313.464844 C 245.148438 314.460938 245.164062 315.386719 245.203125 316.199219 C 239.898438 317.6875 234.519531 318.847656 229.082031 319.636719 C 229.804688 319.191406 230.496094 318.726562 231.175781 318.222656 C 232.316406 317.28125 233.394531 316.265625 234.328125 315.152344 C 235.273438 314.054688 236.039062 312.925781 236.667969 311.785156 C 237.285156 310.597656 237.753906 309.414062 238.121094 308.25 C 238.84375 305.917969 239.109375 303.703125 239.167969 301.761719 C 239.269531 297.898438 238.550781 295.164062 238.550781 295.164062 C 238.550781 295.164062 237.824219 295.363281 236.632812 295.824219 C 235.429688 296.234375 233.808594 297.070312 231.902344 297.878906 C 230.015625 298.738281 227.914062 299.964844 225.769531 301.25 C 224.703125 301.921875 223.652344 302.6875 222.609375 303.542969 C 221.574219 304.363281 220.542969 305.203125 219.59375 306.195312 C 215.765625 310.203125 213.542969 314.71875 212.351562 318.523438 C 212.085938 319.382812 211.871094 320.183594 211.699219 320.921875 C 208.742188 320.9375 205.78125 320.902344 202.816406 320.707031 C 200.324219 320.746094 197.796875 320.851562 195.359375 321.402344 C 194.132812 321.605469 192.996094 322 191.824219 322.296875 C 190.6875 322.691406 189.546875 323.066406 188.445312 323.511719 C 187.792969 323.773438 187.164062 324.085938 186.535156 324.375 C 186.4375 324.339844 186.351562 324.296875 186.253906 324.257812 L 195.375 328.976562 C 195.871094 328.8125 196.371094 328.671875 196.855469 328.582031 C 198.691406 328.070312 200.585938 327.9375 202.5 327.921875 C 205.527344 328.246094 208.566406 328.429688 211.605469 328.488281 C 211.828125 329.417969 212.152344 330.472656 212.585938 331.613281 C 214.054688 335.253906 216.910156 339.996094 222.734375 343.039062 C 224.1875 343.804688 225.757812 344.496094 227.390625 345.003906 C 229.019531 345.484375 230.707031 345.855469 232.410156 346.136719 C 235.828125 346.777344 239.230469 346.75 242.269531 346.652344 C 245.324219 346.597656 247.933594 346.078125 249.804688 345.777344 C 251.675781 345.4375 252.796875 345.167969 252.796875 345.167969 C 252.796875 345.167969 251.863281 342.488281 249.414062 339.28125 C 248.179688 337.671875 246.585938 335.9375 244.582031 334.3125 C 243.582031 333.496094 242.492188 332.722656 241.277344 332 C 240.066406 331.21875 238.738281 330.507812 237.308594 329.875 C 235.867188 329.253906 234.386719 328.738281 232.910156 328.324219 C 231.792969 327.972656 230.683594 327.675781 229.570312 327.417969 C 235.550781 326.570312 241.476562 325.265625 247.277344 323.546875 C 247.714844 324.3125 248.253906 325.148438 248.917969 326.03125 C 250.109375 327.601562 251.691406 329.292969 253.796875 330.789062 C 255.882812 332.300781 258.523438 333.648438 261.71875 334.3125 C 264.925781 335.035156 268.449219 335.167969 271.835938 334.746094 C 273.535156 334.554688 275.238281 334.308594 276.859375 333.941406 C 278.453125 333.558594 279.996094 333.117188 281.433594 332.660156 C 284.335938 331.789062 286.734375 330.6875 288.421875 329.875 C 290.125 329.0625 291.121094 328.511719 291.121094 328.511719 C 291.121094 328.511719 289.542969 326.164062 286.335938 323.714844 C 283.136719 321.21875 278.453125 318.742188 272.246094 317.785156 C 269.449219 317.398438 266.550781 317.339844 263.761719 317.460938 C 269.371094 314.96875 274.816406 312.121094 280.03125 308.90625 C 280.6875 309.578125 281.476562 310.3125 282.425781 311.0625 C 285.511719 313.445312 290.335938 316.023438 296.878906 315.808594 C 300.125 315.671875 303.585938 314.953125 306.71875 313.703125 C 308.308594 313.101562 309.851562 312.421875 311.34375 311.703125 C 312.785156 310.949219 314.148438 310.152344 315.410156 309.355469 C 316.679688 308.5625 317.851562 307.789062 318.882812 307.050781 C 319.875 306.285156 320.746094 305.585938 321.460938 304.984375 C 322.890625 303.789062 323.710938 303.023438 323.710938 303.023438 C 323.710938 303.023438 321.605469 301.128906 317.925781 299.523438 C 314.230469 297.90625 309.070312 296.597656 302.847656 297.210938 C 299.796875 297.546875 296.726562 298.289062 293.855469 299.207031 C 296.652344 296.992188 299.386719 294.703125 302.007812 292.304688 C 304.039062 290.4375 306 288.503906 307.929688 286.542969 C 308.777344 287.082031 309.800781 287.671875 311.039062 288.21875 C 314.621094 289.8125 319.875 291.105469 326.191406 289.390625 C 332.449219 287.636719 338.496094 283.109375 342.585938 278.839844 C 344.667969 276.71875 346.359375 274.730469 347.433594 273.21875 C 348.539062 271.734375 349.144531 270.792969 349.144531 270.792969 C 349.144531 270.792969 346.660156 269.441406 342.71875 268.730469 C 340.746094 268.367188 338.40625 268.15625 335.867188 268.316406 C 333.285156 268.449219 330.445312 268.914062 327.535156 269.957031 C 324.667969 271.039062 321.742188 272.414062 319.21875 274.046875 C 318.984375 274.1875 318.765625 274.34375 318.519531 274.484375 C 322.601562 269.339844 326.347656 263.9375 329.734375 258.328125 C 330.734375 258.675781 331.960938 259.046875 333.394531 259.320312 C 337.339844 260.09375 342.597656 260.082031 348.417969 257.003906 C 351.207031 255.417969 353.917969 253.230469 356.195312 250.753906 C 358.40625 248.25 360.507812 245.582031 361.964844 243.027344 C 363.460938 240.476562 364.6875 238.167969 365.417969 236.457031 C 366.144531 234.753906 366.515625 233.699219 366.515625 233.699219 C 366.515625 233.699219 363.777344 232.957031 359.785156 233.152344 C 355.835938 233.367188 350.464844 234.433594 345.300781 237.800781 C 342.664062 239.464844 340.226562 241.515625 338.132812 243.667969 C 337.75 244.023438 337.414062 244.375 337.066406 244.734375 C 339.953125 238.640625 342.4375 232.351562 344.511719 225.9375 C 345.597656 226.070312 346.976562 226.164062 348.546875 226.101562 C 350.523438 226.015625 352.859375 225.695312 355.28125 224.835938 C 357.675781 223.980469 360.199219 222.59375 362.648438 220.433594 C 365.128906 218.28125 367.082031 215.492188 368.832031 212.570312 C 370.492188 209.636719 371.714844 206.523438 372.714844 203.714844 C 373.582031 200.882812 374.164062 198.339844 374.535156 196.519531 C 374.933594 194.699219 375.003906 193.582031 375.003906 193.582031 C 375.003906 193.582031 372.179688 193.476562 368.339844 194.59375 "
        fill-opacity="1"
        fill-rule="nonzero"
      />
    </g>
    <g fill="#f6f7f8" fill-opacity="1">
      <g transform="translate(61.390572, 211.271794)">
        <g>
          <path
            d="M 10.59375 -18.351562 C 20.578125 -23.007812 27.53125 -32.589844 27.53125 -49.257812 L 27.53125 -89.066406 C 27.53125 -90.820312 26.585938 -91.765625 24.832031 -91.765625 L 9.984375 -91.765625 C 8.230469 -91.765625 7.289062 -90.820312 7.289062 -89.066406 L 7.289062 -2.699219 C 7.289062 -0.945312 8.230469 0 9.984375 0 L 56.40625 0 C 58.164062 0 59.105469 -0.945312 59.105469 -2.699219 L 59.105469 -15.652344 C 59.105469 -17.410156 58.164062 -18.351562 56.40625 -18.351562 Z M 10.59375 -18.351562 "
          />
        </g>
      </g>
    </g>
    <g fill="#f6f7f8" fill-opacity="1">
      <g transform="translate(121.168282, 211.271794)">
        <g>
          <path
            d="M 50.46875 1.078125 C 70.308594 1.078125 87.984375 -9.851562 92.980469 -28.339844 C 93.519531 -30.226562 92.4375 -31.308594 90.550781 -31.308594 L 74.492188 -31.308594 C 73.007812 -31.308594 72.0625 -30.632812 71.386719 -29.148438 C 68.285156 -21.457031 60.050781 -17.273438 50.46875 -17.273438 C 35.625 -17.273438 23.617188 -27.800781 23.617188 -46.152344 C 23.617188 -64.371094 35.625 -74.894531 50.46875 -74.894531 C 59.917969 -74.894531 68.148438 -70.710938 71.386719 -63.15625 C 72.0625 -61.671875 73.007812 -60.996094 74.492188 -60.996094 L 90.414062 -60.996094 C 92.304688 -60.996094 93.382812 -62.074219 92.84375 -63.964844 C 87.714844 -82.183594 70.710938 -93.25 50.605469 -93.25 C 24.964844 -93.25 3.375 -75.164062 3.375 -46.152344 C 3.375 -17.542969 24.425781 1.078125 50.46875 1.078125 Z M 50.46875 1.078125 "
          />
        </g>
      </g>
    </g>
    <g fill="#f6f7f8" fill-opacity="1">
      <g transform="translate(217.379361, 211.271794)">
        <g>
          <path
            d="M 50.46875 1.078125 C 70.308594 1.078125 87.984375 -9.851562 92.980469 -28.339844 C 93.519531 -30.226562 92.4375 -31.308594 90.550781 -31.308594 L 74.492188 -31.308594 C 73.007812 -31.308594 72.0625 -30.632812 71.386719 -29.148438 C 68.285156 -21.457031 60.050781 -17.273438 50.46875 -17.273438 C 35.625 -17.273438 23.617188 -27.800781 23.617188 -46.152344 C 23.617188 -64.371094 35.625 -74.894531 50.46875 -74.894531 C 59.917969 -74.894531 68.148438 -70.710938 71.386719 -63.15625 C 72.0625 -61.671875 73.007812 -60.996094 74.492188 -60.996094 L 90.414062 -60.996094 C 92.304688 -60.996094 93.382812 -62.074219 92.84375 -63.964844 C 87.714844 -82.183594 70.710938 -93.25 50.605469 -93.25 C 24.964844 -93.25 3.375 -75.164062 3.375 -46.152344 C 3.375 -17.542969 24.425781 1.078125 50.46875 1.078125 Z M 50.46875 1.078125 "
          />
        </g>
      </g>
    </g>
    <g fill="#f6f7f8" fill-opacity="1">
      <g transform="translate(69.585209, 240.31522)">
        <g>
          <path
            d="M 1.714844 -2.972656 C 3.332031 -3.726562 4.457031 -5.277344 4.457031 -7.976562 L 4.457031 -14.421875 C 4.457031 -14.707031 4.304688 -14.859375 4.019531 -14.859375 L 1.617188 -14.859375 C 1.332031 -14.859375 1.179688 -14.707031 1.179688 -14.421875 L 1.179688 -0.4375 C 1.179688 -0.152344 1.332031 0 1.617188 0 L 9.132812 0 C 9.417969 0 9.570312 -0.152344 9.570312 -0.4375 L 9.570312 -2.535156 C 9.570312 -2.820312 9.417969 -2.972656 9.132812 -2.972656 Z M 1.714844 -2.972656 "
          />
        </g>
      </g>
    </g>
    <g fill="#f6f7f8" fill-opacity="1">
      <g transform="translate(79.265161, 240.31522)">
        <g>
          <path
            d="M 6.207031 -9.988281 C 2.972656 -9.988281 0.589844 -7.953125 0.589844 -4.808594 C 0.589844 -1.617188 2.882812 0.351562 6.207031 0.351562 C 8.609375 0.351562 10.511719 -0.699219 11.277344 -2.882812 C 11.386719 -3.191406 11.210938 -3.386719 10.90625 -3.386719 L 8.480469 -3.386719 C 8.238281 -3.386719 8.109375 -3.257812 8 -3.015625 C 7.734375 -2.425781 7.101562 -1.988281 6.140625 -1.988281 C 4.917969 -1.988281 4.152344 -2.863281 4.066406 -4.195312 L 11.101562 -4.195312 C 11.386719 -4.195312 11.539062 -4.347656 11.539062 -4.632812 L 11.539062 -5.027344 C 11.539062 -8.21875 9.132812 -9.988281 6.207031 -9.988281 Z M 4.109375 -5.964844 C 4.292969 -7.015625 4.882812 -7.757812 6.097656 -7.757812 C 7.253906 -7.757812 8 -7.015625 8.0625 -5.964844 Z M 4.109375 -5.964844 "
          />
        </g>
      </g>
    </g>
    <g fill="#f6f7f8" fill-opacity="1">
      <g transform="translate(91.436116, 240.31522)">
        <g>
          <path
            d="M 9.296875 -8.074219 C 8.445312 -9.265625 7.089844 -9.988281 5.441406 -9.988281 C 2.601562 -9.988281 0.632812 -7.867188 0.632812 -4.828125 C 0.632812 -1.769531 2.601562 0.351562 5.441406 0.351562 C 7.089844 0.351562 8.445312 -0.371094 9.296875 -1.574219 C 9.835938 -0.503906 10.75 0.0859375 12.019531 0.21875 L 12.019531 -9.855469 C 10.75 -9.726562 9.835938 -9.132812 9.296875 -8.074219 Z M 6.445312 -2.273438 C 5.113281 -2.273438 4.152344 -3.320312 4.152344 -4.808594 C 4.152344 -6.292969 5.113281 -7.34375 6.445312 -7.34375 C 7.78125 -7.34375 8.742188 -6.292969 8.742188 -4.808594 C 8.742188 -3.320312 7.78125 -2.273438 6.445312 -2.273438 Z M 6.445312 -2.273438 "
          />
        </g>
      </g>
    </g>
    <g fill="#f6f7f8" fill-opacity="1">
      <g transform="translate(104.524807, 240.31522)">
        <g>
          <path
            d="M 9.210938 -8.183594 C 8.359375 -9.320312 7.035156 -9.988281 5.441406 -9.988281 C 2.601562 -9.988281 0.632812 -7.867188 0.632812 -4.828125 C 0.632812 -1.769531 2.601562 0.351562 5.441406 0.351562 C 6.773438 0.351562 7.910156 -0.109375 8.742188 -0.917969 L 8.742188 0.832031 C 8.742188 2.382812 7.933594 3.039062 6.492188 3.039062 C 5.179688 3.039062 4.371094 2.578125 4.152344 1.640625 C 4.085938 1.355469 3.933594 1.222656 3.671875 1.222656 L 1.265625 1.222656 C 0.984375 1.222656 0.808594 1.398438 0.851562 1.683594 C 1.222656 4.480469 3.757812 5.464844 6.445312 5.464844 C 9.726562 5.464844 12.019531 4.019531 12.019531 0.851562 L 12.019531 -9.855469 C 10.6875 -9.855469 9.734375 -9.277344 9.210938 -8.183594 Z M 6.445312 -2.273438 C 5.113281 -2.273438 4.152344 -3.320312 4.152344 -4.808594 C 4.152344 -6.292969 5.113281 -7.34375 6.445312 -7.34375 C 7.78125 -7.34375 8.742188 -6.292969 8.742188 -4.808594 C 8.742188 -3.320312 7.78125 -2.273438 6.445312 -2.273438 Z M 6.445312 -2.273438 "
          />
        </g>
      </g>
    </g>
    <g fill="#f6f7f8" fill-opacity="1">
      <g transform="translate(117.613499, 240.31522)">
        <g>
          <path
            d="M 7.910156 -9.636719 C 7.625 -9.636719 7.472656 -9.484375 7.472656 -9.199219 L 7.472656 -4.609375 C 7.472656 -3.257812 6.664062 -2.273438 5.574219 -2.273438 C 4.699219 -2.273438 4.175781 -2.929688 4.175781 -4.042969 L 4.175781 -9.199219 C 4.175781 -9.484375 4.019531 -9.636719 3.738281 -9.636719 L 1.332031 -9.636719 C 1.050781 -9.636719 0.894531 -9.484375 0.894531 -9.199219 L 0.894531 -4.042969 C 0.894531 -1.203125 2.230469 0.351562 4.65625 0.351562 C 6.207031 0.351562 7.300781 -0.285156 8.007812 -1.59375 C 8.554688 -0.511719 9.472656 0.0859375 10.75 0.21875 L 10.75 -9.199219 C 10.75 -9.484375 10.597656 -9.636719 10.316406 -9.636719 Z M 7.910156 -9.636719 "
          />
        </g>
      </g>
    </g>
    <g fill="#f6f7f8" fill-opacity="1">
      <g transform="translate(129.412986, 240.31522)">
        <g>
          <path
            d="M 6.207031 -9.988281 C 2.972656 -9.988281 0.589844 -7.953125 0.589844 -4.808594 C 0.589844 -1.617188 2.882812 0.351562 6.207031 0.351562 C 8.609375 0.351562 10.511719 -0.699219 11.277344 -2.882812 C 11.386719 -3.191406 11.210938 -3.386719 10.90625 -3.386719 L 8.480469 -3.386719 C 8.238281 -3.386719 8.109375 -3.257812 8 -3.015625 C 7.734375 -2.425781 7.101562 -1.988281 6.140625 -1.988281 C 4.917969 -1.988281 4.152344 -2.863281 4.066406 -4.195312 L 11.101562 -4.195312 C 11.386719 -4.195312 11.539062 -4.347656 11.539062 -4.632812 L 11.539062 -5.027344 C 11.539062 -8.21875 9.132812 -9.988281 6.207031 -9.988281 Z M 4.109375 -5.964844 C 4.292969 -7.015625 4.882812 -7.757812 6.097656 -7.757812 C 7.253906 -7.757812 8 -7.015625 8.0625 -5.964844 Z M 4.109375 -5.964844 "
          />
        </g>
      </g>
    </g>
    <g fill="#f6f7f8" fill-opacity="1">
      <g transform="translate(141.583941, 240.31522)"><g /></g>
    </g>
    <g fill="#f6f7f8" fill-opacity="1">
      <g transform="translate(147.265177, 240.31522)">
        <g>
          <path
            d="M 8.171875 0.175781 C 11.386719 0.175781 14.25 -1.59375 15.058594 -4.589844 C 15.144531 -4.894531 14.96875 -5.070312 14.664062 -5.070312 L 12.0625 -5.070312 C 11.824219 -5.070312 11.667969 -4.960938 11.558594 -4.71875 C 11.058594 -3.476562 9.726562 -2.796875 8.171875 -2.796875 C 5.769531 -2.796875 3.824219 -4.5 3.824219 -7.472656 C 3.824219 -10.425781 5.769531 -12.128906 8.171875 -12.128906 C 9.703125 -12.128906 11.035156 -11.453125 11.558594 -10.226562 C 11.667969 -9.988281 11.824219 -9.878906 12.0625 -9.878906 L 14.640625 -9.878906 C 14.949219 -9.878906 15.121094 -10.050781 15.035156 -10.359375 C 14.203125 -13.308594 11.453125 -15.101562 8.195312 -15.101562 C 4.042969 -15.101562 0.546875 -12.171875 0.546875 -7.472656 C 0.546875 -2.839844 3.957031 0.175781 8.171875 0.175781 Z M 8.171875 0.175781 "
          />
        </g>
      </g>
    </g>
    <g fill="#f6f7f8" fill-opacity="1">
      <g transform="translate(162.844872, 240.31522)">
        <g>
          <path
            d="M 6.117188 0.351562 C 9.550781 0.351562 11.605469 -1.769531 11.605469 -4.808594 C 11.605469 -7.824219 9.527344 -9.988281 6.117188 -9.988281 C 2.6875 -9.988281 0.613281 -7.824219 0.613281 -4.808594 C 0.613281 -1.792969 2.667969 0.351562 6.117188 0.351562 Z M 6.117188 -2.207031 C 4.65625 -2.207031 3.867188 -3.34375 3.867188 -4.785156 C 3.867188 -6.25 4.675781 -7.429688 6.117188 -7.429688 C 7.5625 -7.429688 8.347656 -6.273438 8.347656 -4.785156 C 8.347656 -3.320312 7.5625 -2.207031 6.117188 -2.207031 Z M 6.117188 -2.207031 "
          />
        </g>
      </g>
    </g>
    <g fill="#f6f7f8" fill-opacity="1">
      <g transform="translate(175.081383, 240.31522)">
        <g>
          <path
            d="M 13.484375 -9.988281 C 12.03125 -9.988281 10.96875 -9.582031 10.050781 -8.46875 C 9.429688 -9.679688 8.25 -9.988281 7.191406 -9.988281 C 5.910156 -9.988281 4.589844 -9.34375 3.636719 -8.238281 C 3.09375 -9.070312 2.21875 -9.617188 1.050781 -9.855469 L 1.050781 -0.4375 C 1.050781 -0.152344 1.203125 0 1.484375 0 L 3.890625 0 C 4.175781 0 4.328125 -0.152344 4.328125 -0.4375 L 4.328125 -5.550781 C 4.445312 -6.675781 5.015625 -7.363281 6.007812 -7.363281 C 7.101562 -7.363281 7.472656 -6.621094 7.472656 -5.246094 L 7.472656 -0.4375 C 7.472656 -0.152344 7.625 0 7.910156 0 L 10.316406 0 C 10.597656 0 10.75 -0.152344 10.75 -0.4375 L 10.75 -5.246094 C 10.75 -6.621094 11.253906 -7.363281 12.433594 -7.363281 C 13.613281 -7.363281 13.921875 -6.621094 13.921875 -5.246094 L 13.921875 -0.4375 C 13.921875 -0.152344 14.074219 0 14.359375 0 L 16.761719 0 C 17.046875 0 17.199219 -0.152344 17.199219 -0.4375 L 17.199219 -6.335938 C 17.199219 -8.390625 15.996094 -9.988281 13.484375 -9.988281 Z M 13.484375 -9.988281 "
          />
        </g>
      </g>
    </g>
    <g fill="#f6f7f8" fill-opacity="1">
      <g transform="translate(193.217638, 240.31522)">
        <g>
          <path
            d="M 13.484375 -9.988281 C 12.03125 -9.988281 10.96875 -9.582031 10.050781 -8.46875 C 9.429688 -9.679688 8.25 -9.988281 7.191406 -9.988281 C 5.910156 -9.988281 4.589844 -9.34375 3.636719 -8.238281 C 3.09375 -9.070312 2.21875 -9.617188 1.050781 -9.855469 L 1.050781 -0.4375 C 1.050781 -0.152344 1.203125 0 1.484375 0 L 3.890625 0 C 4.175781 0 4.328125 -0.152344 4.328125 -0.4375 L 4.328125 -5.550781 C 4.445312 -6.675781 5.015625 -7.363281 6.007812 -7.363281 C 7.101562 -7.363281 7.472656 -6.621094 7.472656 -5.246094 L 7.472656 -0.4375 C 7.472656 -0.152344 7.625 0 7.910156 0 L 10.316406 0 C 10.597656 0 10.75 -0.152344 10.75 -0.4375 L 10.75 -5.246094 C 10.75 -6.621094 11.253906 -7.363281 12.433594 -7.363281 C 13.613281 -7.363281 13.921875 -6.621094 13.921875 -5.246094 L 13.921875 -0.4375 C 13.921875 -0.152344 14.074219 0 14.359375 0 L 16.761719 0 C 17.046875 0 17.199219 -0.152344 17.199219 -0.4375 L 17.199219 -6.335938 C 17.199219 -8.390625 15.996094 -9.988281 13.484375 -9.988281 Z M 13.484375 -9.988281 "
          />
        </g>
      </g>
    </g>
    <g fill="#f6f7f8" fill-opacity="1">
      <g transform="translate(211.353892, 240.31522)">
        <g>
          <path
            d="M 7.910156 -9.636719 C 7.625 -9.636719 7.472656 -9.484375 7.472656 -9.199219 L 7.472656 -4.609375 C 7.472656 -3.257812 6.664062 -2.273438 5.574219 -2.273438 C 4.699219 -2.273438 4.175781 -2.929688 4.175781 -4.042969 L 4.175781 -9.199219 C 4.175781 -9.484375 4.019531 -9.636719 3.738281 -9.636719 L 1.332031 -9.636719 C 1.050781 -9.636719 0.894531 -9.484375 0.894531 -9.199219 L 0.894531 -4.042969 C 0.894531 -1.203125 2.230469 0.351562 4.65625 0.351562 C 6.207031 0.351562 7.300781 -0.285156 8.007812 -1.59375 C 8.554688 -0.511719 9.472656 0.0859375 10.75 0.21875 L 10.75 -9.199219 C 10.75 -9.484375 10.597656 -9.636719 10.316406 -9.636719 Z M 7.910156 -9.636719 "
          />
        </g>
      </g>
    </g>
    <g fill="#f6f7f8" fill-opacity="1">
      <g transform="translate(223.15338, 240.31522)">
        <g>
          <path
            d="M 7.253906 -9.988281 C 5.988281 -9.988281 4.808594 -9.429688 3.8125 -7.964844 C 3.277344 -8.9375 2.339844 -9.59375 1.050781 -9.855469 L 1.050781 -0.4375 C 1.050781 -0.152344 1.203125 0 1.484375 0 L 3.890625 0 C 4.175781 0 4.328125 -0.152344 4.328125 -0.4375 L 4.328125 -5.429688 C 4.457031 -6.632812 5.210938 -7.363281 6.140625 -7.363281 C 7.167969 -7.363281 7.605469 -6.730469 7.605469 -5.59375 L 7.605469 -0.4375 C 7.605469 -0.152344 7.757812 0 8.042969 0 L 10.445312 0 C 10.730469 0 10.882812 -0.152344 10.882812 -0.4375 L 10.882812 -5.59375 C 10.882812 -8.21875 9.835938 -9.988281 7.253906 -9.988281 Z M 7.253906 -9.988281 "
          />
        </g>
      </g>
    </g>
    <g fill="#f6f7f8" fill-opacity="1">
      <g transform="translate(234.952857, 240.31522)">
        <g>
          <path
            d="M 2.535156 -11.539062 C 3.714844 -11.539062 4.9375 -12.128906 4.9375 -13.308594 C 4.9375 -14.46875 3.714844 -15.078125 2.535156 -15.078125 C 1.332031 -15.078125 0.132812 -14.46875 0.132812 -13.308594 C 0.132812 -12.128906 1.332031 -11.539062 2.535156 -11.539062 Z M 3.890625 0 C 4.175781 0 4.328125 -0.152344 4.328125 -0.4375 L 4.328125 -5.703125 C 4.328125 -7.953125 3.167969 -9.417969 1.050781 -9.855469 L 1.050781 -0.4375 C 1.050781 -0.152344 1.203125 0 1.484375 0 Z M 3.890625 0 "
          />
        </g>
      </g>
    </g>
    <g fill="#f6f7f8" fill-opacity="1">
      <g transform="translate(240.197069, 240.31522)">
        <g>
          <path
            d="M 5.375 -9.636719 L 5.375 -13.789062 C 3.257812 -13.351562 2.097656 -11.886719 2.097656 -9.636719 L 0.699219 -9.636719 C 0.414062 -9.636719 0.261719 -9.484375 0.261719 -9.199219 L 0.261719 -7.539062 C 0.261719 -7.253906 0.414062 -7.101562 0.699219 -7.101562 L 2.097656 -7.101562 L 2.097656 -0.4375 C 2.097656 -0.152344 2.25 0 2.535156 0 L 4.9375 0 C 5.222656 0 5.375 -0.152344 5.375 -0.4375 L 5.375 -7.101562 L 6.796875 -7.101562 C 7.082031 -7.101562 7.234375 -7.253906 7.234375 -7.539062 L 7.234375 -9.199219 C 7.234375 -9.484375 7.082031 -9.636719 6.796875 -9.636719 Z M 5.375 -9.636719 "
          />
        </g>
      </g>
    </g>
    <g fill="#f6f7f8" fill-opacity="1">
      <g transform="translate(247.691929, 240.31522)">
        <g>
          <path
            d="M 2.121094 5.464844 C 4.457031 5.464844 5.921875 4.371094 6.839844 2.011719 L 11.40625 -9.855469 C 9.15625 -9.855469 7.671875 -8.742188 6.863281 -6.316406 L 5.683594 -2.753906 L 3.539062 -9.289062 C 3.453125 -9.527344 3.277344 -9.636719 3.039062 -9.636719 L 0.632812 -9.636719 C 0.304688 -9.636719 0.175781 -9.441406 0.285156 -9.132812 L 4.019531 0.699219 Z M 2.121094 5.464844 "
          />
        </g>
      </g>
    </g>
    <g fill="#f6f7f8" fill-opacity="1">
      <g transform="translate(259.272909, 240.31522)"><g /></g>
    </g>
    <g fill="#f6f7f8" fill-opacity="1">
      <g transform="translate(264.954155, 240.31522)">
        <g>
          <path
            d="M 8.171875 0.175781 C 11.386719 0.175781 14.25 -1.59375 15.058594 -4.589844 C 15.144531 -4.894531 14.96875 -5.070312 14.664062 -5.070312 L 12.0625 -5.070312 C 11.824219 -5.070312 11.667969 -4.960938 11.558594 -4.71875 C 11.058594 -3.476562 9.726562 -2.796875 8.171875 -2.796875 C 5.769531 -2.796875 3.824219 -4.5 3.824219 -7.472656 C 3.824219 -10.425781 5.769531 -12.128906 8.171875 -12.128906 C 9.703125 -12.128906 11.035156 -11.453125 11.558594 -10.226562 C 11.667969 -9.988281 11.824219 -9.878906 12.0625 -9.878906 L 14.640625 -9.878906 C 14.949219 -9.878906 15.121094 -10.050781 15.035156 -10.359375 C 14.203125 -13.308594 11.453125 -15.101562 8.195312 -15.101562 C 4.042969 -15.101562 0.546875 -12.171875 0.546875 -7.472656 C 0.546875 -2.839844 3.957031 0.175781 8.171875 0.175781 Z M 8.171875 0.175781 "
          />
        </g>
      </g>
    </g>
    <g fill="#f6f7f8" fill-opacity="1">
      <g transform="translate(280.53386, 240.31522)">
        <g>
          <path
            d="M 7.910156 -9.636719 C 7.625 -9.636719 7.472656 -9.484375 7.472656 -9.199219 L 7.472656 -4.609375 C 7.472656 -3.257812 6.664062 -2.273438 5.574219 -2.273438 C 4.699219 -2.273438 4.175781 -2.929688 4.175781 -4.042969 L 4.175781 -9.199219 C 4.175781 -9.484375 4.019531 -9.636719 3.738281 -9.636719 L 1.332031 -9.636719 C 1.050781 -9.636719 0.894531 -9.484375 0.894531 -9.199219 L 0.894531 -4.042969 C 0.894531 -1.203125 2.230469 0.351562 4.65625 0.351562 C 6.207031 0.351562 7.300781 -0.285156 8.007812 -1.59375 C 8.554688 -0.511719 9.472656 0.0859375 10.75 0.21875 L 10.75 -9.199219 C 10.75 -9.484375 10.597656 -9.636719 10.316406 -9.636719 Z M 7.910156 -9.636719 "
          />
        </g>
      </g>
    </g>
    <g fill="#f6f7f8" fill-opacity="1">
      <g transform="translate(292.333347, 240.31522)">
        <g>
          <path
            d="M 7.625 -9.988281 C 5.964844 -9.988281 4.601562 -9.265625 3.757812 -8.054688 C 3.222656 -8.980469 2.304688 -9.59375 1.050781 -9.855469 L 1.050781 0.875 C 1.050781 3.714844 2.207031 5.246094 4.328125 5.464844 L 4.328125 -0.917969 C 5.15625 -0.109375 6.292969 0.351562 7.625 0.351562 C 10.46875 0.351562 12.433594 -1.769531 12.433594 -4.828125 C 12.433594 -7.867188 10.46875 -9.988281 7.625 -9.988281 Z M 6.621094 -2.273438 C 5.289062 -2.273438 4.328125 -3.320312 4.328125 -4.808594 C 4.328125 -6.292969 5.289062 -7.34375 6.621094 -7.34375 C 7.953125 -7.34375 8.917969 -6.292969 8.917969 -4.808594 C 8.917969 -3.320312 7.953125 -2.273438 6.621094 -2.273438 Z M 6.621094 -2.273438 "
          />
        </g>
      </g>
    </g>
  </svg>
